M48
;DRILL file {KiCad 4.0.1-2.201512121406+6195~38~ubuntu15.10.1-stable} date Monday, December 14, 2015 PM10:15:40 HKT
;FORMAT={-:-/ absolute / inch / decimal}
FMAT,2
INCH,TZ
T1C0.016
T2C0.020
T3C0.040
T4C0.024
%
G90
G05
M72
T1
X0.2461Y3.4713
X0.2461Y2.2313
X0.2461Y0.9913
X0.3416Y3.1261
X0.3416Y1.8861
X0.3416Y0.6461
X0.3482Y3.0232
X0.3482Y1.7832
X0.3482Y0.5432
X0.3619Y2.9461
X0.3619Y1.7061
X0.3619Y0.4661
X0.453Y3.192
X0.453Y1.952
X0.453Y0.712
X0.6541Y2.9377
X0.6541Y1.6977
X0.6541Y0.4577
X0.6757Y2.966
X0.6757Y1.726
X0.6757Y0.486
X0.6963Y3.0969
X0.6963Y1.8569
X0.6963Y0.6169
X0.7158Y3.2983
X0.7158Y2.0583
X0.7158Y0.8183
X0.7733Y3.2577
X0.7733Y2.0177
X0.7733Y0.7777
X0.8124Y3.1005
X0.8124Y1.8605
X0.8124Y0.6205
X0.883Y2.8438
X0.883Y1.6038
X0.883Y0.3638
X1.2861Y3.4713
X1.2861Y2.2313
X1.2861Y0.9913
X1.3816Y3.1261
X1.3816Y1.8861
X1.3816Y0.6461
X1.3882Y3.0232
X1.3882Y1.7832
X1.3882Y0.5432
X1.4019Y2.9461
X1.4019Y1.7061
X1.4019Y0.4661
X1.493Y3.192
X1.493Y1.952
X1.493Y0.712
X1.6941Y2.9377
X1.6941Y1.6977
X1.6941Y0.4577
X1.7157Y2.966
X1.7157Y1.726
X1.7157Y0.486
X1.7363Y3.0969
X1.7363Y1.8569
X1.7363Y0.6169
X1.7558Y3.2983
X1.7558Y2.0583
X1.7558Y0.8183
X1.8133Y3.2577
X1.8133Y2.0177
X1.8133Y0.7777
X1.8524Y3.1005
X1.8524Y1.8605
X1.8524Y0.6205
X1.923Y2.8438
X1.923Y1.6038
X1.923Y0.3638
X2.3261Y3.4713
X2.3261Y2.2313
X2.3261Y0.9913
X2.4216Y3.1261
X2.4216Y1.8861
X2.4216Y0.6461
X2.4282Y3.0232
X2.4282Y1.7832
X2.4282Y0.5432
X2.4419Y2.9461
X2.4419Y1.7061
X2.4419Y0.4661
X2.533Y3.192
X2.533Y1.952
X2.533Y0.712
X2.7341Y2.9377
X2.7341Y1.6977
X2.7341Y0.4577
X2.7557Y2.966
X2.7557Y1.726
X2.7557Y0.486
X2.7763Y3.0969
X2.7763Y1.8569
X2.7763Y0.6169
X2.7958Y3.2983
X2.7958Y2.0583
X2.7958Y0.8183
X2.8533Y3.2577
X2.8533Y2.0177
X2.8533Y0.7777
X2.8924Y3.1005
X2.8924Y1.8605
X2.8924Y0.6205
X2.963Y2.8438
X2.963Y1.6038
X2.963Y0.3638
T3
X0.07Y3.65
X0.07Y3.55
X0.07Y3.45
X0.07Y3.35
X0.07Y3.25
X0.07Y3.15
X0.07Y3.05
X0.07Y2.95
X0.07Y2.85
X0.07Y2.75
X0.07Y2.65
X0.07Y2.55
X0.07Y2.41
X0.07Y2.31
X0.07Y2.21
X0.07Y2.11
X0.07Y2.01
X0.07Y1.91
X0.07Y1.81
X0.07Y1.71
X0.07Y1.61
X0.07Y1.51
X0.07Y1.41
X0.07Y1.31
X0.07Y1.17
X0.07Y1.07
X0.07Y0.97
X0.07Y0.87
X0.07Y0.77
X0.07Y0.67
X0.07Y0.57
X0.07Y0.47
X0.07Y0.37
X0.07Y0.27
X0.07Y0.17
X0.07Y0.07
X0.38Y3.65
X0.38Y3.55
X0.38Y2.41
X0.38Y2.31
X0.38Y1.17
X0.38Y1.07
X0.48Y3.65
X0.48Y3.55
X0.48Y2.41
X0.48Y2.31
X0.48Y1.17
X0.48Y1.07
X0.58Y3.65
X0.58Y3.55
X0.58Y2.41
X0.58Y2.31
X0.58Y1.17
X0.58Y1.07
X0.68Y3.65
X0.68Y3.55
X0.68Y2.41
X0.68Y2.31
X0.68Y1.17
X0.68Y1.07
X0.78Y3.65
X0.78Y3.55
X0.78Y2.41
X0.78Y2.31
X0.78Y1.17
X0.78Y1.07
X0.97Y3.65
X0.97Y3.55
X0.97Y3.45
X0.97Y3.35
X0.97Y3.25
X0.97Y3.15
X0.97Y3.05
X0.97Y2.95
X0.97Y2.85
X0.97Y2.75
X0.97Y2.65
X0.97Y2.55
X0.97Y2.41
X0.97Y2.31
X0.97Y2.21
X0.97Y2.11
X0.97Y2.01
X0.97Y1.91
X0.97Y1.81
X0.97Y1.71
X0.97Y1.61
X0.97Y1.51
X0.97Y1.41
X0.97Y1.31
X0.97Y1.17
X0.97Y1.07
X0.97Y0.97
X0.97Y0.87
X0.97Y0.77
X0.97Y0.67
X0.97Y0.57
X0.97Y0.47
X0.97Y0.37
X0.97Y0.27
X0.97Y0.17
X0.97Y0.07
X1.11Y3.65
X1.11Y3.55
X1.11Y3.45
X1.11Y3.35
X1.11Y3.25
X1.11Y3.15
X1.11Y3.05
X1.11Y2.95
X1.11Y2.85
X1.11Y2.75
X1.11Y2.65
X1.11Y2.55
X1.11Y2.41
X1.11Y2.31
X1.11Y2.21
X1.11Y2.11
X1.11Y2.01
X1.11Y1.91
X1.11Y1.81
X1.11Y1.71
X1.11Y1.61
X1.11Y1.51
X1.11Y1.41
X1.11Y1.31
X1.11Y1.17
X1.11Y1.07
X1.11Y0.97
X1.11Y0.87
X1.11Y0.77
X1.11Y0.67
X1.11Y0.57
X1.11Y0.47
X1.11Y0.37
X1.11Y0.27
X1.11Y0.17
X1.11Y0.07
X1.42Y3.65
X1.42Y3.55
X1.42Y2.41
X1.42Y2.31
X1.42Y1.17
X1.42Y1.07
X1.52Y3.65
X1.52Y3.55
X1.52Y2.41
X1.52Y2.31
X1.52Y1.17
X1.52Y1.07
X1.62Y3.65
X1.62Y3.55
X1.62Y2.41
X1.62Y2.31
X1.62Y1.17
X1.62Y1.07
X1.72Y3.65
X1.72Y3.55
X1.72Y2.41
X1.72Y2.31
X1.72Y1.17
X1.72Y1.07
X1.82Y3.65
X1.82Y3.55
X1.82Y2.41
X1.82Y2.31
X1.82Y1.17
X1.82Y1.07
X2.01Y3.65
X2.01Y3.55
X2.01Y3.45
X2.01Y3.35
X2.01Y3.25
X2.01Y3.15
X2.01Y3.05
X2.01Y2.95
X2.01Y2.85
X2.01Y2.75
X2.01Y2.65
X2.01Y2.55
X2.01Y2.41
X2.01Y2.31
X2.01Y2.21
X2.01Y2.11
X2.01Y2.01
X2.01Y1.91
X2.01Y1.81
X2.01Y1.71
X2.01Y1.61
X2.01Y1.51
X2.01Y1.41
X2.01Y1.31
X2.01Y1.17
X2.01Y1.07
X2.01Y0.97
X2.01Y0.87
X2.01Y0.77
X2.01Y0.67
X2.01Y0.57
X2.01Y0.47
X2.01Y0.37
X2.01Y0.27
X2.01Y0.17
X2.01Y0.07
X2.15Y3.65
X2.15Y3.55
X2.15Y3.45
X2.15Y3.35
X2.15Y3.25
X2.15Y3.15
X2.15Y3.05
X2.15Y2.95
X2.15Y2.85
X2.15Y2.75
X2.15Y2.65
X2.15Y2.55
X2.15Y2.41
X2.15Y2.31
X2.15Y2.21
X2.15Y2.11
X2.15Y2.01
X2.15Y1.91
X2.15Y1.81
X2.15Y1.71
X2.15Y1.61
X2.15Y1.51
X2.15Y1.41
X2.15Y1.31
X2.15Y1.17
X2.15Y1.07
X2.15Y0.97
X2.15Y0.87
X2.15Y0.77
X2.15Y0.67
X2.15Y0.57
X2.15Y0.47
X2.15Y0.37
X2.15Y0.27
X2.15Y0.17
X2.15Y0.07
X2.46Y3.65
X2.46Y3.55
X2.46Y2.41
X2.46Y2.31
X2.46Y1.17
X2.46Y1.07
X2.56Y3.65
X2.56Y3.55
X2.56Y2.41
X2.56Y2.31
X2.56Y1.17
X2.56Y1.07
X2.66Y3.65
X2.66Y3.55
X2.66Y2.41
X2.66Y2.31
X2.66Y1.17
X2.66Y1.07
X2.76Y3.65
X2.76Y3.55
X2.76Y2.41
X2.76Y2.31
X2.76Y1.17
X2.76Y1.07
X2.86Y3.65
X2.86Y3.55
X2.86Y2.41
X2.86Y2.31
X2.86Y1.17
X2.86Y1.07
X3.05Y3.65
X3.05Y3.55
X3.05Y3.45
X3.05Y3.35
X3.05Y3.25
X3.05Y3.15
X3.05Y3.05
X3.05Y2.95
X3.05Y2.85
X3.05Y2.75
X3.05Y2.65
X3.05Y2.55
X3.05Y2.41
X3.05Y2.31
X3.05Y2.21
X3.05Y2.11
X3.05Y2.01
X3.05Y1.91
X3.05Y1.81
X3.05Y1.71
X3.05Y1.61
X3.05Y1.51
X3.05Y1.41
X3.05Y1.31
X3.05Y1.17
X3.05Y1.07
X3.05Y0.97
X3.05Y0.87
X3.05Y0.77
X3.05Y0.67
X3.05Y0.57
X3.05Y0.47
X3.05Y0.37
X3.05Y0.27
X3.05Y0.17
X3.05Y0.07
T4
X0.2952Y2.6546
X0.2952Y1.4146
X0.2952Y0.1746
X0.4448Y2.6546
X0.4448Y1.4146
X0.4448Y0.1746
X1.3352Y2.6546
X1.3352Y1.4146
X1.3352Y0.1746
X1.4848Y2.6546
X1.4848Y1.4146
X1.4848Y0.1746
X2.3752Y2.6546
X2.3752Y1.4146
X2.3752Y0.1746
X2.5248Y2.6546
X2.5248Y1.4146
X2.5248Y0.1746
T2
X0.244Y2.5857G85X0.244Y2.5543
G05
X0.244Y1.3457G85X0.244Y1.3143
G05
X0.244Y0.1057G85X0.244Y0.0743
G05
X0.496Y2.5857G85X0.496Y2.5543
G05
X0.496Y1.3457G85X0.496Y1.3143
G05
X0.496Y0.1057G85X0.496Y0.0743
G05
X1.284Y2.5857G85X1.284Y2.5543
G05
X1.284Y1.3457G85X1.284Y1.3143
G05
X1.284Y0.1057G85X1.284Y0.0743
G05
X1.536Y2.5857G85X1.536Y2.5543
G05
X1.536Y1.3457G85X1.536Y1.3143
G05
X1.536Y0.1057G85X1.536Y0.0743
G05
X2.324Y2.5857G85X2.324Y2.5543
G05
X2.324Y1.3457G85X2.324Y1.3143
G05
X2.324Y0.1057G85X2.324Y0.0743
G05
X2.576Y2.5857G85X2.576Y2.5543
G05
X2.576Y1.3457G85X2.576Y1.3143
G05
X2.576Y0.1057G85X2.576Y0.0743
G05
T0
M30
