G04 #@! TF.FileFunction,Soldermask,Bot*
%FSLAX46Y46*%
G04 Gerber Fmt 4.6, Leading zero omitted, Abs format (unit mm)*
G04 Created by KiCad (PCBNEW 4.0.1-2.201512121406+6195~38~ubuntu15.10.1-stable) date Monday, December 14, 2015 PM10:15:38 HKT*
%MOMM*%
G01*
G04 APERTURE LIST*
%ADD10C,0.100000*%
%ADD11O,1.403200X2.203200*%
%ADD12C,0.803200*%
%ADD13R,1.930400X1.930400*%
%ADD14O,1.930400X1.930400*%
%ADD15R,2.235200X1.930400*%
%ADD16O,2.235200X1.930400*%
G04 APERTURE END LIST*
D10*
D11*
X59030000Y2286000D03*
X65430000Y2286000D03*
D12*
X60330000Y4436000D03*
X64130000Y4436000D03*
D13*
X72644000Y29718000D03*
D14*
X72644000Y27178000D03*
X70104000Y29718000D03*
X70104000Y27178000D03*
X67564000Y29718000D03*
X67564000Y27178000D03*
X65024000Y29718000D03*
X65024000Y27178000D03*
X62484000Y29718000D03*
X62484000Y27178000D03*
D15*
X77470000Y29718000D03*
D16*
X77470000Y27178000D03*
X77470000Y24638000D03*
X77470000Y22098000D03*
X77470000Y19558000D03*
X77470000Y17018000D03*
X77470000Y14478000D03*
X77470000Y11938000D03*
X77470000Y9398000D03*
X77470000Y6858000D03*
X77470000Y4318000D03*
X77470000Y1778000D03*
D15*
X54610000Y29718000D03*
D16*
X54610000Y27178000D03*
X54610000Y24638000D03*
X54610000Y22098000D03*
X54610000Y19558000D03*
X54610000Y17018000D03*
X54610000Y14478000D03*
X54610000Y11938000D03*
X54610000Y9398000D03*
X54610000Y6858000D03*
X54610000Y4318000D03*
X54610000Y1778000D03*
D11*
X59030000Y33782000D03*
X65430000Y33782000D03*
D12*
X60330000Y35932000D03*
X64130000Y35932000D03*
D13*
X72644000Y61214000D03*
D14*
X72644000Y58674000D03*
X70104000Y61214000D03*
X70104000Y58674000D03*
X67564000Y61214000D03*
X67564000Y58674000D03*
X65024000Y61214000D03*
X65024000Y58674000D03*
X62484000Y61214000D03*
X62484000Y58674000D03*
D15*
X77470000Y61214000D03*
D16*
X77470000Y58674000D03*
X77470000Y56134000D03*
X77470000Y53594000D03*
X77470000Y51054000D03*
X77470000Y48514000D03*
X77470000Y45974000D03*
X77470000Y43434000D03*
X77470000Y40894000D03*
X77470000Y38354000D03*
X77470000Y35814000D03*
X77470000Y33274000D03*
D15*
X54610000Y61214000D03*
D16*
X54610000Y58674000D03*
X54610000Y56134000D03*
X54610000Y53594000D03*
X54610000Y51054000D03*
X54610000Y48514000D03*
X54610000Y45974000D03*
X54610000Y43434000D03*
X54610000Y40894000D03*
X54610000Y38354000D03*
X54610000Y35814000D03*
X54610000Y33274000D03*
D11*
X59030000Y65278000D03*
X65430000Y65278000D03*
D12*
X60330000Y67428000D03*
X64130000Y67428000D03*
D13*
X72644000Y92710000D03*
D14*
X72644000Y90170000D03*
X70104000Y92710000D03*
X70104000Y90170000D03*
X67564000Y92710000D03*
X67564000Y90170000D03*
X65024000Y92710000D03*
X65024000Y90170000D03*
X62484000Y92710000D03*
X62484000Y90170000D03*
D15*
X77470000Y92710000D03*
D16*
X77470000Y90170000D03*
X77470000Y87630000D03*
X77470000Y85090000D03*
X77470000Y82550000D03*
X77470000Y80010000D03*
X77470000Y77470000D03*
X77470000Y74930000D03*
X77470000Y72390000D03*
X77470000Y69850000D03*
X77470000Y67310000D03*
X77470000Y64770000D03*
D15*
X54610000Y92710000D03*
D16*
X54610000Y90170000D03*
X54610000Y87630000D03*
X54610000Y85090000D03*
X54610000Y82550000D03*
X54610000Y80010000D03*
X54610000Y77470000D03*
X54610000Y74930000D03*
X54610000Y72390000D03*
X54610000Y69850000D03*
X54610000Y67310000D03*
X54610000Y64770000D03*
D11*
X32614000Y2286000D03*
X39014000Y2286000D03*
D12*
X33914000Y4436000D03*
X37714000Y4436000D03*
D13*
X46228000Y29718000D03*
D14*
X46228000Y27178000D03*
X43688000Y29718000D03*
X43688000Y27178000D03*
X41148000Y29718000D03*
X41148000Y27178000D03*
X38608000Y29718000D03*
X38608000Y27178000D03*
X36068000Y29718000D03*
X36068000Y27178000D03*
D15*
X51054000Y29718000D03*
D16*
X51054000Y27178000D03*
X51054000Y24638000D03*
X51054000Y22098000D03*
X51054000Y19558000D03*
X51054000Y17018000D03*
X51054000Y14478000D03*
X51054000Y11938000D03*
X51054000Y9398000D03*
X51054000Y6858000D03*
X51054000Y4318000D03*
X51054000Y1778000D03*
D15*
X28194000Y29718000D03*
D16*
X28194000Y27178000D03*
X28194000Y24638000D03*
X28194000Y22098000D03*
X28194000Y19558000D03*
X28194000Y17018000D03*
X28194000Y14478000D03*
X28194000Y11938000D03*
X28194000Y9398000D03*
X28194000Y6858000D03*
X28194000Y4318000D03*
X28194000Y1778000D03*
D11*
X32614000Y33782000D03*
X39014000Y33782000D03*
D12*
X33914000Y35932000D03*
X37714000Y35932000D03*
D13*
X46228000Y61214000D03*
D14*
X46228000Y58674000D03*
X43688000Y61214000D03*
X43688000Y58674000D03*
X41148000Y61214000D03*
X41148000Y58674000D03*
X38608000Y61214000D03*
X38608000Y58674000D03*
X36068000Y61214000D03*
X36068000Y58674000D03*
D15*
X51054000Y61214000D03*
D16*
X51054000Y58674000D03*
X51054000Y56134000D03*
X51054000Y53594000D03*
X51054000Y51054000D03*
X51054000Y48514000D03*
X51054000Y45974000D03*
X51054000Y43434000D03*
X51054000Y40894000D03*
X51054000Y38354000D03*
X51054000Y35814000D03*
X51054000Y33274000D03*
D15*
X28194000Y61214000D03*
D16*
X28194000Y58674000D03*
X28194000Y56134000D03*
X28194000Y53594000D03*
X28194000Y51054000D03*
X28194000Y48514000D03*
X28194000Y45974000D03*
X28194000Y43434000D03*
X28194000Y40894000D03*
X28194000Y38354000D03*
X28194000Y35814000D03*
X28194000Y33274000D03*
D11*
X32614000Y65278000D03*
X39014000Y65278000D03*
D12*
X33914000Y67428000D03*
X37714000Y67428000D03*
D13*
X46228000Y92710000D03*
D14*
X46228000Y90170000D03*
X43688000Y92710000D03*
X43688000Y90170000D03*
X41148000Y92710000D03*
X41148000Y90170000D03*
X38608000Y92710000D03*
X38608000Y90170000D03*
X36068000Y92710000D03*
X36068000Y90170000D03*
D15*
X51054000Y92710000D03*
D16*
X51054000Y90170000D03*
X51054000Y87630000D03*
X51054000Y85090000D03*
X51054000Y82550000D03*
X51054000Y80010000D03*
X51054000Y77470000D03*
X51054000Y74930000D03*
X51054000Y72390000D03*
X51054000Y69850000D03*
X51054000Y67310000D03*
X51054000Y64770000D03*
D15*
X28194000Y92710000D03*
D16*
X28194000Y90170000D03*
X28194000Y87630000D03*
X28194000Y85090000D03*
X28194000Y82550000D03*
X28194000Y80010000D03*
X28194000Y77470000D03*
X28194000Y74930000D03*
X28194000Y72390000D03*
X28194000Y69850000D03*
X28194000Y67310000D03*
X28194000Y64770000D03*
D11*
X6198000Y2286000D03*
X12598000Y2286000D03*
D12*
X7498000Y4436000D03*
X11298000Y4436000D03*
D13*
X19812000Y29718000D03*
D14*
X19812000Y27178000D03*
X17272000Y29718000D03*
X17272000Y27178000D03*
X14732000Y29718000D03*
X14732000Y27178000D03*
X12192000Y29718000D03*
X12192000Y27178000D03*
X9652000Y29718000D03*
X9652000Y27178000D03*
D15*
X24638000Y29718000D03*
D16*
X24638000Y27178000D03*
X24638000Y24638000D03*
X24638000Y22098000D03*
X24638000Y19558000D03*
X24638000Y17018000D03*
X24638000Y14478000D03*
X24638000Y11938000D03*
X24638000Y9398000D03*
X24638000Y6858000D03*
X24638000Y4318000D03*
X24638000Y1778000D03*
D15*
X1778000Y29718000D03*
D16*
X1778000Y27178000D03*
X1778000Y24638000D03*
X1778000Y22098000D03*
X1778000Y19558000D03*
X1778000Y17018000D03*
X1778000Y14478000D03*
X1778000Y11938000D03*
X1778000Y9398000D03*
X1778000Y6858000D03*
X1778000Y4318000D03*
X1778000Y1778000D03*
D11*
X6198000Y33782000D03*
X12598000Y33782000D03*
D12*
X7498000Y35932000D03*
X11298000Y35932000D03*
D13*
X19812000Y61214000D03*
D14*
X19812000Y58674000D03*
X17272000Y61214000D03*
X17272000Y58674000D03*
X14732000Y61214000D03*
X14732000Y58674000D03*
X12192000Y61214000D03*
X12192000Y58674000D03*
X9652000Y61214000D03*
X9652000Y58674000D03*
D15*
X24638000Y61214000D03*
D16*
X24638000Y58674000D03*
X24638000Y56134000D03*
X24638000Y53594000D03*
X24638000Y51054000D03*
X24638000Y48514000D03*
X24638000Y45974000D03*
X24638000Y43434000D03*
X24638000Y40894000D03*
X24638000Y38354000D03*
X24638000Y35814000D03*
X24638000Y33274000D03*
D15*
X1778000Y61214000D03*
D16*
X1778000Y58674000D03*
X1778000Y56134000D03*
X1778000Y53594000D03*
X1778000Y51054000D03*
X1778000Y48514000D03*
X1778000Y45974000D03*
X1778000Y43434000D03*
X1778000Y40894000D03*
X1778000Y38354000D03*
X1778000Y35814000D03*
X1778000Y33274000D03*
D15*
X1778000Y92710000D03*
D16*
X1778000Y90170000D03*
X1778000Y87630000D03*
X1778000Y85090000D03*
X1778000Y82550000D03*
X1778000Y80010000D03*
X1778000Y77470000D03*
X1778000Y74930000D03*
X1778000Y72390000D03*
X1778000Y69850000D03*
X1778000Y67310000D03*
X1778000Y64770000D03*
D15*
X24638000Y92710000D03*
D16*
X24638000Y90170000D03*
X24638000Y87630000D03*
X24638000Y85090000D03*
X24638000Y82550000D03*
X24638000Y80010000D03*
X24638000Y77470000D03*
X24638000Y74930000D03*
X24638000Y72390000D03*
X24638000Y69850000D03*
X24638000Y67310000D03*
X24638000Y64770000D03*
D13*
X19812000Y92710000D03*
D14*
X19812000Y90170000D03*
X17272000Y92710000D03*
X17272000Y90170000D03*
X14732000Y92710000D03*
X14732000Y90170000D03*
X12192000Y92710000D03*
X12192000Y90170000D03*
X9652000Y92710000D03*
X9652000Y90170000D03*
D11*
X6198000Y65278000D03*
X12598000Y65278000D03*
D12*
X7498000Y67428000D03*
X11298000Y67428000D03*
M02*
