G04 #@! TF.FileFunction,Legend,Bot*
%FSLAX46Y46*%
G04 Gerber Fmt 4.6, Leading zero omitted, Abs format (unit mm)*
G04 Created by KiCad (PCBNEW 4.0.1-2.201512121406+6195~38~ubuntu15.10.1-stable) date Monday, December 14, 2015 PM10:15:37 HKT*
%MOMM*%
G01*
G04 APERTURE LIST*
%ADD10C,0.100000*%
%ADD11C,0.150000*%
%ADD12C,0.250000*%
%ADD13C,0.200000*%
G04 APERTURE END LIST*
D10*
X63223667Y23878333D02*
X62790334Y23878333D01*
X63023667Y23611667D01*
X62923667Y23611667D01*
X62857000Y23578333D01*
X62823667Y23545000D01*
X62790334Y23478333D01*
X62790334Y23311667D01*
X62823667Y23245000D01*
X62857000Y23211667D01*
X62923667Y23178333D01*
X63123667Y23178333D01*
X63190334Y23211667D01*
X63223667Y23245000D01*
X62590333Y23878333D02*
X62357000Y23178333D01*
X62123667Y23878333D01*
X61957000Y23878333D02*
X61523667Y23878333D01*
X61757000Y23611667D01*
X61657000Y23611667D01*
X61590333Y23578333D01*
X61557000Y23545000D01*
X61523667Y23478333D01*
X61523667Y23311667D01*
X61557000Y23245000D01*
X61590333Y23211667D01*
X61657000Y23178333D01*
X61857000Y23178333D01*
X61923667Y23211667D01*
X61957000Y23245000D01*
X66065333Y23845000D02*
X66131999Y23878333D01*
X66231999Y23878333D01*
X66331999Y23845000D01*
X66398666Y23778333D01*
X66431999Y23711667D01*
X66465333Y23578333D01*
X66465333Y23478333D01*
X66431999Y23345000D01*
X66398666Y23278333D01*
X66331999Y23211667D01*
X66231999Y23178333D01*
X66165333Y23178333D01*
X66065333Y23211667D01*
X66031999Y23245000D01*
X66031999Y23478333D01*
X66165333Y23478333D01*
X65731999Y23178333D02*
X65731999Y23878333D01*
X65331999Y23178333D01*
X65331999Y23878333D01*
X64998666Y23178333D02*
X64998666Y23878333D01*
X64832000Y23878333D01*
X64732000Y23845000D01*
X64665333Y23778333D01*
X64632000Y23711667D01*
X64598666Y23578333D01*
X64598666Y23478333D01*
X64632000Y23345000D01*
X64665333Y23278333D01*
X64732000Y23211667D01*
X64832000Y23178333D01*
X64998666Y23178333D01*
X70190333Y23211667D02*
X70090333Y23178333D01*
X69923666Y23178333D01*
X69856999Y23211667D01*
X69823666Y23245000D01*
X69790333Y23311667D01*
X69790333Y23378333D01*
X69823666Y23445000D01*
X69856999Y23478333D01*
X69923666Y23511667D01*
X70056999Y23545000D01*
X70123666Y23578333D01*
X70156999Y23611667D01*
X70190333Y23678333D01*
X70190333Y23745000D01*
X70156999Y23811667D01*
X70123666Y23845000D01*
X70056999Y23878333D01*
X69890333Y23878333D01*
X69790333Y23845000D01*
X69556999Y23878333D02*
X69390332Y23178333D01*
X69256999Y23678333D01*
X69123666Y23178333D01*
X68956999Y23878333D01*
X68690332Y23178333D02*
X68690332Y23878333D01*
X68523666Y23878333D01*
X68423666Y23845000D01*
X68356999Y23778333D01*
X68323666Y23711667D01*
X68290332Y23578333D01*
X68290332Y23478333D01*
X68323666Y23345000D01*
X68356999Y23278333D01*
X68423666Y23211667D01*
X68523666Y23178333D01*
X68690332Y23178333D01*
X67990332Y23178333D02*
X67990332Y23878333D01*
X67523666Y23878333D02*
X67390333Y23878333D01*
X67323666Y23845000D01*
X67256999Y23778333D01*
X67223666Y23645000D01*
X67223666Y23411667D01*
X67256999Y23278333D01*
X67323666Y23211667D01*
X67390333Y23178333D01*
X67523666Y23178333D01*
X67590333Y23211667D01*
X67656999Y23278333D01*
X67690333Y23411667D01*
X67690333Y23645000D01*
X67656999Y23778333D01*
X67590333Y23845000D01*
X67523666Y23878333D01*
X74100334Y23211667D02*
X74000334Y23178333D01*
X73833667Y23178333D01*
X73767000Y23211667D01*
X73733667Y23245000D01*
X73700334Y23311667D01*
X73700334Y23378333D01*
X73733667Y23445000D01*
X73767000Y23478333D01*
X73833667Y23511667D01*
X73967000Y23545000D01*
X74033667Y23578333D01*
X74067000Y23611667D01*
X74100334Y23678333D01*
X74100334Y23745000D01*
X74067000Y23811667D01*
X74033667Y23845000D01*
X73967000Y23878333D01*
X73800334Y23878333D01*
X73700334Y23845000D01*
X73467000Y23878333D02*
X73300333Y23178333D01*
X73167000Y23678333D01*
X73033667Y23178333D01*
X72867000Y23878333D01*
X72200333Y23245000D02*
X72233667Y23211667D01*
X72333667Y23178333D01*
X72400333Y23178333D01*
X72500333Y23211667D01*
X72567000Y23278333D01*
X72600333Y23345000D01*
X72633667Y23478333D01*
X72633667Y23578333D01*
X72600333Y23711667D01*
X72567000Y23778333D01*
X72500333Y23845000D01*
X72400333Y23878333D01*
X72333667Y23878333D01*
X72233667Y23845000D01*
X72200333Y23811667D01*
X71567000Y23178333D02*
X71900333Y23178333D01*
X71900333Y23878333D01*
X71333666Y23178333D02*
X71333666Y23878333D01*
X70933666Y23178333D02*
X71233666Y23578333D01*
X70933666Y23878333D02*
X71333666Y23478333D01*
X73050333Y22575000D02*
X73116999Y22608333D01*
X73216999Y22608333D01*
X73316999Y22575000D01*
X73383666Y22508333D01*
X73416999Y22441667D01*
X73450333Y22308333D01*
X73450333Y22208333D01*
X73416999Y22075000D01*
X73383666Y22008333D01*
X73316999Y21941667D01*
X73216999Y21908333D01*
X73150333Y21908333D01*
X73050333Y21941667D01*
X73016999Y21975000D01*
X73016999Y22208333D01*
X73150333Y22208333D01*
X72716999Y21908333D02*
X72716999Y22608333D01*
X72316999Y21908333D01*
X72316999Y22608333D01*
X71983666Y21908333D02*
X71983666Y22608333D01*
X71817000Y22608333D01*
X71717000Y22575000D01*
X71650333Y22508333D01*
X71617000Y22441667D01*
X71583666Y22308333D01*
X71583666Y22208333D01*
X71617000Y22075000D01*
X71650333Y22008333D01*
X71717000Y21941667D01*
X71817000Y21908333D01*
X71983666Y21908333D01*
X69113333Y22608333D02*
X68713333Y22608333D01*
X68913333Y21908333D02*
X68913333Y22608333D01*
X68546667Y22608333D02*
X68080000Y21908333D01*
X68080000Y22608333D02*
X68546667Y21908333D01*
X65648666Y21908333D02*
X65882000Y22241667D01*
X66048666Y21908333D02*
X66048666Y22608333D01*
X65782000Y22608333D01*
X65715333Y22575000D01*
X65682000Y22541667D01*
X65648666Y22475000D01*
X65648666Y22375000D01*
X65682000Y22308333D01*
X65715333Y22275000D01*
X65782000Y22241667D01*
X66048666Y22241667D01*
X65415333Y22608333D02*
X64948666Y21908333D01*
X64948666Y22608333D02*
X65415333Y21908333D01*
X63223667Y22608333D02*
X62790334Y22608333D01*
X63023667Y22341667D01*
X62923667Y22341667D01*
X62857000Y22308333D01*
X62823667Y22275000D01*
X62790334Y22208333D01*
X62790334Y22041667D01*
X62823667Y21975000D01*
X62857000Y21941667D01*
X62923667Y21908333D01*
X63123667Y21908333D01*
X63190334Y21941667D01*
X63223667Y21975000D01*
X62590333Y22608333D02*
X62357000Y21908333D01*
X62123667Y22608333D01*
X61957000Y22608333D02*
X61523667Y22608333D01*
X61757000Y22341667D01*
X61657000Y22341667D01*
X61590333Y22308333D01*
X61557000Y22275000D01*
X61523667Y22208333D01*
X61523667Y22041667D01*
X61557000Y21975000D01*
X61590333Y21941667D01*
X61657000Y21908333D01*
X61857000Y21908333D01*
X61923667Y21941667D01*
X61957000Y21975000D01*
D11*
X57912000Y21590000D02*
X74422000Y21590000D01*
X74422000Y21590000D02*
X74422000Y24130000D01*
X74422000Y24130000D02*
X57912000Y24130000D01*
X57912000Y24130000D02*
X57912000Y21590000D01*
X57912000Y21590000D02*
X57912000Y23495000D01*
X57912000Y22860000D02*
X74422000Y22860000D01*
X70612000Y21717000D02*
X70612000Y24003000D01*
X66802000Y24003000D02*
X66802000Y21717000D01*
X64008000Y24003000D02*
X64008000Y21717000D01*
X60706000Y24003000D02*
X60706000Y21717000D01*
D10*
X59732000Y22275000D02*
X59632000Y22241667D01*
X59598667Y22208333D01*
X59565333Y22141667D01*
X59565333Y22041667D01*
X59598667Y21975000D01*
X59632000Y21941667D01*
X59698667Y21908333D01*
X59965333Y21908333D01*
X59965333Y22608333D01*
X59732000Y22608333D01*
X59665333Y22575000D01*
X59632000Y22541667D01*
X59598667Y22475000D01*
X59598667Y22408333D01*
X59632000Y22341667D01*
X59665333Y22308333D01*
X59732000Y22275000D01*
X59965333Y22275000D01*
X59365333Y22608333D02*
X58965333Y22608333D01*
X59165333Y21908333D02*
X59165333Y22608333D01*
X58598667Y22608333D02*
X58532000Y22608333D01*
X58465334Y22575000D01*
X58432000Y22541667D01*
X58398667Y22475000D01*
X58365334Y22341667D01*
X58365334Y22175000D01*
X58398667Y22041667D01*
X58432000Y21975000D01*
X58465334Y21941667D01*
X58532000Y21908333D01*
X58598667Y21908333D01*
X58665334Y21941667D01*
X58698667Y21975000D01*
X58732000Y22041667D01*
X58765334Y22175000D01*
X58765334Y22341667D01*
X58732000Y22475000D01*
X58698667Y22541667D01*
X58665334Y22575000D01*
X58598667Y22608333D01*
X60048667Y23878333D02*
X59615334Y23878333D01*
X59848667Y23611667D01*
X59748667Y23611667D01*
X59682000Y23578333D01*
X59648667Y23545000D01*
X59615334Y23478333D01*
X59615334Y23311667D01*
X59648667Y23245000D01*
X59682000Y23211667D01*
X59748667Y23178333D01*
X59948667Y23178333D01*
X60015334Y23211667D01*
X60048667Y23245000D01*
X59415333Y23878333D02*
X59182000Y23178333D01*
X58948667Y23878333D01*
X58782000Y23878333D02*
X58348667Y23878333D01*
X58582000Y23611667D01*
X58482000Y23611667D01*
X58415333Y23578333D01*
X58382000Y23545000D01*
X58348667Y23478333D01*
X58348667Y23311667D01*
X58382000Y23245000D01*
X58415333Y23211667D01*
X58482000Y23178333D01*
X58682000Y23178333D01*
X58748667Y23211667D01*
X58782000Y23245000D01*
D12*
X70595619Y12421238D02*
X70452762Y12373619D01*
X70214666Y12373619D01*
X70119428Y12421238D01*
X70071809Y12468857D01*
X70024190Y12564095D01*
X70024190Y12659333D01*
X70071809Y12754571D01*
X70119428Y12802190D01*
X70214666Y12849810D01*
X70405143Y12897429D01*
X70500381Y12945048D01*
X70548000Y12992667D01*
X70595619Y13087905D01*
X70595619Y13183143D01*
X70548000Y13278381D01*
X70500381Y13326000D01*
X70405143Y13373619D01*
X70167047Y13373619D01*
X70024190Y13326000D01*
X69738476Y13373619D02*
X69167047Y13373619D01*
X69452762Y12373619D02*
X69452762Y13373619D01*
X68833714Y12373619D02*
X68833714Y13373619D01*
X68500380Y12659333D01*
X68167047Y13373619D01*
X68167047Y12373619D01*
X67786095Y13373619D02*
X67167047Y13373619D01*
X67500381Y12992667D01*
X67357523Y12992667D01*
X67262285Y12945048D01*
X67214666Y12897429D01*
X67167047Y12802190D01*
X67167047Y12564095D01*
X67214666Y12468857D01*
X67262285Y12421238D01*
X67357523Y12373619D01*
X67643238Y12373619D01*
X67738476Y12421238D01*
X67786095Y12468857D01*
X66786095Y13278381D02*
X66738476Y13326000D01*
X66643238Y13373619D01*
X66405142Y13373619D01*
X66309904Y13326000D01*
X66262285Y13278381D01*
X66214666Y13183143D01*
X66214666Y13087905D01*
X66262285Y12945048D01*
X66833714Y12373619D01*
X66214666Y12373619D01*
X65452761Y12897429D02*
X65786095Y12897429D01*
X65786095Y12373619D02*
X65786095Y13373619D01*
X65309904Y13373619D01*
X64738476Y13373619D02*
X64643237Y13373619D01*
X64547999Y13326000D01*
X64500380Y13278381D01*
X64452761Y13183143D01*
X64405142Y12992667D01*
X64405142Y12754571D01*
X64452761Y12564095D01*
X64500380Y12468857D01*
X64547999Y12421238D01*
X64643237Y12373619D01*
X64738476Y12373619D01*
X64833714Y12421238D01*
X64881333Y12468857D01*
X64928952Y12564095D01*
X64976571Y12754571D01*
X64976571Y12992667D01*
X64928952Y13183143D01*
X64881333Y13278381D01*
X64833714Y13326000D01*
X64738476Y13373619D01*
X64071809Y13373619D02*
X63452761Y13373619D01*
X63786095Y12992667D01*
X63643237Y12992667D01*
X63547999Y12945048D01*
X63500380Y12897429D01*
X63452761Y12802190D01*
X63452761Y12564095D01*
X63500380Y12468857D01*
X63547999Y12421238D01*
X63643237Y12373619D01*
X63928952Y12373619D01*
X64024190Y12421238D01*
X64071809Y12468857D01*
X62833714Y13373619D02*
X62738475Y13373619D01*
X62643237Y13326000D01*
X62595618Y13278381D01*
X62547999Y13183143D01*
X62500380Y12992667D01*
X62500380Y12754571D01*
X62547999Y12564095D01*
X62595618Y12468857D01*
X62643237Y12421238D01*
X62738475Y12373619D01*
X62833714Y12373619D01*
X62928952Y12421238D01*
X62976571Y12468857D01*
X63024190Y12564095D01*
X63071809Y12754571D01*
X63071809Y12992667D01*
X63024190Y13183143D01*
X62976571Y13278381D01*
X62928952Y13326000D01*
X62833714Y13373619D01*
X69976572Y10818857D02*
X70024191Y10771238D01*
X70167048Y10723619D01*
X70262286Y10723619D01*
X70405144Y10771238D01*
X70500382Y10866476D01*
X70548001Y10961714D01*
X70595620Y11152190D01*
X70595620Y11295048D01*
X70548001Y11485524D01*
X70500382Y11580762D01*
X70405144Y11676000D01*
X70262286Y11723619D01*
X70167048Y11723619D01*
X70024191Y11676000D01*
X69976572Y11628381D01*
X69405144Y10723619D02*
X69500382Y10771238D01*
X69548001Y10818857D01*
X69595620Y10914095D01*
X69595620Y11199810D01*
X69548001Y11295048D01*
X69500382Y11342667D01*
X69405144Y11390286D01*
X69262286Y11390286D01*
X69167048Y11342667D01*
X69119429Y11295048D01*
X69071810Y11199810D01*
X69071810Y10914095D01*
X69119429Y10818857D01*
X69167048Y10771238D01*
X69262286Y10723619D01*
X69405144Y10723619D01*
X68643239Y10723619D02*
X68643239Y11390286D01*
X68643239Y11199810D02*
X68595620Y11295048D01*
X68548001Y11342667D01*
X68452763Y11390286D01*
X68357524Y11390286D01*
X67643238Y10771238D02*
X67738476Y10723619D01*
X67928953Y10723619D01*
X68024191Y10771238D01*
X68071810Y10866476D01*
X68071810Y11247429D01*
X68024191Y11342667D01*
X67928953Y11390286D01*
X67738476Y11390286D01*
X67643238Y11342667D01*
X67595619Y11247429D01*
X67595619Y11152190D01*
X68071810Y11056952D01*
X66071809Y11247429D02*
X65928952Y11199810D01*
X65881333Y11152190D01*
X65833714Y11056952D01*
X65833714Y10914095D01*
X65881333Y10818857D01*
X65928952Y10771238D01*
X66024190Y10723619D01*
X66405143Y10723619D01*
X66405143Y11723619D01*
X66071809Y11723619D01*
X65976571Y11676000D01*
X65928952Y11628381D01*
X65881333Y11533143D01*
X65881333Y11437905D01*
X65928952Y11342667D01*
X65976571Y11295048D01*
X66071809Y11247429D01*
X66405143Y11247429D01*
X65262286Y10723619D02*
X65357524Y10771238D01*
X65405143Y10818857D01*
X65452762Y10914095D01*
X65452762Y11199810D01*
X65405143Y11295048D01*
X65357524Y11342667D01*
X65262286Y11390286D01*
X65119428Y11390286D01*
X65024190Y11342667D01*
X64976571Y11295048D01*
X64928952Y11199810D01*
X64928952Y10914095D01*
X64976571Y10818857D01*
X65024190Y10771238D01*
X65119428Y10723619D01*
X65262286Y10723619D01*
X64071809Y10723619D02*
X64071809Y11247429D01*
X64119428Y11342667D01*
X64214666Y11390286D01*
X64405143Y11390286D01*
X64500381Y11342667D01*
X64071809Y10771238D02*
X64167047Y10723619D01*
X64405143Y10723619D01*
X64500381Y10771238D01*
X64548000Y10866476D01*
X64548000Y10961714D01*
X64500381Y11056952D01*
X64405143Y11104571D01*
X64167047Y11104571D01*
X64071809Y11152190D01*
X63595619Y10723619D02*
X63595619Y11390286D01*
X63595619Y11199810D02*
X63548000Y11295048D01*
X63500381Y11342667D01*
X63405143Y11390286D01*
X63309904Y11390286D01*
X62547999Y10723619D02*
X62547999Y11723619D01*
X62547999Y10771238D02*
X62643237Y10723619D01*
X62833714Y10723619D01*
X62928952Y10771238D01*
X62976571Y10818857D01*
X63024190Y10914095D01*
X63024190Y11199810D01*
X62976571Y11295048D01*
X62928952Y11342667D01*
X62833714Y11390286D01*
X62643237Y11390286D01*
X62547999Y11342667D01*
X74667048Y9073619D02*
X74667048Y10073619D01*
X74428953Y10073619D01*
X74286095Y10026000D01*
X74190857Y9930762D01*
X74143238Y9835524D01*
X74095619Y9645048D01*
X74095619Y9502190D01*
X74143238Y9311714D01*
X74190857Y9216476D01*
X74286095Y9121238D01*
X74428953Y9073619D01*
X74667048Y9073619D01*
X73286095Y9121238D02*
X73381333Y9073619D01*
X73571810Y9073619D01*
X73667048Y9121238D01*
X73714667Y9216476D01*
X73714667Y9597429D01*
X73667048Y9692667D01*
X73571810Y9740286D01*
X73381333Y9740286D01*
X73286095Y9692667D01*
X73238476Y9597429D01*
X73238476Y9502190D01*
X73714667Y9406952D01*
X72857524Y9121238D02*
X72762286Y9073619D01*
X72571810Y9073619D01*
X72476571Y9121238D01*
X72428952Y9216476D01*
X72428952Y9264095D01*
X72476571Y9359333D01*
X72571810Y9406952D01*
X72714667Y9406952D01*
X72809905Y9454571D01*
X72857524Y9549810D01*
X72857524Y9597429D01*
X72809905Y9692667D01*
X72714667Y9740286D01*
X72571810Y9740286D01*
X72476571Y9692667D01*
X72000381Y9073619D02*
X72000381Y9740286D01*
X72000381Y10073619D02*
X72048000Y10026000D01*
X72000381Y9978381D01*
X71952762Y10026000D01*
X72000381Y10073619D01*
X72000381Y9978381D01*
X71095619Y9740286D02*
X71095619Y8930762D01*
X71143238Y8835524D01*
X71190857Y8787905D01*
X71286096Y8740286D01*
X71428953Y8740286D01*
X71524191Y8787905D01*
X71095619Y9121238D02*
X71190857Y9073619D01*
X71381334Y9073619D01*
X71476572Y9121238D01*
X71524191Y9168857D01*
X71571810Y9264095D01*
X71571810Y9549810D01*
X71524191Y9645048D01*
X71476572Y9692667D01*
X71381334Y9740286D01*
X71190857Y9740286D01*
X71095619Y9692667D01*
X70619429Y9740286D02*
X70619429Y9073619D01*
X70619429Y9645048D02*
X70571810Y9692667D01*
X70476572Y9740286D01*
X70333714Y9740286D01*
X70238476Y9692667D01*
X70190857Y9597429D01*
X70190857Y9073619D01*
X69333714Y9121238D02*
X69428952Y9073619D01*
X69619429Y9073619D01*
X69714667Y9121238D01*
X69762286Y9216476D01*
X69762286Y9597429D01*
X69714667Y9692667D01*
X69619429Y9740286D01*
X69428952Y9740286D01*
X69333714Y9692667D01*
X69286095Y9597429D01*
X69286095Y9502190D01*
X69762286Y9406952D01*
X68428952Y9073619D02*
X68428952Y10073619D01*
X68428952Y9121238D02*
X68524190Y9073619D01*
X68714667Y9073619D01*
X68809905Y9121238D01*
X68857524Y9168857D01*
X68905143Y9264095D01*
X68905143Y9549810D01*
X68857524Y9645048D01*
X68809905Y9692667D01*
X68714667Y9740286D01*
X68524190Y9740286D01*
X68428952Y9692667D01*
X67190857Y9073619D02*
X67190857Y10073619D01*
X67190857Y9692667D02*
X67095619Y9740286D01*
X66905142Y9740286D01*
X66809904Y9692667D01*
X66762285Y9645048D01*
X66714666Y9549810D01*
X66714666Y9264095D01*
X66762285Y9168857D01*
X66809904Y9121238D01*
X66905142Y9073619D01*
X67095619Y9073619D01*
X67190857Y9121238D01*
X66381333Y9740286D02*
X66143238Y9073619D01*
X65905142Y9740286D02*
X66143238Y9073619D01*
X66238476Y8835524D01*
X66286095Y8787905D01*
X66381333Y8740286D01*
X64762285Y9073619D02*
X64762285Y10073619D01*
X64762285Y9597429D02*
X64190856Y9597429D01*
X64190856Y9073619D02*
X64190856Y10073619D01*
X63809904Y10073619D02*
X63571809Y9073619D01*
X63381332Y9787905D01*
X63190856Y9073619D01*
X62952761Y10073619D01*
X61905142Y10073619D02*
X61667047Y9073619D01*
X61476570Y9787905D01*
X61286094Y9073619D01*
X61047999Y10073619D01*
X60524190Y9073619D02*
X60619428Y9121238D01*
X60667047Y9168857D01*
X60714666Y9264095D01*
X60714666Y9549810D01*
X60667047Y9645048D01*
X60619428Y9692667D01*
X60524190Y9740286D01*
X60381332Y9740286D01*
X60286094Y9692667D01*
X60238475Y9645048D01*
X60190856Y9549810D01*
X60190856Y9264095D01*
X60238475Y9168857D01*
X60286094Y9121238D01*
X60381332Y9073619D01*
X60524190Y9073619D01*
X59762285Y9740286D02*
X59762285Y9073619D01*
X59762285Y9645048D02*
X59714666Y9692667D01*
X59619428Y9740286D01*
X59476570Y9740286D01*
X59381332Y9692667D01*
X59333713Y9597429D01*
X59333713Y9073619D01*
X58428951Y9740286D02*
X58428951Y8930762D01*
X58476570Y8835524D01*
X58524189Y8787905D01*
X58619428Y8740286D01*
X58762285Y8740286D01*
X58857523Y8787905D01*
X58428951Y9121238D02*
X58524189Y9073619D01*
X58714666Y9073619D01*
X58809904Y9121238D01*
X58857523Y9168857D01*
X58905142Y9264095D01*
X58905142Y9549810D01*
X58857523Y9645048D01*
X58809904Y9692667D01*
X58714666Y9740286D01*
X58524189Y9740286D01*
X58428951Y9692667D01*
D13*
X72777143Y3854095D02*
X73043810Y4235048D01*
X73234286Y3854095D02*
X73234286Y4654095D01*
X72929524Y4654095D01*
X72853333Y4616000D01*
X72815238Y4577905D01*
X72777143Y4501714D01*
X72777143Y4387429D01*
X72815238Y4311238D01*
X72853333Y4273143D01*
X72929524Y4235048D01*
X73234286Y4235048D01*
X72129524Y3892190D02*
X72205714Y3854095D01*
X72358095Y3854095D01*
X72434286Y3892190D01*
X72472381Y3968381D01*
X72472381Y4273143D01*
X72434286Y4349333D01*
X72358095Y4387429D01*
X72205714Y4387429D01*
X72129524Y4349333D01*
X72091429Y4273143D01*
X72091429Y4196952D01*
X72472381Y4120762D01*
X71824762Y4387429D02*
X71634286Y3854095D01*
X71443810Y4387429D01*
X70110476Y3854095D02*
X70567619Y3854095D01*
X70339048Y3854095D02*
X70339048Y4654095D01*
X70415238Y4539810D01*
X70491429Y4463619D01*
X70567619Y4425524D01*
X69767619Y3930286D02*
X69729524Y3892190D01*
X69767619Y3854095D01*
X69805714Y3892190D01*
X69767619Y3930286D01*
X69767619Y3854095D01*
X69234286Y4654095D02*
X69158095Y4654095D01*
X69081905Y4616000D01*
X69043810Y4577905D01*
X69005714Y4501714D01*
X68967619Y4349333D01*
X68967619Y4158857D01*
X69005714Y4006476D01*
X69043810Y3930286D01*
X69081905Y3892190D01*
X69158095Y3854095D01*
X69234286Y3854095D01*
X69310476Y3892190D01*
X69348572Y3930286D01*
X69386667Y4006476D01*
X69424762Y4158857D01*
X69424762Y4349333D01*
X69386667Y4501714D01*
X69348572Y4577905D01*
X69310476Y4616000D01*
X69234286Y4654095D01*
X74034286Y2534095D02*
X74034286Y3334095D01*
X73843810Y3334095D01*
X73729524Y3296000D01*
X73653333Y3219810D01*
X73615238Y3143619D01*
X73577143Y2991238D01*
X73577143Y2876952D01*
X73615238Y2724571D01*
X73653333Y2648381D01*
X73729524Y2572190D01*
X73843810Y2534095D01*
X74034286Y2534095D01*
X72929524Y2572190D02*
X73005714Y2534095D01*
X73158095Y2534095D01*
X73234286Y2572190D01*
X73272381Y2648381D01*
X73272381Y2953143D01*
X73234286Y3029333D01*
X73158095Y3067429D01*
X73005714Y3067429D01*
X72929524Y3029333D01*
X72891429Y2953143D01*
X72891429Y2876952D01*
X73272381Y2800762D01*
X72205715Y2572190D02*
X72281905Y2534095D01*
X72434286Y2534095D01*
X72510477Y2572190D01*
X72548572Y2610286D01*
X72586667Y2686476D01*
X72586667Y2915048D01*
X72548572Y2991238D01*
X72510477Y3029333D01*
X72434286Y3067429D01*
X72281905Y3067429D01*
X72205715Y3029333D01*
X71862858Y2838857D02*
X71253334Y2838857D01*
X70910477Y3257905D02*
X70872382Y3296000D01*
X70796191Y3334095D01*
X70605715Y3334095D01*
X70529525Y3296000D01*
X70491429Y3257905D01*
X70453334Y3181714D01*
X70453334Y3105524D01*
X70491429Y2991238D01*
X70948572Y2534095D01*
X70453334Y2534095D01*
X69958096Y3334095D02*
X69881905Y3334095D01*
X69805715Y3296000D01*
X69767620Y3257905D01*
X69729524Y3181714D01*
X69691429Y3029333D01*
X69691429Y2838857D01*
X69729524Y2686476D01*
X69767620Y2610286D01*
X69805715Y2572190D01*
X69881905Y2534095D01*
X69958096Y2534095D01*
X70034286Y2572190D01*
X70072382Y2610286D01*
X70110477Y2686476D01*
X70148572Y2838857D01*
X70148572Y3029333D01*
X70110477Y3181714D01*
X70072382Y3257905D01*
X70034286Y3296000D01*
X69958096Y3334095D01*
X68929524Y2534095D02*
X69386667Y2534095D01*
X69158096Y2534095D02*
X69158096Y3334095D01*
X69234286Y3219810D01*
X69310477Y3143619D01*
X69386667Y3105524D01*
X68205714Y3334095D02*
X68586667Y3334095D01*
X68624762Y2953143D01*
X68586667Y2991238D01*
X68510476Y3029333D01*
X68320000Y3029333D01*
X68243810Y2991238D01*
X68205714Y2953143D01*
X68167619Y2876952D01*
X68167619Y2686476D01*
X68205714Y2610286D01*
X68243810Y2572190D01*
X68320000Y2534095D01*
X68510476Y2534095D01*
X68586667Y2572190D01*
X68624762Y2610286D01*
D10*
X63223667Y55374333D02*
X62790334Y55374333D01*
X63023667Y55107667D01*
X62923667Y55107667D01*
X62857000Y55074333D01*
X62823667Y55041000D01*
X62790334Y54974333D01*
X62790334Y54807667D01*
X62823667Y54741000D01*
X62857000Y54707667D01*
X62923667Y54674333D01*
X63123667Y54674333D01*
X63190334Y54707667D01*
X63223667Y54741000D01*
X62590333Y55374333D02*
X62357000Y54674333D01*
X62123667Y55374333D01*
X61957000Y55374333D02*
X61523667Y55374333D01*
X61757000Y55107667D01*
X61657000Y55107667D01*
X61590333Y55074333D01*
X61557000Y55041000D01*
X61523667Y54974333D01*
X61523667Y54807667D01*
X61557000Y54741000D01*
X61590333Y54707667D01*
X61657000Y54674333D01*
X61857000Y54674333D01*
X61923667Y54707667D01*
X61957000Y54741000D01*
X66065333Y55341000D02*
X66131999Y55374333D01*
X66231999Y55374333D01*
X66331999Y55341000D01*
X66398666Y55274333D01*
X66431999Y55207667D01*
X66465333Y55074333D01*
X66465333Y54974333D01*
X66431999Y54841000D01*
X66398666Y54774333D01*
X66331999Y54707667D01*
X66231999Y54674333D01*
X66165333Y54674333D01*
X66065333Y54707667D01*
X66031999Y54741000D01*
X66031999Y54974333D01*
X66165333Y54974333D01*
X65731999Y54674333D02*
X65731999Y55374333D01*
X65331999Y54674333D01*
X65331999Y55374333D01*
X64998666Y54674333D02*
X64998666Y55374333D01*
X64832000Y55374333D01*
X64732000Y55341000D01*
X64665333Y55274333D01*
X64632000Y55207667D01*
X64598666Y55074333D01*
X64598666Y54974333D01*
X64632000Y54841000D01*
X64665333Y54774333D01*
X64732000Y54707667D01*
X64832000Y54674333D01*
X64998666Y54674333D01*
X70190333Y54707667D02*
X70090333Y54674333D01*
X69923666Y54674333D01*
X69856999Y54707667D01*
X69823666Y54741000D01*
X69790333Y54807667D01*
X69790333Y54874333D01*
X69823666Y54941000D01*
X69856999Y54974333D01*
X69923666Y55007667D01*
X70056999Y55041000D01*
X70123666Y55074333D01*
X70156999Y55107667D01*
X70190333Y55174333D01*
X70190333Y55241000D01*
X70156999Y55307667D01*
X70123666Y55341000D01*
X70056999Y55374333D01*
X69890333Y55374333D01*
X69790333Y55341000D01*
X69556999Y55374333D02*
X69390332Y54674333D01*
X69256999Y55174333D01*
X69123666Y54674333D01*
X68956999Y55374333D01*
X68690332Y54674333D02*
X68690332Y55374333D01*
X68523666Y55374333D01*
X68423666Y55341000D01*
X68356999Y55274333D01*
X68323666Y55207667D01*
X68290332Y55074333D01*
X68290332Y54974333D01*
X68323666Y54841000D01*
X68356999Y54774333D01*
X68423666Y54707667D01*
X68523666Y54674333D01*
X68690332Y54674333D01*
X67990332Y54674333D02*
X67990332Y55374333D01*
X67523666Y55374333D02*
X67390333Y55374333D01*
X67323666Y55341000D01*
X67256999Y55274333D01*
X67223666Y55141000D01*
X67223666Y54907667D01*
X67256999Y54774333D01*
X67323666Y54707667D01*
X67390333Y54674333D01*
X67523666Y54674333D01*
X67590333Y54707667D01*
X67656999Y54774333D01*
X67690333Y54907667D01*
X67690333Y55141000D01*
X67656999Y55274333D01*
X67590333Y55341000D01*
X67523666Y55374333D01*
X74100334Y54707667D02*
X74000334Y54674333D01*
X73833667Y54674333D01*
X73767000Y54707667D01*
X73733667Y54741000D01*
X73700334Y54807667D01*
X73700334Y54874333D01*
X73733667Y54941000D01*
X73767000Y54974333D01*
X73833667Y55007667D01*
X73967000Y55041000D01*
X74033667Y55074333D01*
X74067000Y55107667D01*
X74100334Y55174333D01*
X74100334Y55241000D01*
X74067000Y55307667D01*
X74033667Y55341000D01*
X73967000Y55374333D01*
X73800334Y55374333D01*
X73700334Y55341000D01*
X73467000Y55374333D02*
X73300333Y54674333D01*
X73167000Y55174333D01*
X73033667Y54674333D01*
X72867000Y55374333D01*
X72200333Y54741000D02*
X72233667Y54707667D01*
X72333667Y54674333D01*
X72400333Y54674333D01*
X72500333Y54707667D01*
X72567000Y54774333D01*
X72600333Y54841000D01*
X72633667Y54974333D01*
X72633667Y55074333D01*
X72600333Y55207667D01*
X72567000Y55274333D01*
X72500333Y55341000D01*
X72400333Y55374333D01*
X72333667Y55374333D01*
X72233667Y55341000D01*
X72200333Y55307667D01*
X71567000Y54674333D02*
X71900333Y54674333D01*
X71900333Y55374333D01*
X71333666Y54674333D02*
X71333666Y55374333D01*
X70933666Y54674333D02*
X71233666Y55074333D01*
X70933666Y55374333D02*
X71333666Y54974333D01*
X73050333Y54071000D02*
X73116999Y54104333D01*
X73216999Y54104333D01*
X73316999Y54071000D01*
X73383666Y54004333D01*
X73416999Y53937667D01*
X73450333Y53804333D01*
X73450333Y53704333D01*
X73416999Y53571000D01*
X73383666Y53504333D01*
X73316999Y53437667D01*
X73216999Y53404333D01*
X73150333Y53404333D01*
X73050333Y53437667D01*
X73016999Y53471000D01*
X73016999Y53704333D01*
X73150333Y53704333D01*
X72716999Y53404333D02*
X72716999Y54104333D01*
X72316999Y53404333D01*
X72316999Y54104333D01*
X71983666Y53404333D02*
X71983666Y54104333D01*
X71817000Y54104333D01*
X71717000Y54071000D01*
X71650333Y54004333D01*
X71617000Y53937667D01*
X71583666Y53804333D01*
X71583666Y53704333D01*
X71617000Y53571000D01*
X71650333Y53504333D01*
X71717000Y53437667D01*
X71817000Y53404333D01*
X71983666Y53404333D01*
X69113333Y54104333D02*
X68713333Y54104333D01*
X68913333Y53404333D02*
X68913333Y54104333D01*
X68546667Y54104333D02*
X68080000Y53404333D01*
X68080000Y54104333D02*
X68546667Y53404333D01*
X65648666Y53404333D02*
X65882000Y53737667D01*
X66048666Y53404333D02*
X66048666Y54104333D01*
X65782000Y54104333D01*
X65715333Y54071000D01*
X65682000Y54037667D01*
X65648666Y53971000D01*
X65648666Y53871000D01*
X65682000Y53804333D01*
X65715333Y53771000D01*
X65782000Y53737667D01*
X66048666Y53737667D01*
X65415333Y54104333D02*
X64948666Y53404333D01*
X64948666Y54104333D02*
X65415333Y53404333D01*
X63223667Y54104333D02*
X62790334Y54104333D01*
X63023667Y53837667D01*
X62923667Y53837667D01*
X62857000Y53804333D01*
X62823667Y53771000D01*
X62790334Y53704333D01*
X62790334Y53537667D01*
X62823667Y53471000D01*
X62857000Y53437667D01*
X62923667Y53404333D01*
X63123667Y53404333D01*
X63190334Y53437667D01*
X63223667Y53471000D01*
X62590333Y54104333D02*
X62357000Y53404333D01*
X62123667Y54104333D01*
X61957000Y54104333D02*
X61523667Y54104333D01*
X61757000Y53837667D01*
X61657000Y53837667D01*
X61590333Y53804333D01*
X61557000Y53771000D01*
X61523667Y53704333D01*
X61523667Y53537667D01*
X61557000Y53471000D01*
X61590333Y53437667D01*
X61657000Y53404333D01*
X61857000Y53404333D01*
X61923667Y53437667D01*
X61957000Y53471000D01*
D11*
X57912000Y53086000D02*
X74422000Y53086000D01*
X74422000Y53086000D02*
X74422000Y55626000D01*
X74422000Y55626000D02*
X57912000Y55626000D01*
X57912000Y55626000D02*
X57912000Y53086000D01*
X57912000Y53086000D02*
X57912000Y54991000D01*
X57912000Y54356000D02*
X74422000Y54356000D01*
X70612000Y53213000D02*
X70612000Y55499000D01*
X66802000Y55499000D02*
X66802000Y53213000D01*
X64008000Y55499000D02*
X64008000Y53213000D01*
X60706000Y55499000D02*
X60706000Y53213000D01*
D10*
X59732000Y53771000D02*
X59632000Y53737667D01*
X59598667Y53704333D01*
X59565333Y53637667D01*
X59565333Y53537667D01*
X59598667Y53471000D01*
X59632000Y53437667D01*
X59698667Y53404333D01*
X59965333Y53404333D01*
X59965333Y54104333D01*
X59732000Y54104333D01*
X59665333Y54071000D01*
X59632000Y54037667D01*
X59598667Y53971000D01*
X59598667Y53904333D01*
X59632000Y53837667D01*
X59665333Y53804333D01*
X59732000Y53771000D01*
X59965333Y53771000D01*
X59365333Y54104333D02*
X58965333Y54104333D01*
X59165333Y53404333D02*
X59165333Y54104333D01*
X58598667Y54104333D02*
X58532000Y54104333D01*
X58465334Y54071000D01*
X58432000Y54037667D01*
X58398667Y53971000D01*
X58365334Y53837667D01*
X58365334Y53671000D01*
X58398667Y53537667D01*
X58432000Y53471000D01*
X58465334Y53437667D01*
X58532000Y53404333D01*
X58598667Y53404333D01*
X58665334Y53437667D01*
X58698667Y53471000D01*
X58732000Y53537667D01*
X58765334Y53671000D01*
X58765334Y53837667D01*
X58732000Y53971000D01*
X58698667Y54037667D01*
X58665334Y54071000D01*
X58598667Y54104333D01*
X60048667Y55374333D02*
X59615334Y55374333D01*
X59848667Y55107667D01*
X59748667Y55107667D01*
X59682000Y55074333D01*
X59648667Y55041000D01*
X59615334Y54974333D01*
X59615334Y54807667D01*
X59648667Y54741000D01*
X59682000Y54707667D01*
X59748667Y54674333D01*
X59948667Y54674333D01*
X60015334Y54707667D01*
X60048667Y54741000D01*
X59415333Y55374333D02*
X59182000Y54674333D01*
X58948667Y55374333D01*
X58782000Y55374333D02*
X58348667Y55374333D01*
X58582000Y55107667D01*
X58482000Y55107667D01*
X58415333Y55074333D01*
X58382000Y55041000D01*
X58348667Y54974333D01*
X58348667Y54807667D01*
X58382000Y54741000D01*
X58415333Y54707667D01*
X58482000Y54674333D01*
X58682000Y54674333D01*
X58748667Y54707667D01*
X58782000Y54741000D01*
D12*
X70595619Y43917238D02*
X70452762Y43869619D01*
X70214666Y43869619D01*
X70119428Y43917238D01*
X70071809Y43964857D01*
X70024190Y44060095D01*
X70024190Y44155333D01*
X70071809Y44250571D01*
X70119428Y44298190D01*
X70214666Y44345810D01*
X70405143Y44393429D01*
X70500381Y44441048D01*
X70548000Y44488667D01*
X70595619Y44583905D01*
X70595619Y44679143D01*
X70548000Y44774381D01*
X70500381Y44822000D01*
X70405143Y44869619D01*
X70167047Y44869619D01*
X70024190Y44822000D01*
X69738476Y44869619D02*
X69167047Y44869619D01*
X69452762Y43869619D02*
X69452762Y44869619D01*
X68833714Y43869619D02*
X68833714Y44869619D01*
X68500380Y44155333D01*
X68167047Y44869619D01*
X68167047Y43869619D01*
X67786095Y44869619D02*
X67167047Y44869619D01*
X67500381Y44488667D01*
X67357523Y44488667D01*
X67262285Y44441048D01*
X67214666Y44393429D01*
X67167047Y44298190D01*
X67167047Y44060095D01*
X67214666Y43964857D01*
X67262285Y43917238D01*
X67357523Y43869619D01*
X67643238Y43869619D01*
X67738476Y43917238D01*
X67786095Y43964857D01*
X66786095Y44774381D02*
X66738476Y44822000D01*
X66643238Y44869619D01*
X66405142Y44869619D01*
X66309904Y44822000D01*
X66262285Y44774381D01*
X66214666Y44679143D01*
X66214666Y44583905D01*
X66262285Y44441048D01*
X66833714Y43869619D01*
X66214666Y43869619D01*
X65452761Y44393429D02*
X65786095Y44393429D01*
X65786095Y43869619D02*
X65786095Y44869619D01*
X65309904Y44869619D01*
X64738476Y44869619D02*
X64643237Y44869619D01*
X64547999Y44822000D01*
X64500380Y44774381D01*
X64452761Y44679143D01*
X64405142Y44488667D01*
X64405142Y44250571D01*
X64452761Y44060095D01*
X64500380Y43964857D01*
X64547999Y43917238D01*
X64643237Y43869619D01*
X64738476Y43869619D01*
X64833714Y43917238D01*
X64881333Y43964857D01*
X64928952Y44060095D01*
X64976571Y44250571D01*
X64976571Y44488667D01*
X64928952Y44679143D01*
X64881333Y44774381D01*
X64833714Y44822000D01*
X64738476Y44869619D01*
X64071809Y44869619D02*
X63452761Y44869619D01*
X63786095Y44488667D01*
X63643237Y44488667D01*
X63547999Y44441048D01*
X63500380Y44393429D01*
X63452761Y44298190D01*
X63452761Y44060095D01*
X63500380Y43964857D01*
X63547999Y43917238D01*
X63643237Y43869619D01*
X63928952Y43869619D01*
X64024190Y43917238D01*
X64071809Y43964857D01*
X62833714Y44869619D02*
X62738475Y44869619D01*
X62643237Y44822000D01*
X62595618Y44774381D01*
X62547999Y44679143D01*
X62500380Y44488667D01*
X62500380Y44250571D01*
X62547999Y44060095D01*
X62595618Y43964857D01*
X62643237Y43917238D01*
X62738475Y43869619D01*
X62833714Y43869619D01*
X62928952Y43917238D01*
X62976571Y43964857D01*
X63024190Y44060095D01*
X63071809Y44250571D01*
X63071809Y44488667D01*
X63024190Y44679143D01*
X62976571Y44774381D01*
X62928952Y44822000D01*
X62833714Y44869619D01*
X69976572Y42314857D02*
X70024191Y42267238D01*
X70167048Y42219619D01*
X70262286Y42219619D01*
X70405144Y42267238D01*
X70500382Y42362476D01*
X70548001Y42457714D01*
X70595620Y42648190D01*
X70595620Y42791048D01*
X70548001Y42981524D01*
X70500382Y43076762D01*
X70405144Y43172000D01*
X70262286Y43219619D01*
X70167048Y43219619D01*
X70024191Y43172000D01*
X69976572Y43124381D01*
X69405144Y42219619D02*
X69500382Y42267238D01*
X69548001Y42314857D01*
X69595620Y42410095D01*
X69595620Y42695810D01*
X69548001Y42791048D01*
X69500382Y42838667D01*
X69405144Y42886286D01*
X69262286Y42886286D01*
X69167048Y42838667D01*
X69119429Y42791048D01*
X69071810Y42695810D01*
X69071810Y42410095D01*
X69119429Y42314857D01*
X69167048Y42267238D01*
X69262286Y42219619D01*
X69405144Y42219619D01*
X68643239Y42219619D02*
X68643239Y42886286D01*
X68643239Y42695810D02*
X68595620Y42791048D01*
X68548001Y42838667D01*
X68452763Y42886286D01*
X68357524Y42886286D01*
X67643238Y42267238D02*
X67738476Y42219619D01*
X67928953Y42219619D01*
X68024191Y42267238D01*
X68071810Y42362476D01*
X68071810Y42743429D01*
X68024191Y42838667D01*
X67928953Y42886286D01*
X67738476Y42886286D01*
X67643238Y42838667D01*
X67595619Y42743429D01*
X67595619Y42648190D01*
X68071810Y42552952D01*
X66071809Y42743429D02*
X65928952Y42695810D01*
X65881333Y42648190D01*
X65833714Y42552952D01*
X65833714Y42410095D01*
X65881333Y42314857D01*
X65928952Y42267238D01*
X66024190Y42219619D01*
X66405143Y42219619D01*
X66405143Y43219619D01*
X66071809Y43219619D01*
X65976571Y43172000D01*
X65928952Y43124381D01*
X65881333Y43029143D01*
X65881333Y42933905D01*
X65928952Y42838667D01*
X65976571Y42791048D01*
X66071809Y42743429D01*
X66405143Y42743429D01*
X65262286Y42219619D02*
X65357524Y42267238D01*
X65405143Y42314857D01*
X65452762Y42410095D01*
X65452762Y42695810D01*
X65405143Y42791048D01*
X65357524Y42838667D01*
X65262286Y42886286D01*
X65119428Y42886286D01*
X65024190Y42838667D01*
X64976571Y42791048D01*
X64928952Y42695810D01*
X64928952Y42410095D01*
X64976571Y42314857D01*
X65024190Y42267238D01*
X65119428Y42219619D01*
X65262286Y42219619D01*
X64071809Y42219619D02*
X64071809Y42743429D01*
X64119428Y42838667D01*
X64214666Y42886286D01*
X64405143Y42886286D01*
X64500381Y42838667D01*
X64071809Y42267238D02*
X64167047Y42219619D01*
X64405143Y42219619D01*
X64500381Y42267238D01*
X64548000Y42362476D01*
X64548000Y42457714D01*
X64500381Y42552952D01*
X64405143Y42600571D01*
X64167047Y42600571D01*
X64071809Y42648190D01*
X63595619Y42219619D02*
X63595619Y42886286D01*
X63595619Y42695810D02*
X63548000Y42791048D01*
X63500381Y42838667D01*
X63405143Y42886286D01*
X63309904Y42886286D01*
X62547999Y42219619D02*
X62547999Y43219619D01*
X62547999Y42267238D02*
X62643237Y42219619D01*
X62833714Y42219619D01*
X62928952Y42267238D01*
X62976571Y42314857D01*
X63024190Y42410095D01*
X63024190Y42695810D01*
X62976571Y42791048D01*
X62928952Y42838667D01*
X62833714Y42886286D01*
X62643237Y42886286D01*
X62547999Y42838667D01*
X74667048Y40569619D02*
X74667048Y41569619D01*
X74428953Y41569619D01*
X74286095Y41522000D01*
X74190857Y41426762D01*
X74143238Y41331524D01*
X74095619Y41141048D01*
X74095619Y40998190D01*
X74143238Y40807714D01*
X74190857Y40712476D01*
X74286095Y40617238D01*
X74428953Y40569619D01*
X74667048Y40569619D01*
X73286095Y40617238D02*
X73381333Y40569619D01*
X73571810Y40569619D01*
X73667048Y40617238D01*
X73714667Y40712476D01*
X73714667Y41093429D01*
X73667048Y41188667D01*
X73571810Y41236286D01*
X73381333Y41236286D01*
X73286095Y41188667D01*
X73238476Y41093429D01*
X73238476Y40998190D01*
X73714667Y40902952D01*
X72857524Y40617238D02*
X72762286Y40569619D01*
X72571810Y40569619D01*
X72476571Y40617238D01*
X72428952Y40712476D01*
X72428952Y40760095D01*
X72476571Y40855333D01*
X72571810Y40902952D01*
X72714667Y40902952D01*
X72809905Y40950571D01*
X72857524Y41045810D01*
X72857524Y41093429D01*
X72809905Y41188667D01*
X72714667Y41236286D01*
X72571810Y41236286D01*
X72476571Y41188667D01*
X72000381Y40569619D02*
X72000381Y41236286D01*
X72000381Y41569619D02*
X72048000Y41522000D01*
X72000381Y41474381D01*
X71952762Y41522000D01*
X72000381Y41569619D01*
X72000381Y41474381D01*
X71095619Y41236286D02*
X71095619Y40426762D01*
X71143238Y40331524D01*
X71190857Y40283905D01*
X71286096Y40236286D01*
X71428953Y40236286D01*
X71524191Y40283905D01*
X71095619Y40617238D02*
X71190857Y40569619D01*
X71381334Y40569619D01*
X71476572Y40617238D01*
X71524191Y40664857D01*
X71571810Y40760095D01*
X71571810Y41045810D01*
X71524191Y41141048D01*
X71476572Y41188667D01*
X71381334Y41236286D01*
X71190857Y41236286D01*
X71095619Y41188667D01*
X70619429Y41236286D02*
X70619429Y40569619D01*
X70619429Y41141048D02*
X70571810Y41188667D01*
X70476572Y41236286D01*
X70333714Y41236286D01*
X70238476Y41188667D01*
X70190857Y41093429D01*
X70190857Y40569619D01*
X69333714Y40617238D02*
X69428952Y40569619D01*
X69619429Y40569619D01*
X69714667Y40617238D01*
X69762286Y40712476D01*
X69762286Y41093429D01*
X69714667Y41188667D01*
X69619429Y41236286D01*
X69428952Y41236286D01*
X69333714Y41188667D01*
X69286095Y41093429D01*
X69286095Y40998190D01*
X69762286Y40902952D01*
X68428952Y40569619D02*
X68428952Y41569619D01*
X68428952Y40617238D02*
X68524190Y40569619D01*
X68714667Y40569619D01*
X68809905Y40617238D01*
X68857524Y40664857D01*
X68905143Y40760095D01*
X68905143Y41045810D01*
X68857524Y41141048D01*
X68809905Y41188667D01*
X68714667Y41236286D01*
X68524190Y41236286D01*
X68428952Y41188667D01*
X67190857Y40569619D02*
X67190857Y41569619D01*
X67190857Y41188667D02*
X67095619Y41236286D01*
X66905142Y41236286D01*
X66809904Y41188667D01*
X66762285Y41141048D01*
X66714666Y41045810D01*
X66714666Y40760095D01*
X66762285Y40664857D01*
X66809904Y40617238D01*
X66905142Y40569619D01*
X67095619Y40569619D01*
X67190857Y40617238D01*
X66381333Y41236286D02*
X66143238Y40569619D01*
X65905142Y41236286D02*
X66143238Y40569619D01*
X66238476Y40331524D01*
X66286095Y40283905D01*
X66381333Y40236286D01*
X64762285Y40569619D02*
X64762285Y41569619D01*
X64762285Y41093429D02*
X64190856Y41093429D01*
X64190856Y40569619D02*
X64190856Y41569619D01*
X63809904Y41569619D02*
X63571809Y40569619D01*
X63381332Y41283905D01*
X63190856Y40569619D01*
X62952761Y41569619D01*
X61905142Y41569619D02*
X61667047Y40569619D01*
X61476570Y41283905D01*
X61286094Y40569619D01*
X61047999Y41569619D01*
X60524190Y40569619D02*
X60619428Y40617238D01*
X60667047Y40664857D01*
X60714666Y40760095D01*
X60714666Y41045810D01*
X60667047Y41141048D01*
X60619428Y41188667D01*
X60524190Y41236286D01*
X60381332Y41236286D01*
X60286094Y41188667D01*
X60238475Y41141048D01*
X60190856Y41045810D01*
X60190856Y40760095D01*
X60238475Y40664857D01*
X60286094Y40617238D01*
X60381332Y40569619D01*
X60524190Y40569619D01*
X59762285Y41236286D02*
X59762285Y40569619D01*
X59762285Y41141048D02*
X59714666Y41188667D01*
X59619428Y41236286D01*
X59476570Y41236286D01*
X59381332Y41188667D01*
X59333713Y41093429D01*
X59333713Y40569619D01*
X58428951Y41236286D02*
X58428951Y40426762D01*
X58476570Y40331524D01*
X58524189Y40283905D01*
X58619428Y40236286D01*
X58762285Y40236286D01*
X58857523Y40283905D01*
X58428951Y40617238D02*
X58524189Y40569619D01*
X58714666Y40569619D01*
X58809904Y40617238D01*
X58857523Y40664857D01*
X58905142Y40760095D01*
X58905142Y41045810D01*
X58857523Y41141048D01*
X58809904Y41188667D01*
X58714666Y41236286D01*
X58524189Y41236286D01*
X58428951Y41188667D01*
D13*
X72777143Y35350095D02*
X73043810Y35731048D01*
X73234286Y35350095D02*
X73234286Y36150095D01*
X72929524Y36150095D01*
X72853333Y36112000D01*
X72815238Y36073905D01*
X72777143Y35997714D01*
X72777143Y35883429D01*
X72815238Y35807238D01*
X72853333Y35769143D01*
X72929524Y35731048D01*
X73234286Y35731048D01*
X72129524Y35388190D02*
X72205714Y35350095D01*
X72358095Y35350095D01*
X72434286Y35388190D01*
X72472381Y35464381D01*
X72472381Y35769143D01*
X72434286Y35845333D01*
X72358095Y35883429D01*
X72205714Y35883429D01*
X72129524Y35845333D01*
X72091429Y35769143D01*
X72091429Y35692952D01*
X72472381Y35616762D01*
X71824762Y35883429D02*
X71634286Y35350095D01*
X71443810Y35883429D01*
X70110476Y35350095D02*
X70567619Y35350095D01*
X70339048Y35350095D02*
X70339048Y36150095D01*
X70415238Y36035810D01*
X70491429Y35959619D01*
X70567619Y35921524D01*
X69767619Y35426286D02*
X69729524Y35388190D01*
X69767619Y35350095D01*
X69805714Y35388190D01*
X69767619Y35426286D01*
X69767619Y35350095D01*
X69234286Y36150095D02*
X69158095Y36150095D01*
X69081905Y36112000D01*
X69043810Y36073905D01*
X69005714Y35997714D01*
X68967619Y35845333D01*
X68967619Y35654857D01*
X69005714Y35502476D01*
X69043810Y35426286D01*
X69081905Y35388190D01*
X69158095Y35350095D01*
X69234286Y35350095D01*
X69310476Y35388190D01*
X69348572Y35426286D01*
X69386667Y35502476D01*
X69424762Y35654857D01*
X69424762Y35845333D01*
X69386667Y35997714D01*
X69348572Y36073905D01*
X69310476Y36112000D01*
X69234286Y36150095D01*
X74034286Y34030095D02*
X74034286Y34830095D01*
X73843810Y34830095D01*
X73729524Y34792000D01*
X73653333Y34715810D01*
X73615238Y34639619D01*
X73577143Y34487238D01*
X73577143Y34372952D01*
X73615238Y34220571D01*
X73653333Y34144381D01*
X73729524Y34068190D01*
X73843810Y34030095D01*
X74034286Y34030095D01*
X72929524Y34068190D02*
X73005714Y34030095D01*
X73158095Y34030095D01*
X73234286Y34068190D01*
X73272381Y34144381D01*
X73272381Y34449143D01*
X73234286Y34525333D01*
X73158095Y34563429D01*
X73005714Y34563429D01*
X72929524Y34525333D01*
X72891429Y34449143D01*
X72891429Y34372952D01*
X73272381Y34296762D01*
X72205715Y34068190D02*
X72281905Y34030095D01*
X72434286Y34030095D01*
X72510477Y34068190D01*
X72548572Y34106286D01*
X72586667Y34182476D01*
X72586667Y34411048D01*
X72548572Y34487238D01*
X72510477Y34525333D01*
X72434286Y34563429D01*
X72281905Y34563429D01*
X72205715Y34525333D01*
X71862858Y34334857D02*
X71253334Y34334857D01*
X70910477Y34753905D02*
X70872382Y34792000D01*
X70796191Y34830095D01*
X70605715Y34830095D01*
X70529525Y34792000D01*
X70491429Y34753905D01*
X70453334Y34677714D01*
X70453334Y34601524D01*
X70491429Y34487238D01*
X70948572Y34030095D01*
X70453334Y34030095D01*
X69958096Y34830095D02*
X69881905Y34830095D01*
X69805715Y34792000D01*
X69767620Y34753905D01*
X69729524Y34677714D01*
X69691429Y34525333D01*
X69691429Y34334857D01*
X69729524Y34182476D01*
X69767620Y34106286D01*
X69805715Y34068190D01*
X69881905Y34030095D01*
X69958096Y34030095D01*
X70034286Y34068190D01*
X70072382Y34106286D01*
X70110477Y34182476D01*
X70148572Y34334857D01*
X70148572Y34525333D01*
X70110477Y34677714D01*
X70072382Y34753905D01*
X70034286Y34792000D01*
X69958096Y34830095D01*
X68929524Y34030095D02*
X69386667Y34030095D01*
X69158096Y34030095D02*
X69158096Y34830095D01*
X69234286Y34715810D01*
X69310477Y34639619D01*
X69386667Y34601524D01*
X68205714Y34830095D02*
X68586667Y34830095D01*
X68624762Y34449143D01*
X68586667Y34487238D01*
X68510476Y34525333D01*
X68320000Y34525333D01*
X68243810Y34487238D01*
X68205714Y34449143D01*
X68167619Y34372952D01*
X68167619Y34182476D01*
X68205714Y34106286D01*
X68243810Y34068190D01*
X68320000Y34030095D01*
X68510476Y34030095D01*
X68586667Y34068190D01*
X68624762Y34106286D01*
D10*
X63223667Y86870333D02*
X62790334Y86870333D01*
X63023667Y86603667D01*
X62923667Y86603667D01*
X62857000Y86570333D01*
X62823667Y86537000D01*
X62790334Y86470333D01*
X62790334Y86303667D01*
X62823667Y86237000D01*
X62857000Y86203667D01*
X62923667Y86170333D01*
X63123667Y86170333D01*
X63190334Y86203667D01*
X63223667Y86237000D01*
X62590333Y86870333D02*
X62357000Y86170333D01*
X62123667Y86870333D01*
X61957000Y86870333D02*
X61523667Y86870333D01*
X61757000Y86603667D01*
X61657000Y86603667D01*
X61590333Y86570333D01*
X61557000Y86537000D01*
X61523667Y86470333D01*
X61523667Y86303667D01*
X61557000Y86237000D01*
X61590333Y86203667D01*
X61657000Y86170333D01*
X61857000Y86170333D01*
X61923667Y86203667D01*
X61957000Y86237000D01*
X66065333Y86837000D02*
X66131999Y86870333D01*
X66231999Y86870333D01*
X66331999Y86837000D01*
X66398666Y86770333D01*
X66431999Y86703667D01*
X66465333Y86570333D01*
X66465333Y86470333D01*
X66431999Y86337000D01*
X66398666Y86270333D01*
X66331999Y86203667D01*
X66231999Y86170333D01*
X66165333Y86170333D01*
X66065333Y86203667D01*
X66031999Y86237000D01*
X66031999Y86470333D01*
X66165333Y86470333D01*
X65731999Y86170333D02*
X65731999Y86870333D01*
X65331999Y86170333D01*
X65331999Y86870333D01*
X64998666Y86170333D02*
X64998666Y86870333D01*
X64832000Y86870333D01*
X64732000Y86837000D01*
X64665333Y86770333D01*
X64632000Y86703667D01*
X64598666Y86570333D01*
X64598666Y86470333D01*
X64632000Y86337000D01*
X64665333Y86270333D01*
X64732000Y86203667D01*
X64832000Y86170333D01*
X64998666Y86170333D01*
X70190333Y86203667D02*
X70090333Y86170333D01*
X69923666Y86170333D01*
X69856999Y86203667D01*
X69823666Y86237000D01*
X69790333Y86303667D01*
X69790333Y86370333D01*
X69823666Y86437000D01*
X69856999Y86470333D01*
X69923666Y86503667D01*
X70056999Y86537000D01*
X70123666Y86570333D01*
X70156999Y86603667D01*
X70190333Y86670333D01*
X70190333Y86737000D01*
X70156999Y86803667D01*
X70123666Y86837000D01*
X70056999Y86870333D01*
X69890333Y86870333D01*
X69790333Y86837000D01*
X69556999Y86870333D02*
X69390332Y86170333D01*
X69256999Y86670333D01*
X69123666Y86170333D01*
X68956999Y86870333D01*
X68690332Y86170333D02*
X68690332Y86870333D01*
X68523666Y86870333D01*
X68423666Y86837000D01*
X68356999Y86770333D01*
X68323666Y86703667D01*
X68290332Y86570333D01*
X68290332Y86470333D01*
X68323666Y86337000D01*
X68356999Y86270333D01*
X68423666Y86203667D01*
X68523666Y86170333D01*
X68690332Y86170333D01*
X67990332Y86170333D02*
X67990332Y86870333D01*
X67523666Y86870333D02*
X67390333Y86870333D01*
X67323666Y86837000D01*
X67256999Y86770333D01*
X67223666Y86637000D01*
X67223666Y86403667D01*
X67256999Y86270333D01*
X67323666Y86203667D01*
X67390333Y86170333D01*
X67523666Y86170333D01*
X67590333Y86203667D01*
X67656999Y86270333D01*
X67690333Y86403667D01*
X67690333Y86637000D01*
X67656999Y86770333D01*
X67590333Y86837000D01*
X67523666Y86870333D01*
X74100334Y86203667D02*
X74000334Y86170333D01*
X73833667Y86170333D01*
X73767000Y86203667D01*
X73733667Y86237000D01*
X73700334Y86303667D01*
X73700334Y86370333D01*
X73733667Y86437000D01*
X73767000Y86470333D01*
X73833667Y86503667D01*
X73967000Y86537000D01*
X74033667Y86570333D01*
X74067000Y86603667D01*
X74100334Y86670333D01*
X74100334Y86737000D01*
X74067000Y86803667D01*
X74033667Y86837000D01*
X73967000Y86870333D01*
X73800334Y86870333D01*
X73700334Y86837000D01*
X73467000Y86870333D02*
X73300333Y86170333D01*
X73167000Y86670333D01*
X73033667Y86170333D01*
X72867000Y86870333D01*
X72200333Y86237000D02*
X72233667Y86203667D01*
X72333667Y86170333D01*
X72400333Y86170333D01*
X72500333Y86203667D01*
X72567000Y86270333D01*
X72600333Y86337000D01*
X72633667Y86470333D01*
X72633667Y86570333D01*
X72600333Y86703667D01*
X72567000Y86770333D01*
X72500333Y86837000D01*
X72400333Y86870333D01*
X72333667Y86870333D01*
X72233667Y86837000D01*
X72200333Y86803667D01*
X71567000Y86170333D02*
X71900333Y86170333D01*
X71900333Y86870333D01*
X71333666Y86170333D02*
X71333666Y86870333D01*
X70933666Y86170333D02*
X71233666Y86570333D01*
X70933666Y86870333D02*
X71333666Y86470333D01*
X73050333Y85567000D02*
X73116999Y85600333D01*
X73216999Y85600333D01*
X73316999Y85567000D01*
X73383666Y85500333D01*
X73416999Y85433667D01*
X73450333Y85300333D01*
X73450333Y85200333D01*
X73416999Y85067000D01*
X73383666Y85000333D01*
X73316999Y84933667D01*
X73216999Y84900333D01*
X73150333Y84900333D01*
X73050333Y84933667D01*
X73016999Y84967000D01*
X73016999Y85200333D01*
X73150333Y85200333D01*
X72716999Y84900333D02*
X72716999Y85600333D01*
X72316999Y84900333D01*
X72316999Y85600333D01*
X71983666Y84900333D02*
X71983666Y85600333D01*
X71817000Y85600333D01*
X71717000Y85567000D01*
X71650333Y85500333D01*
X71617000Y85433667D01*
X71583666Y85300333D01*
X71583666Y85200333D01*
X71617000Y85067000D01*
X71650333Y85000333D01*
X71717000Y84933667D01*
X71817000Y84900333D01*
X71983666Y84900333D01*
X69113333Y85600333D02*
X68713333Y85600333D01*
X68913333Y84900333D02*
X68913333Y85600333D01*
X68546667Y85600333D02*
X68080000Y84900333D01*
X68080000Y85600333D02*
X68546667Y84900333D01*
X65648666Y84900333D02*
X65882000Y85233667D01*
X66048666Y84900333D02*
X66048666Y85600333D01*
X65782000Y85600333D01*
X65715333Y85567000D01*
X65682000Y85533667D01*
X65648666Y85467000D01*
X65648666Y85367000D01*
X65682000Y85300333D01*
X65715333Y85267000D01*
X65782000Y85233667D01*
X66048666Y85233667D01*
X65415333Y85600333D02*
X64948666Y84900333D01*
X64948666Y85600333D02*
X65415333Y84900333D01*
X63223667Y85600333D02*
X62790334Y85600333D01*
X63023667Y85333667D01*
X62923667Y85333667D01*
X62857000Y85300333D01*
X62823667Y85267000D01*
X62790334Y85200333D01*
X62790334Y85033667D01*
X62823667Y84967000D01*
X62857000Y84933667D01*
X62923667Y84900333D01*
X63123667Y84900333D01*
X63190334Y84933667D01*
X63223667Y84967000D01*
X62590333Y85600333D02*
X62357000Y84900333D01*
X62123667Y85600333D01*
X61957000Y85600333D02*
X61523667Y85600333D01*
X61757000Y85333667D01*
X61657000Y85333667D01*
X61590333Y85300333D01*
X61557000Y85267000D01*
X61523667Y85200333D01*
X61523667Y85033667D01*
X61557000Y84967000D01*
X61590333Y84933667D01*
X61657000Y84900333D01*
X61857000Y84900333D01*
X61923667Y84933667D01*
X61957000Y84967000D01*
D11*
X57912000Y84582000D02*
X74422000Y84582000D01*
X74422000Y84582000D02*
X74422000Y87122000D01*
X74422000Y87122000D02*
X57912000Y87122000D01*
X57912000Y87122000D02*
X57912000Y84582000D01*
X57912000Y84582000D02*
X57912000Y86487000D01*
X57912000Y85852000D02*
X74422000Y85852000D01*
X70612000Y84709000D02*
X70612000Y86995000D01*
X66802000Y86995000D02*
X66802000Y84709000D01*
X64008000Y86995000D02*
X64008000Y84709000D01*
X60706000Y86995000D02*
X60706000Y84709000D01*
D10*
X59732000Y85267000D02*
X59632000Y85233667D01*
X59598667Y85200333D01*
X59565333Y85133667D01*
X59565333Y85033667D01*
X59598667Y84967000D01*
X59632000Y84933667D01*
X59698667Y84900333D01*
X59965333Y84900333D01*
X59965333Y85600333D01*
X59732000Y85600333D01*
X59665333Y85567000D01*
X59632000Y85533667D01*
X59598667Y85467000D01*
X59598667Y85400333D01*
X59632000Y85333667D01*
X59665333Y85300333D01*
X59732000Y85267000D01*
X59965333Y85267000D01*
X59365333Y85600333D02*
X58965333Y85600333D01*
X59165333Y84900333D02*
X59165333Y85600333D01*
X58598667Y85600333D02*
X58532000Y85600333D01*
X58465334Y85567000D01*
X58432000Y85533667D01*
X58398667Y85467000D01*
X58365334Y85333667D01*
X58365334Y85167000D01*
X58398667Y85033667D01*
X58432000Y84967000D01*
X58465334Y84933667D01*
X58532000Y84900333D01*
X58598667Y84900333D01*
X58665334Y84933667D01*
X58698667Y84967000D01*
X58732000Y85033667D01*
X58765334Y85167000D01*
X58765334Y85333667D01*
X58732000Y85467000D01*
X58698667Y85533667D01*
X58665334Y85567000D01*
X58598667Y85600333D01*
X60048667Y86870333D02*
X59615334Y86870333D01*
X59848667Y86603667D01*
X59748667Y86603667D01*
X59682000Y86570333D01*
X59648667Y86537000D01*
X59615334Y86470333D01*
X59615334Y86303667D01*
X59648667Y86237000D01*
X59682000Y86203667D01*
X59748667Y86170333D01*
X59948667Y86170333D01*
X60015334Y86203667D01*
X60048667Y86237000D01*
X59415333Y86870333D02*
X59182000Y86170333D01*
X58948667Y86870333D01*
X58782000Y86870333D02*
X58348667Y86870333D01*
X58582000Y86603667D01*
X58482000Y86603667D01*
X58415333Y86570333D01*
X58382000Y86537000D01*
X58348667Y86470333D01*
X58348667Y86303667D01*
X58382000Y86237000D01*
X58415333Y86203667D01*
X58482000Y86170333D01*
X58682000Y86170333D01*
X58748667Y86203667D01*
X58782000Y86237000D01*
D12*
X70595619Y75413238D02*
X70452762Y75365619D01*
X70214666Y75365619D01*
X70119428Y75413238D01*
X70071809Y75460857D01*
X70024190Y75556095D01*
X70024190Y75651333D01*
X70071809Y75746571D01*
X70119428Y75794190D01*
X70214666Y75841810D01*
X70405143Y75889429D01*
X70500381Y75937048D01*
X70548000Y75984667D01*
X70595619Y76079905D01*
X70595619Y76175143D01*
X70548000Y76270381D01*
X70500381Y76318000D01*
X70405143Y76365619D01*
X70167047Y76365619D01*
X70024190Y76318000D01*
X69738476Y76365619D02*
X69167047Y76365619D01*
X69452762Y75365619D02*
X69452762Y76365619D01*
X68833714Y75365619D02*
X68833714Y76365619D01*
X68500380Y75651333D01*
X68167047Y76365619D01*
X68167047Y75365619D01*
X67786095Y76365619D02*
X67167047Y76365619D01*
X67500381Y75984667D01*
X67357523Y75984667D01*
X67262285Y75937048D01*
X67214666Y75889429D01*
X67167047Y75794190D01*
X67167047Y75556095D01*
X67214666Y75460857D01*
X67262285Y75413238D01*
X67357523Y75365619D01*
X67643238Y75365619D01*
X67738476Y75413238D01*
X67786095Y75460857D01*
X66786095Y76270381D02*
X66738476Y76318000D01*
X66643238Y76365619D01*
X66405142Y76365619D01*
X66309904Y76318000D01*
X66262285Y76270381D01*
X66214666Y76175143D01*
X66214666Y76079905D01*
X66262285Y75937048D01*
X66833714Y75365619D01*
X66214666Y75365619D01*
X65452761Y75889429D02*
X65786095Y75889429D01*
X65786095Y75365619D02*
X65786095Y76365619D01*
X65309904Y76365619D01*
X64738476Y76365619D02*
X64643237Y76365619D01*
X64547999Y76318000D01*
X64500380Y76270381D01*
X64452761Y76175143D01*
X64405142Y75984667D01*
X64405142Y75746571D01*
X64452761Y75556095D01*
X64500380Y75460857D01*
X64547999Y75413238D01*
X64643237Y75365619D01*
X64738476Y75365619D01*
X64833714Y75413238D01*
X64881333Y75460857D01*
X64928952Y75556095D01*
X64976571Y75746571D01*
X64976571Y75984667D01*
X64928952Y76175143D01*
X64881333Y76270381D01*
X64833714Y76318000D01*
X64738476Y76365619D01*
X64071809Y76365619D02*
X63452761Y76365619D01*
X63786095Y75984667D01*
X63643237Y75984667D01*
X63547999Y75937048D01*
X63500380Y75889429D01*
X63452761Y75794190D01*
X63452761Y75556095D01*
X63500380Y75460857D01*
X63547999Y75413238D01*
X63643237Y75365619D01*
X63928952Y75365619D01*
X64024190Y75413238D01*
X64071809Y75460857D01*
X62833714Y76365619D02*
X62738475Y76365619D01*
X62643237Y76318000D01*
X62595618Y76270381D01*
X62547999Y76175143D01*
X62500380Y75984667D01*
X62500380Y75746571D01*
X62547999Y75556095D01*
X62595618Y75460857D01*
X62643237Y75413238D01*
X62738475Y75365619D01*
X62833714Y75365619D01*
X62928952Y75413238D01*
X62976571Y75460857D01*
X63024190Y75556095D01*
X63071809Y75746571D01*
X63071809Y75984667D01*
X63024190Y76175143D01*
X62976571Y76270381D01*
X62928952Y76318000D01*
X62833714Y76365619D01*
X69976572Y73810857D02*
X70024191Y73763238D01*
X70167048Y73715619D01*
X70262286Y73715619D01*
X70405144Y73763238D01*
X70500382Y73858476D01*
X70548001Y73953714D01*
X70595620Y74144190D01*
X70595620Y74287048D01*
X70548001Y74477524D01*
X70500382Y74572762D01*
X70405144Y74668000D01*
X70262286Y74715619D01*
X70167048Y74715619D01*
X70024191Y74668000D01*
X69976572Y74620381D01*
X69405144Y73715619D02*
X69500382Y73763238D01*
X69548001Y73810857D01*
X69595620Y73906095D01*
X69595620Y74191810D01*
X69548001Y74287048D01*
X69500382Y74334667D01*
X69405144Y74382286D01*
X69262286Y74382286D01*
X69167048Y74334667D01*
X69119429Y74287048D01*
X69071810Y74191810D01*
X69071810Y73906095D01*
X69119429Y73810857D01*
X69167048Y73763238D01*
X69262286Y73715619D01*
X69405144Y73715619D01*
X68643239Y73715619D02*
X68643239Y74382286D01*
X68643239Y74191810D02*
X68595620Y74287048D01*
X68548001Y74334667D01*
X68452763Y74382286D01*
X68357524Y74382286D01*
X67643238Y73763238D02*
X67738476Y73715619D01*
X67928953Y73715619D01*
X68024191Y73763238D01*
X68071810Y73858476D01*
X68071810Y74239429D01*
X68024191Y74334667D01*
X67928953Y74382286D01*
X67738476Y74382286D01*
X67643238Y74334667D01*
X67595619Y74239429D01*
X67595619Y74144190D01*
X68071810Y74048952D01*
X66071809Y74239429D02*
X65928952Y74191810D01*
X65881333Y74144190D01*
X65833714Y74048952D01*
X65833714Y73906095D01*
X65881333Y73810857D01*
X65928952Y73763238D01*
X66024190Y73715619D01*
X66405143Y73715619D01*
X66405143Y74715619D01*
X66071809Y74715619D01*
X65976571Y74668000D01*
X65928952Y74620381D01*
X65881333Y74525143D01*
X65881333Y74429905D01*
X65928952Y74334667D01*
X65976571Y74287048D01*
X66071809Y74239429D01*
X66405143Y74239429D01*
X65262286Y73715619D02*
X65357524Y73763238D01*
X65405143Y73810857D01*
X65452762Y73906095D01*
X65452762Y74191810D01*
X65405143Y74287048D01*
X65357524Y74334667D01*
X65262286Y74382286D01*
X65119428Y74382286D01*
X65024190Y74334667D01*
X64976571Y74287048D01*
X64928952Y74191810D01*
X64928952Y73906095D01*
X64976571Y73810857D01*
X65024190Y73763238D01*
X65119428Y73715619D01*
X65262286Y73715619D01*
X64071809Y73715619D02*
X64071809Y74239429D01*
X64119428Y74334667D01*
X64214666Y74382286D01*
X64405143Y74382286D01*
X64500381Y74334667D01*
X64071809Y73763238D02*
X64167047Y73715619D01*
X64405143Y73715619D01*
X64500381Y73763238D01*
X64548000Y73858476D01*
X64548000Y73953714D01*
X64500381Y74048952D01*
X64405143Y74096571D01*
X64167047Y74096571D01*
X64071809Y74144190D01*
X63595619Y73715619D02*
X63595619Y74382286D01*
X63595619Y74191810D02*
X63548000Y74287048D01*
X63500381Y74334667D01*
X63405143Y74382286D01*
X63309904Y74382286D01*
X62547999Y73715619D02*
X62547999Y74715619D01*
X62547999Y73763238D02*
X62643237Y73715619D01*
X62833714Y73715619D01*
X62928952Y73763238D01*
X62976571Y73810857D01*
X63024190Y73906095D01*
X63024190Y74191810D01*
X62976571Y74287048D01*
X62928952Y74334667D01*
X62833714Y74382286D01*
X62643237Y74382286D01*
X62547999Y74334667D01*
X74667048Y72065619D02*
X74667048Y73065619D01*
X74428953Y73065619D01*
X74286095Y73018000D01*
X74190857Y72922762D01*
X74143238Y72827524D01*
X74095619Y72637048D01*
X74095619Y72494190D01*
X74143238Y72303714D01*
X74190857Y72208476D01*
X74286095Y72113238D01*
X74428953Y72065619D01*
X74667048Y72065619D01*
X73286095Y72113238D02*
X73381333Y72065619D01*
X73571810Y72065619D01*
X73667048Y72113238D01*
X73714667Y72208476D01*
X73714667Y72589429D01*
X73667048Y72684667D01*
X73571810Y72732286D01*
X73381333Y72732286D01*
X73286095Y72684667D01*
X73238476Y72589429D01*
X73238476Y72494190D01*
X73714667Y72398952D01*
X72857524Y72113238D02*
X72762286Y72065619D01*
X72571810Y72065619D01*
X72476571Y72113238D01*
X72428952Y72208476D01*
X72428952Y72256095D01*
X72476571Y72351333D01*
X72571810Y72398952D01*
X72714667Y72398952D01*
X72809905Y72446571D01*
X72857524Y72541810D01*
X72857524Y72589429D01*
X72809905Y72684667D01*
X72714667Y72732286D01*
X72571810Y72732286D01*
X72476571Y72684667D01*
X72000381Y72065619D02*
X72000381Y72732286D01*
X72000381Y73065619D02*
X72048000Y73018000D01*
X72000381Y72970381D01*
X71952762Y73018000D01*
X72000381Y73065619D01*
X72000381Y72970381D01*
X71095619Y72732286D02*
X71095619Y71922762D01*
X71143238Y71827524D01*
X71190857Y71779905D01*
X71286096Y71732286D01*
X71428953Y71732286D01*
X71524191Y71779905D01*
X71095619Y72113238D02*
X71190857Y72065619D01*
X71381334Y72065619D01*
X71476572Y72113238D01*
X71524191Y72160857D01*
X71571810Y72256095D01*
X71571810Y72541810D01*
X71524191Y72637048D01*
X71476572Y72684667D01*
X71381334Y72732286D01*
X71190857Y72732286D01*
X71095619Y72684667D01*
X70619429Y72732286D02*
X70619429Y72065619D01*
X70619429Y72637048D02*
X70571810Y72684667D01*
X70476572Y72732286D01*
X70333714Y72732286D01*
X70238476Y72684667D01*
X70190857Y72589429D01*
X70190857Y72065619D01*
X69333714Y72113238D02*
X69428952Y72065619D01*
X69619429Y72065619D01*
X69714667Y72113238D01*
X69762286Y72208476D01*
X69762286Y72589429D01*
X69714667Y72684667D01*
X69619429Y72732286D01*
X69428952Y72732286D01*
X69333714Y72684667D01*
X69286095Y72589429D01*
X69286095Y72494190D01*
X69762286Y72398952D01*
X68428952Y72065619D02*
X68428952Y73065619D01*
X68428952Y72113238D02*
X68524190Y72065619D01*
X68714667Y72065619D01*
X68809905Y72113238D01*
X68857524Y72160857D01*
X68905143Y72256095D01*
X68905143Y72541810D01*
X68857524Y72637048D01*
X68809905Y72684667D01*
X68714667Y72732286D01*
X68524190Y72732286D01*
X68428952Y72684667D01*
X67190857Y72065619D02*
X67190857Y73065619D01*
X67190857Y72684667D02*
X67095619Y72732286D01*
X66905142Y72732286D01*
X66809904Y72684667D01*
X66762285Y72637048D01*
X66714666Y72541810D01*
X66714666Y72256095D01*
X66762285Y72160857D01*
X66809904Y72113238D01*
X66905142Y72065619D01*
X67095619Y72065619D01*
X67190857Y72113238D01*
X66381333Y72732286D02*
X66143238Y72065619D01*
X65905142Y72732286D02*
X66143238Y72065619D01*
X66238476Y71827524D01*
X66286095Y71779905D01*
X66381333Y71732286D01*
X64762285Y72065619D02*
X64762285Y73065619D01*
X64762285Y72589429D02*
X64190856Y72589429D01*
X64190856Y72065619D02*
X64190856Y73065619D01*
X63809904Y73065619D02*
X63571809Y72065619D01*
X63381332Y72779905D01*
X63190856Y72065619D01*
X62952761Y73065619D01*
X61905142Y73065619D02*
X61667047Y72065619D01*
X61476570Y72779905D01*
X61286094Y72065619D01*
X61047999Y73065619D01*
X60524190Y72065619D02*
X60619428Y72113238D01*
X60667047Y72160857D01*
X60714666Y72256095D01*
X60714666Y72541810D01*
X60667047Y72637048D01*
X60619428Y72684667D01*
X60524190Y72732286D01*
X60381332Y72732286D01*
X60286094Y72684667D01*
X60238475Y72637048D01*
X60190856Y72541810D01*
X60190856Y72256095D01*
X60238475Y72160857D01*
X60286094Y72113238D01*
X60381332Y72065619D01*
X60524190Y72065619D01*
X59762285Y72732286D02*
X59762285Y72065619D01*
X59762285Y72637048D02*
X59714666Y72684667D01*
X59619428Y72732286D01*
X59476570Y72732286D01*
X59381332Y72684667D01*
X59333713Y72589429D01*
X59333713Y72065619D01*
X58428951Y72732286D02*
X58428951Y71922762D01*
X58476570Y71827524D01*
X58524189Y71779905D01*
X58619428Y71732286D01*
X58762285Y71732286D01*
X58857523Y71779905D01*
X58428951Y72113238D02*
X58524189Y72065619D01*
X58714666Y72065619D01*
X58809904Y72113238D01*
X58857523Y72160857D01*
X58905142Y72256095D01*
X58905142Y72541810D01*
X58857523Y72637048D01*
X58809904Y72684667D01*
X58714666Y72732286D01*
X58524189Y72732286D01*
X58428951Y72684667D01*
D13*
X72777143Y66846095D02*
X73043810Y67227048D01*
X73234286Y66846095D02*
X73234286Y67646095D01*
X72929524Y67646095D01*
X72853333Y67608000D01*
X72815238Y67569905D01*
X72777143Y67493714D01*
X72777143Y67379429D01*
X72815238Y67303238D01*
X72853333Y67265143D01*
X72929524Y67227048D01*
X73234286Y67227048D01*
X72129524Y66884190D02*
X72205714Y66846095D01*
X72358095Y66846095D01*
X72434286Y66884190D01*
X72472381Y66960381D01*
X72472381Y67265143D01*
X72434286Y67341333D01*
X72358095Y67379429D01*
X72205714Y67379429D01*
X72129524Y67341333D01*
X72091429Y67265143D01*
X72091429Y67188952D01*
X72472381Y67112762D01*
X71824762Y67379429D02*
X71634286Y66846095D01*
X71443810Y67379429D01*
X70110476Y66846095D02*
X70567619Y66846095D01*
X70339048Y66846095D02*
X70339048Y67646095D01*
X70415238Y67531810D01*
X70491429Y67455619D01*
X70567619Y67417524D01*
X69767619Y66922286D02*
X69729524Y66884190D01*
X69767619Y66846095D01*
X69805714Y66884190D01*
X69767619Y66922286D01*
X69767619Y66846095D01*
X69234286Y67646095D02*
X69158095Y67646095D01*
X69081905Y67608000D01*
X69043810Y67569905D01*
X69005714Y67493714D01*
X68967619Y67341333D01*
X68967619Y67150857D01*
X69005714Y66998476D01*
X69043810Y66922286D01*
X69081905Y66884190D01*
X69158095Y66846095D01*
X69234286Y66846095D01*
X69310476Y66884190D01*
X69348572Y66922286D01*
X69386667Y66998476D01*
X69424762Y67150857D01*
X69424762Y67341333D01*
X69386667Y67493714D01*
X69348572Y67569905D01*
X69310476Y67608000D01*
X69234286Y67646095D01*
X74034286Y65526095D02*
X74034286Y66326095D01*
X73843810Y66326095D01*
X73729524Y66288000D01*
X73653333Y66211810D01*
X73615238Y66135619D01*
X73577143Y65983238D01*
X73577143Y65868952D01*
X73615238Y65716571D01*
X73653333Y65640381D01*
X73729524Y65564190D01*
X73843810Y65526095D01*
X74034286Y65526095D01*
X72929524Y65564190D02*
X73005714Y65526095D01*
X73158095Y65526095D01*
X73234286Y65564190D01*
X73272381Y65640381D01*
X73272381Y65945143D01*
X73234286Y66021333D01*
X73158095Y66059429D01*
X73005714Y66059429D01*
X72929524Y66021333D01*
X72891429Y65945143D01*
X72891429Y65868952D01*
X73272381Y65792762D01*
X72205715Y65564190D02*
X72281905Y65526095D01*
X72434286Y65526095D01*
X72510477Y65564190D01*
X72548572Y65602286D01*
X72586667Y65678476D01*
X72586667Y65907048D01*
X72548572Y65983238D01*
X72510477Y66021333D01*
X72434286Y66059429D01*
X72281905Y66059429D01*
X72205715Y66021333D01*
X71862858Y65830857D02*
X71253334Y65830857D01*
X70910477Y66249905D02*
X70872382Y66288000D01*
X70796191Y66326095D01*
X70605715Y66326095D01*
X70529525Y66288000D01*
X70491429Y66249905D01*
X70453334Y66173714D01*
X70453334Y66097524D01*
X70491429Y65983238D01*
X70948572Y65526095D01*
X70453334Y65526095D01*
X69958096Y66326095D02*
X69881905Y66326095D01*
X69805715Y66288000D01*
X69767620Y66249905D01*
X69729524Y66173714D01*
X69691429Y66021333D01*
X69691429Y65830857D01*
X69729524Y65678476D01*
X69767620Y65602286D01*
X69805715Y65564190D01*
X69881905Y65526095D01*
X69958096Y65526095D01*
X70034286Y65564190D01*
X70072382Y65602286D01*
X70110477Y65678476D01*
X70148572Y65830857D01*
X70148572Y66021333D01*
X70110477Y66173714D01*
X70072382Y66249905D01*
X70034286Y66288000D01*
X69958096Y66326095D01*
X68929524Y65526095D02*
X69386667Y65526095D01*
X69158096Y65526095D02*
X69158096Y66326095D01*
X69234286Y66211810D01*
X69310477Y66135619D01*
X69386667Y66097524D01*
X68205714Y66326095D02*
X68586667Y66326095D01*
X68624762Y65945143D01*
X68586667Y65983238D01*
X68510476Y66021333D01*
X68320000Y66021333D01*
X68243810Y65983238D01*
X68205714Y65945143D01*
X68167619Y65868952D01*
X68167619Y65678476D01*
X68205714Y65602286D01*
X68243810Y65564190D01*
X68320000Y65526095D01*
X68510476Y65526095D01*
X68586667Y65564190D01*
X68624762Y65602286D01*
D10*
X36807667Y23878333D02*
X36374334Y23878333D01*
X36607667Y23611667D01*
X36507667Y23611667D01*
X36441000Y23578333D01*
X36407667Y23545000D01*
X36374334Y23478333D01*
X36374334Y23311667D01*
X36407667Y23245000D01*
X36441000Y23211667D01*
X36507667Y23178333D01*
X36707667Y23178333D01*
X36774334Y23211667D01*
X36807667Y23245000D01*
X36174333Y23878333D02*
X35941000Y23178333D01*
X35707667Y23878333D01*
X35541000Y23878333D02*
X35107667Y23878333D01*
X35341000Y23611667D01*
X35241000Y23611667D01*
X35174333Y23578333D01*
X35141000Y23545000D01*
X35107667Y23478333D01*
X35107667Y23311667D01*
X35141000Y23245000D01*
X35174333Y23211667D01*
X35241000Y23178333D01*
X35441000Y23178333D01*
X35507667Y23211667D01*
X35541000Y23245000D01*
X39649333Y23845000D02*
X39715999Y23878333D01*
X39815999Y23878333D01*
X39915999Y23845000D01*
X39982666Y23778333D01*
X40015999Y23711667D01*
X40049333Y23578333D01*
X40049333Y23478333D01*
X40015999Y23345000D01*
X39982666Y23278333D01*
X39915999Y23211667D01*
X39815999Y23178333D01*
X39749333Y23178333D01*
X39649333Y23211667D01*
X39615999Y23245000D01*
X39615999Y23478333D01*
X39749333Y23478333D01*
X39315999Y23178333D02*
X39315999Y23878333D01*
X38915999Y23178333D01*
X38915999Y23878333D01*
X38582666Y23178333D02*
X38582666Y23878333D01*
X38416000Y23878333D01*
X38316000Y23845000D01*
X38249333Y23778333D01*
X38216000Y23711667D01*
X38182666Y23578333D01*
X38182666Y23478333D01*
X38216000Y23345000D01*
X38249333Y23278333D01*
X38316000Y23211667D01*
X38416000Y23178333D01*
X38582666Y23178333D01*
X43774333Y23211667D02*
X43674333Y23178333D01*
X43507666Y23178333D01*
X43440999Y23211667D01*
X43407666Y23245000D01*
X43374333Y23311667D01*
X43374333Y23378333D01*
X43407666Y23445000D01*
X43440999Y23478333D01*
X43507666Y23511667D01*
X43640999Y23545000D01*
X43707666Y23578333D01*
X43740999Y23611667D01*
X43774333Y23678333D01*
X43774333Y23745000D01*
X43740999Y23811667D01*
X43707666Y23845000D01*
X43640999Y23878333D01*
X43474333Y23878333D01*
X43374333Y23845000D01*
X43140999Y23878333D02*
X42974332Y23178333D01*
X42840999Y23678333D01*
X42707666Y23178333D01*
X42540999Y23878333D01*
X42274332Y23178333D02*
X42274332Y23878333D01*
X42107666Y23878333D01*
X42007666Y23845000D01*
X41940999Y23778333D01*
X41907666Y23711667D01*
X41874332Y23578333D01*
X41874332Y23478333D01*
X41907666Y23345000D01*
X41940999Y23278333D01*
X42007666Y23211667D01*
X42107666Y23178333D01*
X42274332Y23178333D01*
X41574332Y23178333D02*
X41574332Y23878333D01*
X41107666Y23878333D02*
X40974333Y23878333D01*
X40907666Y23845000D01*
X40840999Y23778333D01*
X40807666Y23645000D01*
X40807666Y23411667D01*
X40840999Y23278333D01*
X40907666Y23211667D01*
X40974333Y23178333D01*
X41107666Y23178333D01*
X41174333Y23211667D01*
X41240999Y23278333D01*
X41274333Y23411667D01*
X41274333Y23645000D01*
X41240999Y23778333D01*
X41174333Y23845000D01*
X41107666Y23878333D01*
X47684334Y23211667D02*
X47584334Y23178333D01*
X47417667Y23178333D01*
X47351000Y23211667D01*
X47317667Y23245000D01*
X47284334Y23311667D01*
X47284334Y23378333D01*
X47317667Y23445000D01*
X47351000Y23478333D01*
X47417667Y23511667D01*
X47551000Y23545000D01*
X47617667Y23578333D01*
X47651000Y23611667D01*
X47684334Y23678333D01*
X47684334Y23745000D01*
X47651000Y23811667D01*
X47617667Y23845000D01*
X47551000Y23878333D01*
X47384334Y23878333D01*
X47284334Y23845000D01*
X47051000Y23878333D02*
X46884333Y23178333D01*
X46751000Y23678333D01*
X46617667Y23178333D01*
X46451000Y23878333D01*
X45784333Y23245000D02*
X45817667Y23211667D01*
X45917667Y23178333D01*
X45984333Y23178333D01*
X46084333Y23211667D01*
X46151000Y23278333D01*
X46184333Y23345000D01*
X46217667Y23478333D01*
X46217667Y23578333D01*
X46184333Y23711667D01*
X46151000Y23778333D01*
X46084333Y23845000D01*
X45984333Y23878333D01*
X45917667Y23878333D01*
X45817667Y23845000D01*
X45784333Y23811667D01*
X45151000Y23178333D02*
X45484333Y23178333D01*
X45484333Y23878333D01*
X44917666Y23178333D02*
X44917666Y23878333D01*
X44517666Y23178333D02*
X44817666Y23578333D01*
X44517666Y23878333D02*
X44917666Y23478333D01*
X46634333Y22575000D02*
X46700999Y22608333D01*
X46800999Y22608333D01*
X46900999Y22575000D01*
X46967666Y22508333D01*
X47000999Y22441667D01*
X47034333Y22308333D01*
X47034333Y22208333D01*
X47000999Y22075000D01*
X46967666Y22008333D01*
X46900999Y21941667D01*
X46800999Y21908333D01*
X46734333Y21908333D01*
X46634333Y21941667D01*
X46600999Y21975000D01*
X46600999Y22208333D01*
X46734333Y22208333D01*
X46300999Y21908333D02*
X46300999Y22608333D01*
X45900999Y21908333D01*
X45900999Y22608333D01*
X45567666Y21908333D02*
X45567666Y22608333D01*
X45401000Y22608333D01*
X45301000Y22575000D01*
X45234333Y22508333D01*
X45201000Y22441667D01*
X45167666Y22308333D01*
X45167666Y22208333D01*
X45201000Y22075000D01*
X45234333Y22008333D01*
X45301000Y21941667D01*
X45401000Y21908333D01*
X45567666Y21908333D01*
X42697333Y22608333D02*
X42297333Y22608333D01*
X42497333Y21908333D02*
X42497333Y22608333D01*
X42130667Y22608333D02*
X41664000Y21908333D01*
X41664000Y22608333D02*
X42130667Y21908333D01*
X39232666Y21908333D02*
X39466000Y22241667D01*
X39632666Y21908333D02*
X39632666Y22608333D01*
X39366000Y22608333D01*
X39299333Y22575000D01*
X39266000Y22541667D01*
X39232666Y22475000D01*
X39232666Y22375000D01*
X39266000Y22308333D01*
X39299333Y22275000D01*
X39366000Y22241667D01*
X39632666Y22241667D01*
X38999333Y22608333D02*
X38532666Y21908333D01*
X38532666Y22608333D02*
X38999333Y21908333D01*
X36807667Y22608333D02*
X36374334Y22608333D01*
X36607667Y22341667D01*
X36507667Y22341667D01*
X36441000Y22308333D01*
X36407667Y22275000D01*
X36374334Y22208333D01*
X36374334Y22041667D01*
X36407667Y21975000D01*
X36441000Y21941667D01*
X36507667Y21908333D01*
X36707667Y21908333D01*
X36774334Y21941667D01*
X36807667Y21975000D01*
X36174333Y22608333D02*
X35941000Y21908333D01*
X35707667Y22608333D01*
X35541000Y22608333D02*
X35107667Y22608333D01*
X35341000Y22341667D01*
X35241000Y22341667D01*
X35174333Y22308333D01*
X35141000Y22275000D01*
X35107667Y22208333D01*
X35107667Y22041667D01*
X35141000Y21975000D01*
X35174333Y21941667D01*
X35241000Y21908333D01*
X35441000Y21908333D01*
X35507667Y21941667D01*
X35541000Y21975000D01*
D11*
X31496000Y21590000D02*
X48006000Y21590000D01*
X48006000Y21590000D02*
X48006000Y24130000D01*
X48006000Y24130000D02*
X31496000Y24130000D01*
X31496000Y24130000D02*
X31496000Y21590000D01*
X31496000Y21590000D02*
X31496000Y23495000D01*
X31496000Y22860000D02*
X48006000Y22860000D01*
X44196000Y21717000D02*
X44196000Y24003000D01*
X40386000Y24003000D02*
X40386000Y21717000D01*
X37592000Y24003000D02*
X37592000Y21717000D01*
X34290000Y24003000D02*
X34290000Y21717000D01*
D10*
X33316000Y22275000D02*
X33216000Y22241667D01*
X33182667Y22208333D01*
X33149333Y22141667D01*
X33149333Y22041667D01*
X33182667Y21975000D01*
X33216000Y21941667D01*
X33282667Y21908333D01*
X33549333Y21908333D01*
X33549333Y22608333D01*
X33316000Y22608333D01*
X33249333Y22575000D01*
X33216000Y22541667D01*
X33182667Y22475000D01*
X33182667Y22408333D01*
X33216000Y22341667D01*
X33249333Y22308333D01*
X33316000Y22275000D01*
X33549333Y22275000D01*
X32949333Y22608333D02*
X32549333Y22608333D01*
X32749333Y21908333D02*
X32749333Y22608333D01*
X32182667Y22608333D02*
X32116000Y22608333D01*
X32049334Y22575000D01*
X32016000Y22541667D01*
X31982667Y22475000D01*
X31949334Y22341667D01*
X31949334Y22175000D01*
X31982667Y22041667D01*
X32016000Y21975000D01*
X32049334Y21941667D01*
X32116000Y21908333D01*
X32182667Y21908333D01*
X32249334Y21941667D01*
X32282667Y21975000D01*
X32316000Y22041667D01*
X32349334Y22175000D01*
X32349334Y22341667D01*
X32316000Y22475000D01*
X32282667Y22541667D01*
X32249334Y22575000D01*
X32182667Y22608333D01*
X33632667Y23878333D02*
X33199334Y23878333D01*
X33432667Y23611667D01*
X33332667Y23611667D01*
X33266000Y23578333D01*
X33232667Y23545000D01*
X33199334Y23478333D01*
X33199334Y23311667D01*
X33232667Y23245000D01*
X33266000Y23211667D01*
X33332667Y23178333D01*
X33532667Y23178333D01*
X33599334Y23211667D01*
X33632667Y23245000D01*
X32999333Y23878333D02*
X32766000Y23178333D01*
X32532667Y23878333D01*
X32366000Y23878333D02*
X31932667Y23878333D01*
X32166000Y23611667D01*
X32066000Y23611667D01*
X31999333Y23578333D01*
X31966000Y23545000D01*
X31932667Y23478333D01*
X31932667Y23311667D01*
X31966000Y23245000D01*
X31999333Y23211667D01*
X32066000Y23178333D01*
X32266000Y23178333D01*
X32332667Y23211667D01*
X32366000Y23245000D01*
D12*
X44179619Y12421238D02*
X44036762Y12373619D01*
X43798666Y12373619D01*
X43703428Y12421238D01*
X43655809Y12468857D01*
X43608190Y12564095D01*
X43608190Y12659333D01*
X43655809Y12754571D01*
X43703428Y12802190D01*
X43798666Y12849810D01*
X43989143Y12897429D01*
X44084381Y12945048D01*
X44132000Y12992667D01*
X44179619Y13087905D01*
X44179619Y13183143D01*
X44132000Y13278381D01*
X44084381Y13326000D01*
X43989143Y13373619D01*
X43751047Y13373619D01*
X43608190Y13326000D01*
X43322476Y13373619D02*
X42751047Y13373619D01*
X43036762Y12373619D02*
X43036762Y13373619D01*
X42417714Y12373619D02*
X42417714Y13373619D01*
X42084380Y12659333D01*
X41751047Y13373619D01*
X41751047Y12373619D01*
X41370095Y13373619D02*
X40751047Y13373619D01*
X41084381Y12992667D01*
X40941523Y12992667D01*
X40846285Y12945048D01*
X40798666Y12897429D01*
X40751047Y12802190D01*
X40751047Y12564095D01*
X40798666Y12468857D01*
X40846285Y12421238D01*
X40941523Y12373619D01*
X41227238Y12373619D01*
X41322476Y12421238D01*
X41370095Y12468857D01*
X40370095Y13278381D02*
X40322476Y13326000D01*
X40227238Y13373619D01*
X39989142Y13373619D01*
X39893904Y13326000D01*
X39846285Y13278381D01*
X39798666Y13183143D01*
X39798666Y13087905D01*
X39846285Y12945048D01*
X40417714Y12373619D01*
X39798666Y12373619D01*
X39036761Y12897429D02*
X39370095Y12897429D01*
X39370095Y12373619D02*
X39370095Y13373619D01*
X38893904Y13373619D01*
X38322476Y13373619D02*
X38227237Y13373619D01*
X38131999Y13326000D01*
X38084380Y13278381D01*
X38036761Y13183143D01*
X37989142Y12992667D01*
X37989142Y12754571D01*
X38036761Y12564095D01*
X38084380Y12468857D01*
X38131999Y12421238D01*
X38227237Y12373619D01*
X38322476Y12373619D01*
X38417714Y12421238D01*
X38465333Y12468857D01*
X38512952Y12564095D01*
X38560571Y12754571D01*
X38560571Y12992667D01*
X38512952Y13183143D01*
X38465333Y13278381D01*
X38417714Y13326000D01*
X38322476Y13373619D01*
X37655809Y13373619D02*
X37036761Y13373619D01*
X37370095Y12992667D01*
X37227237Y12992667D01*
X37131999Y12945048D01*
X37084380Y12897429D01*
X37036761Y12802190D01*
X37036761Y12564095D01*
X37084380Y12468857D01*
X37131999Y12421238D01*
X37227237Y12373619D01*
X37512952Y12373619D01*
X37608190Y12421238D01*
X37655809Y12468857D01*
X36417714Y13373619D02*
X36322475Y13373619D01*
X36227237Y13326000D01*
X36179618Y13278381D01*
X36131999Y13183143D01*
X36084380Y12992667D01*
X36084380Y12754571D01*
X36131999Y12564095D01*
X36179618Y12468857D01*
X36227237Y12421238D01*
X36322475Y12373619D01*
X36417714Y12373619D01*
X36512952Y12421238D01*
X36560571Y12468857D01*
X36608190Y12564095D01*
X36655809Y12754571D01*
X36655809Y12992667D01*
X36608190Y13183143D01*
X36560571Y13278381D01*
X36512952Y13326000D01*
X36417714Y13373619D01*
X43560572Y10818857D02*
X43608191Y10771238D01*
X43751048Y10723619D01*
X43846286Y10723619D01*
X43989144Y10771238D01*
X44084382Y10866476D01*
X44132001Y10961714D01*
X44179620Y11152190D01*
X44179620Y11295048D01*
X44132001Y11485524D01*
X44084382Y11580762D01*
X43989144Y11676000D01*
X43846286Y11723619D01*
X43751048Y11723619D01*
X43608191Y11676000D01*
X43560572Y11628381D01*
X42989144Y10723619D02*
X43084382Y10771238D01*
X43132001Y10818857D01*
X43179620Y10914095D01*
X43179620Y11199810D01*
X43132001Y11295048D01*
X43084382Y11342667D01*
X42989144Y11390286D01*
X42846286Y11390286D01*
X42751048Y11342667D01*
X42703429Y11295048D01*
X42655810Y11199810D01*
X42655810Y10914095D01*
X42703429Y10818857D01*
X42751048Y10771238D01*
X42846286Y10723619D01*
X42989144Y10723619D01*
X42227239Y10723619D02*
X42227239Y11390286D01*
X42227239Y11199810D02*
X42179620Y11295048D01*
X42132001Y11342667D01*
X42036763Y11390286D01*
X41941524Y11390286D01*
X41227238Y10771238D02*
X41322476Y10723619D01*
X41512953Y10723619D01*
X41608191Y10771238D01*
X41655810Y10866476D01*
X41655810Y11247429D01*
X41608191Y11342667D01*
X41512953Y11390286D01*
X41322476Y11390286D01*
X41227238Y11342667D01*
X41179619Y11247429D01*
X41179619Y11152190D01*
X41655810Y11056952D01*
X39655809Y11247429D02*
X39512952Y11199810D01*
X39465333Y11152190D01*
X39417714Y11056952D01*
X39417714Y10914095D01*
X39465333Y10818857D01*
X39512952Y10771238D01*
X39608190Y10723619D01*
X39989143Y10723619D01*
X39989143Y11723619D01*
X39655809Y11723619D01*
X39560571Y11676000D01*
X39512952Y11628381D01*
X39465333Y11533143D01*
X39465333Y11437905D01*
X39512952Y11342667D01*
X39560571Y11295048D01*
X39655809Y11247429D01*
X39989143Y11247429D01*
X38846286Y10723619D02*
X38941524Y10771238D01*
X38989143Y10818857D01*
X39036762Y10914095D01*
X39036762Y11199810D01*
X38989143Y11295048D01*
X38941524Y11342667D01*
X38846286Y11390286D01*
X38703428Y11390286D01*
X38608190Y11342667D01*
X38560571Y11295048D01*
X38512952Y11199810D01*
X38512952Y10914095D01*
X38560571Y10818857D01*
X38608190Y10771238D01*
X38703428Y10723619D01*
X38846286Y10723619D01*
X37655809Y10723619D02*
X37655809Y11247429D01*
X37703428Y11342667D01*
X37798666Y11390286D01*
X37989143Y11390286D01*
X38084381Y11342667D01*
X37655809Y10771238D02*
X37751047Y10723619D01*
X37989143Y10723619D01*
X38084381Y10771238D01*
X38132000Y10866476D01*
X38132000Y10961714D01*
X38084381Y11056952D01*
X37989143Y11104571D01*
X37751047Y11104571D01*
X37655809Y11152190D01*
X37179619Y10723619D02*
X37179619Y11390286D01*
X37179619Y11199810D02*
X37132000Y11295048D01*
X37084381Y11342667D01*
X36989143Y11390286D01*
X36893904Y11390286D01*
X36131999Y10723619D02*
X36131999Y11723619D01*
X36131999Y10771238D02*
X36227237Y10723619D01*
X36417714Y10723619D01*
X36512952Y10771238D01*
X36560571Y10818857D01*
X36608190Y10914095D01*
X36608190Y11199810D01*
X36560571Y11295048D01*
X36512952Y11342667D01*
X36417714Y11390286D01*
X36227237Y11390286D01*
X36131999Y11342667D01*
X48251048Y9073619D02*
X48251048Y10073619D01*
X48012953Y10073619D01*
X47870095Y10026000D01*
X47774857Y9930762D01*
X47727238Y9835524D01*
X47679619Y9645048D01*
X47679619Y9502190D01*
X47727238Y9311714D01*
X47774857Y9216476D01*
X47870095Y9121238D01*
X48012953Y9073619D01*
X48251048Y9073619D01*
X46870095Y9121238D02*
X46965333Y9073619D01*
X47155810Y9073619D01*
X47251048Y9121238D01*
X47298667Y9216476D01*
X47298667Y9597429D01*
X47251048Y9692667D01*
X47155810Y9740286D01*
X46965333Y9740286D01*
X46870095Y9692667D01*
X46822476Y9597429D01*
X46822476Y9502190D01*
X47298667Y9406952D01*
X46441524Y9121238D02*
X46346286Y9073619D01*
X46155810Y9073619D01*
X46060571Y9121238D01*
X46012952Y9216476D01*
X46012952Y9264095D01*
X46060571Y9359333D01*
X46155810Y9406952D01*
X46298667Y9406952D01*
X46393905Y9454571D01*
X46441524Y9549810D01*
X46441524Y9597429D01*
X46393905Y9692667D01*
X46298667Y9740286D01*
X46155810Y9740286D01*
X46060571Y9692667D01*
X45584381Y9073619D02*
X45584381Y9740286D01*
X45584381Y10073619D02*
X45632000Y10026000D01*
X45584381Y9978381D01*
X45536762Y10026000D01*
X45584381Y10073619D01*
X45584381Y9978381D01*
X44679619Y9740286D02*
X44679619Y8930762D01*
X44727238Y8835524D01*
X44774857Y8787905D01*
X44870096Y8740286D01*
X45012953Y8740286D01*
X45108191Y8787905D01*
X44679619Y9121238D02*
X44774857Y9073619D01*
X44965334Y9073619D01*
X45060572Y9121238D01*
X45108191Y9168857D01*
X45155810Y9264095D01*
X45155810Y9549810D01*
X45108191Y9645048D01*
X45060572Y9692667D01*
X44965334Y9740286D01*
X44774857Y9740286D01*
X44679619Y9692667D01*
X44203429Y9740286D02*
X44203429Y9073619D01*
X44203429Y9645048D02*
X44155810Y9692667D01*
X44060572Y9740286D01*
X43917714Y9740286D01*
X43822476Y9692667D01*
X43774857Y9597429D01*
X43774857Y9073619D01*
X42917714Y9121238D02*
X43012952Y9073619D01*
X43203429Y9073619D01*
X43298667Y9121238D01*
X43346286Y9216476D01*
X43346286Y9597429D01*
X43298667Y9692667D01*
X43203429Y9740286D01*
X43012952Y9740286D01*
X42917714Y9692667D01*
X42870095Y9597429D01*
X42870095Y9502190D01*
X43346286Y9406952D01*
X42012952Y9073619D02*
X42012952Y10073619D01*
X42012952Y9121238D02*
X42108190Y9073619D01*
X42298667Y9073619D01*
X42393905Y9121238D01*
X42441524Y9168857D01*
X42489143Y9264095D01*
X42489143Y9549810D01*
X42441524Y9645048D01*
X42393905Y9692667D01*
X42298667Y9740286D01*
X42108190Y9740286D01*
X42012952Y9692667D01*
X40774857Y9073619D02*
X40774857Y10073619D01*
X40774857Y9692667D02*
X40679619Y9740286D01*
X40489142Y9740286D01*
X40393904Y9692667D01*
X40346285Y9645048D01*
X40298666Y9549810D01*
X40298666Y9264095D01*
X40346285Y9168857D01*
X40393904Y9121238D01*
X40489142Y9073619D01*
X40679619Y9073619D01*
X40774857Y9121238D01*
X39965333Y9740286D02*
X39727238Y9073619D01*
X39489142Y9740286D02*
X39727238Y9073619D01*
X39822476Y8835524D01*
X39870095Y8787905D01*
X39965333Y8740286D01*
X38346285Y9073619D02*
X38346285Y10073619D01*
X38346285Y9597429D02*
X37774856Y9597429D01*
X37774856Y9073619D02*
X37774856Y10073619D01*
X37393904Y10073619D02*
X37155809Y9073619D01*
X36965332Y9787905D01*
X36774856Y9073619D01*
X36536761Y10073619D01*
X35489142Y10073619D02*
X35251047Y9073619D01*
X35060570Y9787905D01*
X34870094Y9073619D01*
X34631999Y10073619D01*
X34108190Y9073619D02*
X34203428Y9121238D01*
X34251047Y9168857D01*
X34298666Y9264095D01*
X34298666Y9549810D01*
X34251047Y9645048D01*
X34203428Y9692667D01*
X34108190Y9740286D01*
X33965332Y9740286D01*
X33870094Y9692667D01*
X33822475Y9645048D01*
X33774856Y9549810D01*
X33774856Y9264095D01*
X33822475Y9168857D01*
X33870094Y9121238D01*
X33965332Y9073619D01*
X34108190Y9073619D01*
X33346285Y9740286D02*
X33346285Y9073619D01*
X33346285Y9645048D02*
X33298666Y9692667D01*
X33203428Y9740286D01*
X33060570Y9740286D01*
X32965332Y9692667D01*
X32917713Y9597429D01*
X32917713Y9073619D01*
X32012951Y9740286D02*
X32012951Y8930762D01*
X32060570Y8835524D01*
X32108189Y8787905D01*
X32203428Y8740286D01*
X32346285Y8740286D01*
X32441523Y8787905D01*
X32012951Y9121238D02*
X32108189Y9073619D01*
X32298666Y9073619D01*
X32393904Y9121238D01*
X32441523Y9168857D01*
X32489142Y9264095D01*
X32489142Y9549810D01*
X32441523Y9645048D01*
X32393904Y9692667D01*
X32298666Y9740286D01*
X32108189Y9740286D01*
X32012951Y9692667D01*
D13*
X46361143Y3854095D02*
X46627810Y4235048D01*
X46818286Y3854095D02*
X46818286Y4654095D01*
X46513524Y4654095D01*
X46437333Y4616000D01*
X46399238Y4577905D01*
X46361143Y4501714D01*
X46361143Y4387429D01*
X46399238Y4311238D01*
X46437333Y4273143D01*
X46513524Y4235048D01*
X46818286Y4235048D01*
X45713524Y3892190D02*
X45789714Y3854095D01*
X45942095Y3854095D01*
X46018286Y3892190D01*
X46056381Y3968381D01*
X46056381Y4273143D01*
X46018286Y4349333D01*
X45942095Y4387429D01*
X45789714Y4387429D01*
X45713524Y4349333D01*
X45675429Y4273143D01*
X45675429Y4196952D01*
X46056381Y4120762D01*
X45408762Y4387429D02*
X45218286Y3854095D01*
X45027810Y4387429D01*
X43694476Y3854095D02*
X44151619Y3854095D01*
X43923048Y3854095D02*
X43923048Y4654095D01*
X43999238Y4539810D01*
X44075429Y4463619D01*
X44151619Y4425524D01*
X43351619Y3930286D02*
X43313524Y3892190D01*
X43351619Y3854095D01*
X43389714Y3892190D01*
X43351619Y3930286D01*
X43351619Y3854095D01*
X42818286Y4654095D02*
X42742095Y4654095D01*
X42665905Y4616000D01*
X42627810Y4577905D01*
X42589714Y4501714D01*
X42551619Y4349333D01*
X42551619Y4158857D01*
X42589714Y4006476D01*
X42627810Y3930286D01*
X42665905Y3892190D01*
X42742095Y3854095D01*
X42818286Y3854095D01*
X42894476Y3892190D01*
X42932572Y3930286D01*
X42970667Y4006476D01*
X43008762Y4158857D01*
X43008762Y4349333D01*
X42970667Y4501714D01*
X42932572Y4577905D01*
X42894476Y4616000D01*
X42818286Y4654095D01*
X47618286Y2534095D02*
X47618286Y3334095D01*
X47427810Y3334095D01*
X47313524Y3296000D01*
X47237333Y3219810D01*
X47199238Y3143619D01*
X47161143Y2991238D01*
X47161143Y2876952D01*
X47199238Y2724571D01*
X47237333Y2648381D01*
X47313524Y2572190D01*
X47427810Y2534095D01*
X47618286Y2534095D01*
X46513524Y2572190D02*
X46589714Y2534095D01*
X46742095Y2534095D01*
X46818286Y2572190D01*
X46856381Y2648381D01*
X46856381Y2953143D01*
X46818286Y3029333D01*
X46742095Y3067429D01*
X46589714Y3067429D01*
X46513524Y3029333D01*
X46475429Y2953143D01*
X46475429Y2876952D01*
X46856381Y2800762D01*
X45789715Y2572190D02*
X45865905Y2534095D01*
X46018286Y2534095D01*
X46094477Y2572190D01*
X46132572Y2610286D01*
X46170667Y2686476D01*
X46170667Y2915048D01*
X46132572Y2991238D01*
X46094477Y3029333D01*
X46018286Y3067429D01*
X45865905Y3067429D01*
X45789715Y3029333D01*
X45446858Y2838857D02*
X44837334Y2838857D01*
X44494477Y3257905D02*
X44456382Y3296000D01*
X44380191Y3334095D01*
X44189715Y3334095D01*
X44113525Y3296000D01*
X44075429Y3257905D01*
X44037334Y3181714D01*
X44037334Y3105524D01*
X44075429Y2991238D01*
X44532572Y2534095D01*
X44037334Y2534095D01*
X43542096Y3334095D02*
X43465905Y3334095D01*
X43389715Y3296000D01*
X43351620Y3257905D01*
X43313524Y3181714D01*
X43275429Y3029333D01*
X43275429Y2838857D01*
X43313524Y2686476D01*
X43351620Y2610286D01*
X43389715Y2572190D01*
X43465905Y2534095D01*
X43542096Y2534095D01*
X43618286Y2572190D01*
X43656382Y2610286D01*
X43694477Y2686476D01*
X43732572Y2838857D01*
X43732572Y3029333D01*
X43694477Y3181714D01*
X43656382Y3257905D01*
X43618286Y3296000D01*
X43542096Y3334095D01*
X42513524Y2534095D02*
X42970667Y2534095D01*
X42742096Y2534095D02*
X42742096Y3334095D01*
X42818286Y3219810D01*
X42894477Y3143619D01*
X42970667Y3105524D01*
X41789714Y3334095D02*
X42170667Y3334095D01*
X42208762Y2953143D01*
X42170667Y2991238D01*
X42094476Y3029333D01*
X41904000Y3029333D01*
X41827810Y2991238D01*
X41789714Y2953143D01*
X41751619Y2876952D01*
X41751619Y2686476D01*
X41789714Y2610286D01*
X41827810Y2572190D01*
X41904000Y2534095D01*
X42094476Y2534095D01*
X42170667Y2572190D01*
X42208762Y2610286D01*
D10*
X36807667Y55374333D02*
X36374334Y55374333D01*
X36607667Y55107667D01*
X36507667Y55107667D01*
X36441000Y55074333D01*
X36407667Y55041000D01*
X36374334Y54974333D01*
X36374334Y54807667D01*
X36407667Y54741000D01*
X36441000Y54707667D01*
X36507667Y54674333D01*
X36707667Y54674333D01*
X36774334Y54707667D01*
X36807667Y54741000D01*
X36174333Y55374333D02*
X35941000Y54674333D01*
X35707667Y55374333D01*
X35541000Y55374333D02*
X35107667Y55374333D01*
X35341000Y55107667D01*
X35241000Y55107667D01*
X35174333Y55074333D01*
X35141000Y55041000D01*
X35107667Y54974333D01*
X35107667Y54807667D01*
X35141000Y54741000D01*
X35174333Y54707667D01*
X35241000Y54674333D01*
X35441000Y54674333D01*
X35507667Y54707667D01*
X35541000Y54741000D01*
X39649333Y55341000D02*
X39715999Y55374333D01*
X39815999Y55374333D01*
X39915999Y55341000D01*
X39982666Y55274333D01*
X40015999Y55207667D01*
X40049333Y55074333D01*
X40049333Y54974333D01*
X40015999Y54841000D01*
X39982666Y54774333D01*
X39915999Y54707667D01*
X39815999Y54674333D01*
X39749333Y54674333D01*
X39649333Y54707667D01*
X39615999Y54741000D01*
X39615999Y54974333D01*
X39749333Y54974333D01*
X39315999Y54674333D02*
X39315999Y55374333D01*
X38915999Y54674333D01*
X38915999Y55374333D01*
X38582666Y54674333D02*
X38582666Y55374333D01*
X38416000Y55374333D01*
X38316000Y55341000D01*
X38249333Y55274333D01*
X38216000Y55207667D01*
X38182666Y55074333D01*
X38182666Y54974333D01*
X38216000Y54841000D01*
X38249333Y54774333D01*
X38316000Y54707667D01*
X38416000Y54674333D01*
X38582666Y54674333D01*
X43774333Y54707667D02*
X43674333Y54674333D01*
X43507666Y54674333D01*
X43440999Y54707667D01*
X43407666Y54741000D01*
X43374333Y54807667D01*
X43374333Y54874333D01*
X43407666Y54941000D01*
X43440999Y54974333D01*
X43507666Y55007667D01*
X43640999Y55041000D01*
X43707666Y55074333D01*
X43740999Y55107667D01*
X43774333Y55174333D01*
X43774333Y55241000D01*
X43740999Y55307667D01*
X43707666Y55341000D01*
X43640999Y55374333D01*
X43474333Y55374333D01*
X43374333Y55341000D01*
X43140999Y55374333D02*
X42974332Y54674333D01*
X42840999Y55174333D01*
X42707666Y54674333D01*
X42540999Y55374333D01*
X42274332Y54674333D02*
X42274332Y55374333D01*
X42107666Y55374333D01*
X42007666Y55341000D01*
X41940999Y55274333D01*
X41907666Y55207667D01*
X41874332Y55074333D01*
X41874332Y54974333D01*
X41907666Y54841000D01*
X41940999Y54774333D01*
X42007666Y54707667D01*
X42107666Y54674333D01*
X42274332Y54674333D01*
X41574332Y54674333D02*
X41574332Y55374333D01*
X41107666Y55374333D02*
X40974333Y55374333D01*
X40907666Y55341000D01*
X40840999Y55274333D01*
X40807666Y55141000D01*
X40807666Y54907667D01*
X40840999Y54774333D01*
X40907666Y54707667D01*
X40974333Y54674333D01*
X41107666Y54674333D01*
X41174333Y54707667D01*
X41240999Y54774333D01*
X41274333Y54907667D01*
X41274333Y55141000D01*
X41240999Y55274333D01*
X41174333Y55341000D01*
X41107666Y55374333D01*
X47684334Y54707667D02*
X47584334Y54674333D01*
X47417667Y54674333D01*
X47351000Y54707667D01*
X47317667Y54741000D01*
X47284334Y54807667D01*
X47284334Y54874333D01*
X47317667Y54941000D01*
X47351000Y54974333D01*
X47417667Y55007667D01*
X47551000Y55041000D01*
X47617667Y55074333D01*
X47651000Y55107667D01*
X47684334Y55174333D01*
X47684334Y55241000D01*
X47651000Y55307667D01*
X47617667Y55341000D01*
X47551000Y55374333D01*
X47384334Y55374333D01*
X47284334Y55341000D01*
X47051000Y55374333D02*
X46884333Y54674333D01*
X46751000Y55174333D01*
X46617667Y54674333D01*
X46451000Y55374333D01*
X45784333Y54741000D02*
X45817667Y54707667D01*
X45917667Y54674333D01*
X45984333Y54674333D01*
X46084333Y54707667D01*
X46151000Y54774333D01*
X46184333Y54841000D01*
X46217667Y54974333D01*
X46217667Y55074333D01*
X46184333Y55207667D01*
X46151000Y55274333D01*
X46084333Y55341000D01*
X45984333Y55374333D01*
X45917667Y55374333D01*
X45817667Y55341000D01*
X45784333Y55307667D01*
X45151000Y54674333D02*
X45484333Y54674333D01*
X45484333Y55374333D01*
X44917666Y54674333D02*
X44917666Y55374333D01*
X44517666Y54674333D02*
X44817666Y55074333D01*
X44517666Y55374333D02*
X44917666Y54974333D01*
X46634333Y54071000D02*
X46700999Y54104333D01*
X46800999Y54104333D01*
X46900999Y54071000D01*
X46967666Y54004333D01*
X47000999Y53937667D01*
X47034333Y53804333D01*
X47034333Y53704333D01*
X47000999Y53571000D01*
X46967666Y53504333D01*
X46900999Y53437667D01*
X46800999Y53404333D01*
X46734333Y53404333D01*
X46634333Y53437667D01*
X46600999Y53471000D01*
X46600999Y53704333D01*
X46734333Y53704333D01*
X46300999Y53404333D02*
X46300999Y54104333D01*
X45900999Y53404333D01*
X45900999Y54104333D01*
X45567666Y53404333D02*
X45567666Y54104333D01*
X45401000Y54104333D01*
X45301000Y54071000D01*
X45234333Y54004333D01*
X45201000Y53937667D01*
X45167666Y53804333D01*
X45167666Y53704333D01*
X45201000Y53571000D01*
X45234333Y53504333D01*
X45301000Y53437667D01*
X45401000Y53404333D01*
X45567666Y53404333D01*
X42697333Y54104333D02*
X42297333Y54104333D01*
X42497333Y53404333D02*
X42497333Y54104333D01*
X42130667Y54104333D02*
X41664000Y53404333D01*
X41664000Y54104333D02*
X42130667Y53404333D01*
X39232666Y53404333D02*
X39466000Y53737667D01*
X39632666Y53404333D02*
X39632666Y54104333D01*
X39366000Y54104333D01*
X39299333Y54071000D01*
X39266000Y54037667D01*
X39232666Y53971000D01*
X39232666Y53871000D01*
X39266000Y53804333D01*
X39299333Y53771000D01*
X39366000Y53737667D01*
X39632666Y53737667D01*
X38999333Y54104333D02*
X38532666Y53404333D01*
X38532666Y54104333D02*
X38999333Y53404333D01*
X36807667Y54104333D02*
X36374334Y54104333D01*
X36607667Y53837667D01*
X36507667Y53837667D01*
X36441000Y53804333D01*
X36407667Y53771000D01*
X36374334Y53704333D01*
X36374334Y53537667D01*
X36407667Y53471000D01*
X36441000Y53437667D01*
X36507667Y53404333D01*
X36707667Y53404333D01*
X36774334Y53437667D01*
X36807667Y53471000D01*
X36174333Y54104333D02*
X35941000Y53404333D01*
X35707667Y54104333D01*
X35541000Y54104333D02*
X35107667Y54104333D01*
X35341000Y53837667D01*
X35241000Y53837667D01*
X35174333Y53804333D01*
X35141000Y53771000D01*
X35107667Y53704333D01*
X35107667Y53537667D01*
X35141000Y53471000D01*
X35174333Y53437667D01*
X35241000Y53404333D01*
X35441000Y53404333D01*
X35507667Y53437667D01*
X35541000Y53471000D01*
D11*
X31496000Y53086000D02*
X48006000Y53086000D01*
X48006000Y53086000D02*
X48006000Y55626000D01*
X48006000Y55626000D02*
X31496000Y55626000D01*
X31496000Y55626000D02*
X31496000Y53086000D01*
X31496000Y53086000D02*
X31496000Y54991000D01*
X31496000Y54356000D02*
X48006000Y54356000D01*
X44196000Y53213000D02*
X44196000Y55499000D01*
X40386000Y55499000D02*
X40386000Y53213000D01*
X37592000Y55499000D02*
X37592000Y53213000D01*
X34290000Y55499000D02*
X34290000Y53213000D01*
D10*
X33316000Y53771000D02*
X33216000Y53737667D01*
X33182667Y53704333D01*
X33149333Y53637667D01*
X33149333Y53537667D01*
X33182667Y53471000D01*
X33216000Y53437667D01*
X33282667Y53404333D01*
X33549333Y53404333D01*
X33549333Y54104333D01*
X33316000Y54104333D01*
X33249333Y54071000D01*
X33216000Y54037667D01*
X33182667Y53971000D01*
X33182667Y53904333D01*
X33216000Y53837667D01*
X33249333Y53804333D01*
X33316000Y53771000D01*
X33549333Y53771000D01*
X32949333Y54104333D02*
X32549333Y54104333D01*
X32749333Y53404333D02*
X32749333Y54104333D01*
X32182667Y54104333D02*
X32116000Y54104333D01*
X32049334Y54071000D01*
X32016000Y54037667D01*
X31982667Y53971000D01*
X31949334Y53837667D01*
X31949334Y53671000D01*
X31982667Y53537667D01*
X32016000Y53471000D01*
X32049334Y53437667D01*
X32116000Y53404333D01*
X32182667Y53404333D01*
X32249334Y53437667D01*
X32282667Y53471000D01*
X32316000Y53537667D01*
X32349334Y53671000D01*
X32349334Y53837667D01*
X32316000Y53971000D01*
X32282667Y54037667D01*
X32249334Y54071000D01*
X32182667Y54104333D01*
X33632667Y55374333D02*
X33199334Y55374333D01*
X33432667Y55107667D01*
X33332667Y55107667D01*
X33266000Y55074333D01*
X33232667Y55041000D01*
X33199334Y54974333D01*
X33199334Y54807667D01*
X33232667Y54741000D01*
X33266000Y54707667D01*
X33332667Y54674333D01*
X33532667Y54674333D01*
X33599334Y54707667D01*
X33632667Y54741000D01*
X32999333Y55374333D02*
X32766000Y54674333D01*
X32532667Y55374333D01*
X32366000Y55374333D02*
X31932667Y55374333D01*
X32166000Y55107667D01*
X32066000Y55107667D01*
X31999333Y55074333D01*
X31966000Y55041000D01*
X31932667Y54974333D01*
X31932667Y54807667D01*
X31966000Y54741000D01*
X31999333Y54707667D01*
X32066000Y54674333D01*
X32266000Y54674333D01*
X32332667Y54707667D01*
X32366000Y54741000D01*
D12*
X44179619Y43917238D02*
X44036762Y43869619D01*
X43798666Y43869619D01*
X43703428Y43917238D01*
X43655809Y43964857D01*
X43608190Y44060095D01*
X43608190Y44155333D01*
X43655809Y44250571D01*
X43703428Y44298190D01*
X43798666Y44345810D01*
X43989143Y44393429D01*
X44084381Y44441048D01*
X44132000Y44488667D01*
X44179619Y44583905D01*
X44179619Y44679143D01*
X44132000Y44774381D01*
X44084381Y44822000D01*
X43989143Y44869619D01*
X43751047Y44869619D01*
X43608190Y44822000D01*
X43322476Y44869619D02*
X42751047Y44869619D01*
X43036762Y43869619D02*
X43036762Y44869619D01*
X42417714Y43869619D02*
X42417714Y44869619D01*
X42084380Y44155333D01*
X41751047Y44869619D01*
X41751047Y43869619D01*
X41370095Y44869619D02*
X40751047Y44869619D01*
X41084381Y44488667D01*
X40941523Y44488667D01*
X40846285Y44441048D01*
X40798666Y44393429D01*
X40751047Y44298190D01*
X40751047Y44060095D01*
X40798666Y43964857D01*
X40846285Y43917238D01*
X40941523Y43869619D01*
X41227238Y43869619D01*
X41322476Y43917238D01*
X41370095Y43964857D01*
X40370095Y44774381D02*
X40322476Y44822000D01*
X40227238Y44869619D01*
X39989142Y44869619D01*
X39893904Y44822000D01*
X39846285Y44774381D01*
X39798666Y44679143D01*
X39798666Y44583905D01*
X39846285Y44441048D01*
X40417714Y43869619D01*
X39798666Y43869619D01*
X39036761Y44393429D02*
X39370095Y44393429D01*
X39370095Y43869619D02*
X39370095Y44869619D01*
X38893904Y44869619D01*
X38322476Y44869619D02*
X38227237Y44869619D01*
X38131999Y44822000D01*
X38084380Y44774381D01*
X38036761Y44679143D01*
X37989142Y44488667D01*
X37989142Y44250571D01*
X38036761Y44060095D01*
X38084380Y43964857D01*
X38131999Y43917238D01*
X38227237Y43869619D01*
X38322476Y43869619D01*
X38417714Y43917238D01*
X38465333Y43964857D01*
X38512952Y44060095D01*
X38560571Y44250571D01*
X38560571Y44488667D01*
X38512952Y44679143D01*
X38465333Y44774381D01*
X38417714Y44822000D01*
X38322476Y44869619D01*
X37655809Y44869619D02*
X37036761Y44869619D01*
X37370095Y44488667D01*
X37227237Y44488667D01*
X37131999Y44441048D01*
X37084380Y44393429D01*
X37036761Y44298190D01*
X37036761Y44060095D01*
X37084380Y43964857D01*
X37131999Y43917238D01*
X37227237Y43869619D01*
X37512952Y43869619D01*
X37608190Y43917238D01*
X37655809Y43964857D01*
X36417714Y44869619D02*
X36322475Y44869619D01*
X36227237Y44822000D01*
X36179618Y44774381D01*
X36131999Y44679143D01*
X36084380Y44488667D01*
X36084380Y44250571D01*
X36131999Y44060095D01*
X36179618Y43964857D01*
X36227237Y43917238D01*
X36322475Y43869619D01*
X36417714Y43869619D01*
X36512952Y43917238D01*
X36560571Y43964857D01*
X36608190Y44060095D01*
X36655809Y44250571D01*
X36655809Y44488667D01*
X36608190Y44679143D01*
X36560571Y44774381D01*
X36512952Y44822000D01*
X36417714Y44869619D01*
X43560572Y42314857D02*
X43608191Y42267238D01*
X43751048Y42219619D01*
X43846286Y42219619D01*
X43989144Y42267238D01*
X44084382Y42362476D01*
X44132001Y42457714D01*
X44179620Y42648190D01*
X44179620Y42791048D01*
X44132001Y42981524D01*
X44084382Y43076762D01*
X43989144Y43172000D01*
X43846286Y43219619D01*
X43751048Y43219619D01*
X43608191Y43172000D01*
X43560572Y43124381D01*
X42989144Y42219619D02*
X43084382Y42267238D01*
X43132001Y42314857D01*
X43179620Y42410095D01*
X43179620Y42695810D01*
X43132001Y42791048D01*
X43084382Y42838667D01*
X42989144Y42886286D01*
X42846286Y42886286D01*
X42751048Y42838667D01*
X42703429Y42791048D01*
X42655810Y42695810D01*
X42655810Y42410095D01*
X42703429Y42314857D01*
X42751048Y42267238D01*
X42846286Y42219619D01*
X42989144Y42219619D01*
X42227239Y42219619D02*
X42227239Y42886286D01*
X42227239Y42695810D02*
X42179620Y42791048D01*
X42132001Y42838667D01*
X42036763Y42886286D01*
X41941524Y42886286D01*
X41227238Y42267238D02*
X41322476Y42219619D01*
X41512953Y42219619D01*
X41608191Y42267238D01*
X41655810Y42362476D01*
X41655810Y42743429D01*
X41608191Y42838667D01*
X41512953Y42886286D01*
X41322476Y42886286D01*
X41227238Y42838667D01*
X41179619Y42743429D01*
X41179619Y42648190D01*
X41655810Y42552952D01*
X39655809Y42743429D02*
X39512952Y42695810D01*
X39465333Y42648190D01*
X39417714Y42552952D01*
X39417714Y42410095D01*
X39465333Y42314857D01*
X39512952Y42267238D01*
X39608190Y42219619D01*
X39989143Y42219619D01*
X39989143Y43219619D01*
X39655809Y43219619D01*
X39560571Y43172000D01*
X39512952Y43124381D01*
X39465333Y43029143D01*
X39465333Y42933905D01*
X39512952Y42838667D01*
X39560571Y42791048D01*
X39655809Y42743429D01*
X39989143Y42743429D01*
X38846286Y42219619D02*
X38941524Y42267238D01*
X38989143Y42314857D01*
X39036762Y42410095D01*
X39036762Y42695810D01*
X38989143Y42791048D01*
X38941524Y42838667D01*
X38846286Y42886286D01*
X38703428Y42886286D01*
X38608190Y42838667D01*
X38560571Y42791048D01*
X38512952Y42695810D01*
X38512952Y42410095D01*
X38560571Y42314857D01*
X38608190Y42267238D01*
X38703428Y42219619D01*
X38846286Y42219619D01*
X37655809Y42219619D02*
X37655809Y42743429D01*
X37703428Y42838667D01*
X37798666Y42886286D01*
X37989143Y42886286D01*
X38084381Y42838667D01*
X37655809Y42267238D02*
X37751047Y42219619D01*
X37989143Y42219619D01*
X38084381Y42267238D01*
X38132000Y42362476D01*
X38132000Y42457714D01*
X38084381Y42552952D01*
X37989143Y42600571D01*
X37751047Y42600571D01*
X37655809Y42648190D01*
X37179619Y42219619D02*
X37179619Y42886286D01*
X37179619Y42695810D02*
X37132000Y42791048D01*
X37084381Y42838667D01*
X36989143Y42886286D01*
X36893904Y42886286D01*
X36131999Y42219619D02*
X36131999Y43219619D01*
X36131999Y42267238D02*
X36227237Y42219619D01*
X36417714Y42219619D01*
X36512952Y42267238D01*
X36560571Y42314857D01*
X36608190Y42410095D01*
X36608190Y42695810D01*
X36560571Y42791048D01*
X36512952Y42838667D01*
X36417714Y42886286D01*
X36227237Y42886286D01*
X36131999Y42838667D01*
X48251048Y40569619D02*
X48251048Y41569619D01*
X48012953Y41569619D01*
X47870095Y41522000D01*
X47774857Y41426762D01*
X47727238Y41331524D01*
X47679619Y41141048D01*
X47679619Y40998190D01*
X47727238Y40807714D01*
X47774857Y40712476D01*
X47870095Y40617238D01*
X48012953Y40569619D01*
X48251048Y40569619D01*
X46870095Y40617238D02*
X46965333Y40569619D01*
X47155810Y40569619D01*
X47251048Y40617238D01*
X47298667Y40712476D01*
X47298667Y41093429D01*
X47251048Y41188667D01*
X47155810Y41236286D01*
X46965333Y41236286D01*
X46870095Y41188667D01*
X46822476Y41093429D01*
X46822476Y40998190D01*
X47298667Y40902952D01*
X46441524Y40617238D02*
X46346286Y40569619D01*
X46155810Y40569619D01*
X46060571Y40617238D01*
X46012952Y40712476D01*
X46012952Y40760095D01*
X46060571Y40855333D01*
X46155810Y40902952D01*
X46298667Y40902952D01*
X46393905Y40950571D01*
X46441524Y41045810D01*
X46441524Y41093429D01*
X46393905Y41188667D01*
X46298667Y41236286D01*
X46155810Y41236286D01*
X46060571Y41188667D01*
X45584381Y40569619D02*
X45584381Y41236286D01*
X45584381Y41569619D02*
X45632000Y41522000D01*
X45584381Y41474381D01*
X45536762Y41522000D01*
X45584381Y41569619D01*
X45584381Y41474381D01*
X44679619Y41236286D02*
X44679619Y40426762D01*
X44727238Y40331524D01*
X44774857Y40283905D01*
X44870096Y40236286D01*
X45012953Y40236286D01*
X45108191Y40283905D01*
X44679619Y40617238D02*
X44774857Y40569619D01*
X44965334Y40569619D01*
X45060572Y40617238D01*
X45108191Y40664857D01*
X45155810Y40760095D01*
X45155810Y41045810D01*
X45108191Y41141048D01*
X45060572Y41188667D01*
X44965334Y41236286D01*
X44774857Y41236286D01*
X44679619Y41188667D01*
X44203429Y41236286D02*
X44203429Y40569619D01*
X44203429Y41141048D02*
X44155810Y41188667D01*
X44060572Y41236286D01*
X43917714Y41236286D01*
X43822476Y41188667D01*
X43774857Y41093429D01*
X43774857Y40569619D01*
X42917714Y40617238D02*
X43012952Y40569619D01*
X43203429Y40569619D01*
X43298667Y40617238D01*
X43346286Y40712476D01*
X43346286Y41093429D01*
X43298667Y41188667D01*
X43203429Y41236286D01*
X43012952Y41236286D01*
X42917714Y41188667D01*
X42870095Y41093429D01*
X42870095Y40998190D01*
X43346286Y40902952D01*
X42012952Y40569619D02*
X42012952Y41569619D01*
X42012952Y40617238D02*
X42108190Y40569619D01*
X42298667Y40569619D01*
X42393905Y40617238D01*
X42441524Y40664857D01*
X42489143Y40760095D01*
X42489143Y41045810D01*
X42441524Y41141048D01*
X42393905Y41188667D01*
X42298667Y41236286D01*
X42108190Y41236286D01*
X42012952Y41188667D01*
X40774857Y40569619D02*
X40774857Y41569619D01*
X40774857Y41188667D02*
X40679619Y41236286D01*
X40489142Y41236286D01*
X40393904Y41188667D01*
X40346285Y41141048D01*
X40298666Y41045810D01*
X40298666Y40760095D01*
X40346285Y40664857D01*
X40393904Y40617238D01*
X40489142Y40569619D01*
X40679619Y40569619D01*
X40774857Y40617238D01*
X39965333Y41236286D02*
X39727238Y40569619D01*
X39489142Y41236286D02*
X39727238Y40569619D01*
X39822476Y40331524D01*
X39870095Y40283905D01*
X39965333Y40236286D01*
X38346285Y40569619D02*
X38346285Y41569619D01*
X38346285Y41093429D02*
X37774856Y41093429D01*
X37774856Y40569619D02*
X37774856Y41569619D01*
X37393904Y41569619D02*
X37155809Y40569619D01*
X36965332Y41283905D01*
X36774856Y40569619D01*
X36536761Y41569619D01*
X35489142Y41569619D02*
X35251047Y40569619D01*
X35060570Y41283905D01*
X34870094Y40569619D01*
X34631999Y41569619D01*
X34108190Y40569619D02*
X34203428Y40617238D01*
X34251047Y40664857D01*
X34298666Y40760095D01*
X34298666Y41045810D01*
X34251047Y41141048D01*
X34203428Y41188667D01*
X34108190Y41236286D01*
X33965332Y41236286D01*
X33870094Y41188667D01*
X33822475Y41141048D01*
X33774856Y41045810D01*
X33774856Y40760095D01*
X33822475Y40664857D01*
X33870094Y40617238D01*
X33965332Y40569619D01*
X34108190Y40569619D01*
X33346285Y41236286D02*
X33346285Y40569619D01*
X33346285Y41141048D02*
X33298666Y41188667D01*
X33203428Y41236286D01*
X33060570Y41236286D01*
X32965332Y41188667D01*
X32917713Y41093429D01*
X32917713Y40569619D01*
X32012951Y41236286D02*
X32012951Y40426762D01*
X32060570Y40331524D01*
X32108189Y40283905D01*
X32203428Y40236286D01*
X32346285Y40236286D01*
X32441523Y40283905D01*
X32012951Y40617238D02*
X32108189Y40569619D01*
X32298666Y40569619D01*
X32393904Y40617238D01*
X32441523Y40664857D01*
X32489142Y40760095D01*
X32489142Y41045810D01*
X32441523Y41141048D01*
X32393904Y41188667D01*
X32298666Y41236286D01*
X32108189Y41236286D01*
X32012951Y41188667D01*
D13*
X46361143Y35350095D02*
X46627810Y35731048D01*
X46818286Y35350095D02*
X46818286Y36150095D01*
X46513524Y36150095D01*
X46437333Y36112000D01*
X46399238Y36073905D01*
X46361143Y35997714D01*
X46361143Y35883429D01*
X46399238Y35807238D01*
X46437333Y35769143D01*
X46513524Y35731048D01*
X46818286Y35731048D01*
X45713524Y35388190D02*
X45789714Y35350095D01*
X45942095Y35350095D01*
X46018286Y35388190D01*
X46056381Y35464381D01*
X46056381Y35769143D01*
X46018286Y35845333D01*
X45942095Y35883429D01*
X45789714Y35883429D01*
X45713524Y35845333D01*
X45675429Y35769143D01*
X45675429Y35692952D01*
X46056381Y35616762D01*
X45408762Y35883429D02*
X45218286Y35350095D01*
X45027810Y35883429D01*
X43694476Y35350095D02*
X44151619Y35350095D01*
X43923048Y35350095D02*
X43923048Y36150095D01*
X43999238Y36035810D01*
X44075429Y35959619D01*
X44151619Y35921524D01*
X43351619Y35426286D02*
X43313524Y35388190D01*
X43351619Y35350095D01*
X43389714Y35388190D01*
X43351619Y35426286D01*
X43351619Y35350095D01*
X42818286Y36150095D02*
X42742095Y36150095D01*
X42665905Y36112000D01*
X42627810Y36073905D01*
X42589714Y35997714D01*
X42551619Y35845333D01*
X42551619Y35654857D01*
X42589714Y35502476D01*
X42627810Y35426286D01*
X42665905Y35388190D01*
X42742095Y35350095D01*
X42818286Y35350095D01*
X42894476Y35388190D01*
X42932572Y35426286D01*
X42970667Y35502476D01*
X43008762Y35654857D01*
X43008762Y35845333D01*
X42970667Y35997714D01*
X42932572Y36073905D01*
X42894476Y36112000D01*
X42818286Y36150095D01*
X47618286Y34030095D02*
X47618286Y34830095D01*
X47427810Y34830095D01*
X47313524Y34792000D01*
X47237333Y34715810D01*
X47199238Y34639619D01*
X47161143Y34487238D01*
X47161143Y34372952D01*
X47199238Y34220571D01*
X47237333Y34144381D01*
X47313524Y34068190D01*
X47427810Y34030095D01*
X47618286Y34030095D01*
X46513524Y34068190D02*
X46589714Y34030095D01*
X46742095Y34030095D01*
X46818286Y34068190D01*
X46856381Y34144381D01*
X46856381Y34449143D01*
X46818286Y34525333D01*
X46742095Y34563429D01*
X46589714Y34563429D01*
X46513524Y34525333D01*
X46475429Y34449143D01*
X46475429Y34372952D01*
X46856381Y34296762D01*
X45789715Y34068190D02*
X45865905Y34030095D01*
X46018286Y34030095D01*
X46094477Y34068190D01*
X46132572Y34106286D01*
X46170667Y34182476D01*
X46170667Y34411048D01*
X46132572Y34487238D01*
X46094477Y34525333D01*
X46018286Y34563429D01*
X45865905Y34563429D01*
X45789715Y34525333D01*
X45446858Y34334857D02*
X44837334Y34334857D01*
X44494477Y34753905D02*
X44456382Y34792000D01*
X44380191Y34830095D01*
X44189715Y34830095D01*
X44113525Y34792000D01*
X44075429Y34753905D01*
X44037334Y34677714D01*
X44037334Y34601524D01*
X44075429Y34487238D01*
X44532572Y34030095D01*
X44037334Y34030095D01*
X43542096Y34830095D02*
X43465905Y34830095D01*
X43389715Y34792000D01*
X43351620Y34753905D01*
X43313524Y34677714D01*
X43275429Y34525333D01*
X43275429Y34334857D01*
X43313524Y34182476D01*
X43351620Y34106286D01*
X43389715Y34068190D01*
X43465905Y34030095D01*
X43542096Y34030095D01*
X43618286Y34068190D01*
X43656382Y34106286D01*
X43694477Y34182476D01*
X43732572Y34334857D01*
X43732572Y34525333D01*
X43694477Y34677714D01*
X43656382Y34753905D01*
X43618286Y34792000D01*
X43542096Y34830095D01*
X42513524Y34030095D02*
X42970667Y34030095D01*
X42742096Y34030095D02*
X42742096Y34830095D01*
X42818286Y34715810D01*
X42894477Y34639619D01*
X42970667Y34601524D01*
X41789714Y34830095D02*
X42170667Y34830095D01*
X42208762Y34449143D01*
X42170667Y34487238D01*
X42094476Y34525333D01*
X41904000Y34525333D01*
X41827810Y34487238D01*
X41789714Y34449143D01*
X41751619Y34372952D01*
X41751619Y34182476D01*
X41789714Y34106286D01*
X41827810Y34068190D01*
X41904000Y34030095D01*
X42094476Y34030095D01*
X42170667Y34068190D01*
X42208762Y34106286D01*
D10*
X36807667Y86870333D02*
X36374334Y86870333D01*
X36607667Y86603667D01*
X36507667Y86603667D01*
X36441000Y86570333D01*
X36407667Y86537000D01*
X36374334Y86470333D01*
X36374334Y86303667D01*
X36407667Y86237000D01*
X36441000Y86203667D01*
X36507667Y86170333D01*
X36707667Y86170333D01*
X36774334Y86203667D01*
X36807667Y86237000D01*
X36174333Y86870333D02*
X35941000Y86170333D01*
X35707667Y86870333D01*
X35541000Y86870333D02*
X35107667Y86870333D01*
X35341000Y86603667D01*
X35241000Y86603667D01*
X35174333Y86570333D01*
X35141000Y86537000D01*
X35107667Y86470333D01*
X35107667Y86303667D01*
X35141000Y86237000D01*
X35174333Y86203667D01*
X35241000Y86170333D01*
X35441000Y86170333D01*
X35507667Y86203667D01*
X35541000Y86237000D01*
X39649333Y86837000D02*
X39715999Y86870333D01*
X39815999Y86870333D01*
X39915999Y86837000D01*
X39982666Y86770333D01*
X40015999Y86703667D01*
X40049333Y86570333D01*
X40049333Y86470333D01*
X40015999Y86337000D01*
X39982666Y86270333D01*
X39915999Y86203667D01*
X39815999Y86170333D01*
X39749333Y86170333D01*
X39649333Y86203667D01*
X39615999Y86237000D01*
X39615999Y86470333D01*
X39749333Y86470333D01*
X39315999Y86170333D02*
X39315999Y86870333D01*
X38915999Y86170333D01*
X38915999Y86870333D01*
X38582666Y86170333D02*
X38582666Y86870333D01*
X38416000Y86870333D01*
X38316000Y86837000D01*
X38249333Y86770333D01*
X38216000Y86703667D01*
X38182666Y86570333D01*
X38182666Y86470333D01*
X38216000Y86337000D01*
X38249333Y86270333D01*
X38316000Y86203667D01*
X38416000Y86170333D01*
X38582666Y86170333D01*
X43774333Y86203667D02*
X43674333Y86170333D01*
X43507666Y86170333D01*
X43440999Y86203667D01*
X43407666Y86237000D01*
X43374333Y86303667D01*
X43374333Y86370333D01*
X43407666Y86437000D01*
X43440999Y86470333D01*
X43507666Y86503667D01*
X43640999Y86537000D01*
X43707666Y86570333D01*
X43740999Y86603667D01*
X43774333Y86670333D01*
X43774333Y86737000D01*
X43740999Y86803667D01*
X43707666Y86837000D01*
X43640999Y86870333D01*
X43474333Y86870333D01*
X43374333Y86837000D01*
X43140999Y86870333D02*
X42974332Y86170333D01*
X42840999Y86670333D01*
X42707666Y86170333D01*
X42540999Y86870333D01*
X42274332Y86170333D02*
X42274332Y86870333D01*
X42107666Y86870333D01*
X42007666Y86837000D01*
X41940999Y86770333D01*
X41907666Y86703667D01*
X41874332Y86570333D01*
X41874332Y86470333D01*
X41907666Y86337000D01*
X41940999Y86270333D01*
X42007666Y86203667D01*
X42107666Y86170333D01*
X42274332Y86170333D01*
X41574332Y86170333D02*
X41574332Y86870333D01*
X41107666Y86870333D02*
X40974333Y86870333D01*
X40907666Y86837000D01*
X40840999Y86770333D01*
X40807666Y86637000D01*
X40807666Y86403667D01*
X40840999Y86270333D01*
X40907666Y86203667D01*
X40974333Y86170333D01*
X41107666Y86170333D01*
X41174333Y86203667D01*
X41240999Y86270333D01*
X41274333Y86403667D01*
X41274333Y86637000D01*
X41240999Y86770333D01*
X41174333Y86837000D01*
X41107666Y86870333D01*
X47684334Y86203667D02*
X47584334Y86170333D01*
X47417667Y86170333D01*
X47351000Y86203667D01*
X47317667Y86237000D01*
X47284334Y86303667D01*
X47284334Y86370333D01*
X47317667Y86437000D01*
X47351000Y86470333D01*
X47417667Y86503667D01*
X47551000Y86537000D01*
X47617667Y86570333D01*
X47651000Y86603667D01*
X47684334Y86670333D01*
X47684334Y86737000D01*
X47651000Y86803667D01*
X47617667Y86837000D01*
X47551000Y86870333D01*
X47384334Y86870333D01*
X47284334Y86837000D01*
X47051000Y86870333D02*
X46884333Y86170333D01*
X46751000Y86670333D01*
X46617667Y86170333D01*
X46451000Y86870333D01*
X45784333Y86237000D02*
X45817667Y86203667D01*
X45917667Y86170333D01*
X45984333Y86170333D01*
X46084333Y86203667D01*
X46151000Y86270333D01*
X46184333Y86337000D01*
X46217667Y86470333D01*
X46217667Y86570333D01*
X46184333Y86703667D01*
X46151000Y86770333D01*
X46084333Y86837000D01*
X45984333Y86870333D01*
X45917667Y86870333D01*
X45817667Y86837000D01*
X45784333Y86803667D01*
X45151000Y86170333D02*
X45484333Y86170333D01*
X45484333Y86870333D01*
X44917666Y86170333D02*
X44917666Y86870333D01*
X44517666Y86170333D02*
X44817666Y86570333D01*
X44517666Y86870333D02*
X44917666Y86470333D01*
X46634333Y85567000D02*
X46700999Y85600333D01*
X46800999Y85600333D01*
X46900999Y85567000D01*
X46967666Y85500333D01*
X47000999Y85433667D01*
X47034333Y85300333D01*
X47034333Y85200333D01*
X47000999Y85067000D01*
X46967666Y85000333D01*
X46900999Y84933667D01*
X46800999Y84900333D01*
X46734333Y84900333D01*
X46634333Y84933667D01*
X46600999Y84967000D01*
X46600999Y85200333D01*
X46734333Y85200333D01*
X46300999Y84900333D02*
X46300999Y85600333D01*
X45900999Y84900333D01*
X45900999Y85600333D01*
X45567666Y84900333D02*
X45567666Y85600333D01*
X45401000Y85600333D01*
X45301000Y85567000D01*
X45234333Y85500333D01*
X45201000Y85433667D01*
X45167666Y85300333D01*
X45167666Y85200333D01*
X45201000Y85067000D01*
X45234333Y85000333D01*
X45301000Y84933667D01*
X45401000Y84900333D01*
X45567666Y84900333D01*
X42697333Y85600333D02*
X42297333Y85600333D01*
X42497333Y84900333D02*
X42497333Y85600333D01*
X42130667Y85600333D02*
X41664000Y84900333D01*
X41664000Y85600333D02*
X42130667Y84900333D01*
X39232666Y84900333D02*
X39466000Y85233667D01*
X39632666Y84900333D02*
X39632666Y85600333D01*
X39366000Y85600333D01*
X39299333Y85567000D01*
X39266000Y85533667D01*
X39232666Y85467000D01*
X39232666Y85367000D01*
X39266000Y85300333D01*
X39299333Y85267000D01*
X39366000Y85233667D01*
X39632666Y85233667D01*
X38999333Y85600333D02*
X38532666Y84900333D01*
X38532666Y85600333D02*
X38999333Y84900333D01*
X36807667Y85600333D02*
X36374334Y85600333D01*
X36607667Y85333667D01*
X36507667Y85333667D01*
X36441000Y85300333D01*
X36407667Y85267000D01*
X36374334Y85200333D01*
X36374334Y85033667D01*
X36407667Y84967000D01*
X36441000Y84933667D01*
X36507667Y84900333D01*
X36707667Y84900333D01*
X36774334Y84933667D01*
X36807667Y84967000D01*
X36174333Y85600333D02*
X35941000Y84900333D01*
X35707667Y85600333D01*
X35541000Y85600333D02*
X35107667Y85600333D01*
X35341000Y85333667D01*
X35241000Y85333667D01*
X35174333Y85300333D01*
X35141000Y85267000D01*
X35107667Y85200333D01*
X35107667Y85033667D01*
X35141000Y84967000D01*
X35174333Y84933667D01*
X35241000Y84900333D01*
X35441000Y84900333D01*
X35507667Y84933667D01*
X35541000Y84967000D01*
D11*
X31496000Y84582000D02*
X48006000Y84582000D01*
X48006000Y84582000D02*
X48006000Y87122000D01*
X48006000Y87122000D02*
X31496000Y87122000D01*
X31496000Y87122000D02*
X31496000Y84582000D01*
X31496000Y84582000D02*
X31496000Y86487000D01*
X31496000Y85852000D02*
X48006000Y85852000D01*
X44196000Y84709000D02*
X44196000Y86995000D01*
X40386000Y86995000D02*
X40386000Y84709000D01*
X37592000Y86995000D02*
X37592000Y84709000D01*
X34290000Y86995000D02*
X34290000Y84709000D01*
D10*
X33316000Y85267000D02*
X33216000Y85233667D01*
X33182667Y85200333D01*
X33149333Y85133667D01*
X33149333Y85033667D01*
X33182667Y84967000D01*
X33216000Y84933667D01*
X33282667Y84900333D01*
X33549333Y84900333D01*
X33549333Y85600333D01*
X33316000Y85600333D01*
X33249333Y85567000D01*
X33216000Y85533667D01*
X33182667Y85467000D01*
X33182667Y85400333D01*
X33216000Y85333667D01*
X33249333Y85300333D01*
X33316000Y85267000D01*
X33549333Y85267000D01*
X32949333Y85600333D02*
X32549333Y85600333D01*
X32749333Y84900333D02*
X32749333Y85600333D01*
X32182667Y85600333D02*
X32116000Y85600333D01*
X32049334Y85567000D01*
X32016000Y85533667D01*
X31982667Y85467000D01*
X31949334Y85333667D01*
X31949334Y85167000D01*
X31982667Y85033667D01*
X32016000Y84967000D01*
X32049334Y84933667D01*
X32116000Y84900333D01*
X32182667Y84900333D01*
X32249334Y84933667D01*
X32282667Y84967000D01*
X32316000Y85033667D01*
X32349334Y85167000D01*
X32349334Y85333667D01*
X32316000Y85467000D01*
X32282667Y85533667D01*
X32249334Y85567000D01*
X32182667Y85600333D01*
X33632667Y86870333D02*
X33199334Y86870333D01*
X33432667Y86603667D01*
X33332667Y86603667D01*
X33266000Y86570333D01*
X33232667Y86537000D01*
X33199334Y86470333D01*
X33199334Y86303667D01*
X33232667Y86237000D01*
X33266000Y86203667D01*
X33332667Y86170333D01*
X33532667Y86170333D01*
X33599334Y86203667D01*
X33632667Y86237000D01*
X32999333Y86870333D02*
X32766000Y86170333D01*
X32532667Y86870333D01*
X32366000Y86870333D02*
X31932667Y86870333D01*
X32166000Y86603667D01*
X32066000Y86603667D01*
X31999333Y86570333D01*
X31966000Y86537000D01*
X31932667Y86470333D01*
X31932667Y86303667D01*
X31966000Y86237000D01*
X31999333Y86203667D01*
X32066000Y86170333D01*
X32266000Y86170333D01*
X32332667Y86203667D01*
X32366000Y86237000D01*
D12*
X44179619Y75413238D02*
X44036762Y75365619D01*
X43798666Y75365619D01*
X43703428Y75413238D01*
X43655809Y75460857D01*
X43608190Y75556095D01*
X43608190Y75651333D01*
X43655809Y75746571D01*
X43703428Y75794190D01*
X43798666Y75841810D01*
X43989143Y75889429D01*
X44084381Y75937048D01*
X44132000Y75984667D01*
X44179619Y76079905D01*
X44179619Y76175143D01*
X44132000Y76270381D01*
X44084381Y76318000D01*
X43989143Y76365619D01*
X43751047Y76365619D01*
X43608190Y76318000D01*
X43322476Y76365619D02*
X42751047Y76365619D01*
X43036762Y75365619D02*
X43036762Y76365619D01*
X42417714Y75365619D02*
X42417714Y76365619D01*
X42084380Y75651333D01*
X41751047Y76365619D01*
X41751047Y75365619D01*
X41370095Y76365619D02*
X40751047Y76365619D01*
X41084381Y75984667D01*
X40941523Y75984667D01*
X40846285Y75937048D01*
X40798666Y75889429D01*
X40751047Y75794190D01*
X40751047Y75556095D01*
X40798666Y75460857D01*
X40846285Y75413238D01*
X40941523Y75365619D01*
X41227238Y75365619D01*
X41322476Y75413238D01*
X41370095Y75460857D01*
X40370095Y76270381D02*
X40322476Y76318000D01*
X40227238Y76365619D01*
X39989142Y76365619D01*
X39893904Y76318000D01*
X39846285Y76270381D01*
X39798666Y76175143D01*
X39798666Y76079905D01*
X39846285Y75937048D01*
X40417714Y75365619D01*
X39798666Y75365619D01*
X39036761Y75889429D02*
X39370095Y75889429D01*
X39370095Y75365619D02*
X39370095Y76365619D01*
X38893904Y76365619D01*
X38322476Y76365619D02*
X38227237Y76365619D01*
X38131999Y76318000D01*
X38084380Y76270381D01*
X38036761Y76175143D01*
X37989142Y75984667D01*
X37989142Y75746571D01*
X38036761Y75556095D01*
X38084380Y75460857D01*
X38131999Y75413238D01*
X38227237Y75365619D01*
X38322476Y75365619D01*
X38417714Y75413238D01*
X38465333Y75460857D01*
X38512952Y75556095D01*
X38560571Y75746571D01*
X38560571Y75984667D01*
X38512952Y76175143D01*
X38465333Y76270381D01*
X38417714Y76318000D01*
X38322476Y76365619D01*
X37655809Y76365619D02*
X37036761Y76365619D01*
X37370095Y75984667D01*
X37227237Y75984667D01*
X37131999Y75937048D01*
X37084380Y75889429D01*
X37036761Y75794190D01*
X37036761Y75556095D01*
X37084380Y75460857D01*
X37131999Y75413238D01*
X37227237Y75365619D01*
X37512952Y75365619D01*
X37608190Y75413238D01*
X37655809Y75460857D01*
X36417714Y76365619D02*
X36322475Y76365619D01*
X36227237Y76318000D01*
X36179618Y76270381D01*
X36131999Y76175143D01*
X36084380Y75984667D01*
X36084380Y75746571D01*
X36131999Y75556095D01*
X36179618Y75460857D01*
X36227237Y75413238D01*
X36322475Y75365619D01*
X36417714Y75365619D01*
X36512952Y75413238D01*
X36560571Y75460857D01*
X36608190Y75556095D01*
X36655809Y75746571D01*
X36655809Y75984667D01*
X36608190Y76175143D01*
X36560571Y76270381D01*
X36512952Y76318000D01*
X36417714Y76365619D01*
X43560572Y73810857D02*
X43608191Y73763238D01*
X43751048Y73715619D01*
X43846286Y73715619D01*
X43989144Y73763238D01*
X44084382Y73858476D01*
X44132001Y73953714D01*
X44179620Y74144190D01*
X44179620Y74287048D01*
X44132001Y74477524D01*
X44084382Y74572762D01*
X43989144Y74668000D01*
X43846286Y74715619D01*
X43751048Y74715619D01*
X43608191Y74668000D01*
X43560572Y74620381D01*
X42989144Y73715619D02*
X43084382Y73763238D01*
X43132001Y73810857D01*
X43179620Y73906095D01*
X43179620Y74191810D01*
X43132001Y74287048D01*
X43084382Y74334667D01*
X42989144Y74382286D01*
X42846286Y74382286D01*
X42751048Y74334667D01*
X42703429Y74287048D01*
X42655810Y74191810D01*
X42655810Y73906095D01*
X42703429Y73810857D01*
X42751048Y73763238D01*
X42846286Y73715619D01*
X42989144Y73715619D01*
X42227239Y73715619D02*
X42227239Y74382286D01*
X42227239Y74191810D02*
X42179620Y74287048D01*
X42132001Y74334667D01*
X42036763Y74382286D01*
X41941524Y74382286D01*
X41227238Y73763238D02*
X41322476Y73715619D01*
X41512953Y73715619D01*
X41608191Y73763238D01*
X41655810Y73858476D01*
X41655810Y74239429D01*
X41608191Y74334667D01*
X41512953Y74382286D01*
X41322476Y74382286D01*
X41227238Y74334667D01*
X41179619Y74239429D01*
X41179619Y74144190D01*
X41655810Y74048952D01*
X39655809Y74239429D02*
X39512952Y74191810D01*
X39465333Y74144190D01*
X39417714Y74048952D01*
X39417714Y73906095D01*
X39465333Y73810857D01*
X39512952Y73763238D01*
X39608190Y73715619D01*
X39989143Y73715619D01*
X39989143Y74715619D01*
X39655809Y74715619D01*
X39560571Y74668000D01*
X39512952Y74620381D01*
X39465333Y74525143D01*
X39465333Y74429905D01*
X39512952Y74334667D01*
X39560571Y74287048D01*
X39655809Y74239429D01*
X39989143Y74239429D01*
X38846286Y73715619D02*
X38941524Y73763238D01*
X38989143Y73810857D01*
X39036762Y73906095D01*
X39036762Y74191810D01*
X38989143Y74287048D01*
X38941524Y74334667D01*
X38846286Y74382286D01*
X38703428Y74382286D01*
X38608190Y74334667D01*
X38560571Y74287048D01*
X38512952Y74191810D01*
X38512952Y73906095D01*
X38560571Y73810857D01*
X38608190Y73763238D01*
X38703428Y73715619D01*
X38846286Y73715619D01*
X37655809Y73715619D02*
X37655809Y74239429D01*
X37703428Y74334667D01*
X37798666Y74382286D01*
X37989143Y74382286D01*
X38084381Y74334667D01*
X37655809Y73763238D02*
X37751047Y73715619D01*
X37989143Y73715619D01*
X38084381Y73763238D01*
X38132000Y73858476D01*
X38132000Y73953714D01*
X38084381Y74048952D01*
X37989143Y74096571D01*
X37751047Y74096571D01*
X37655809Y74144190D01*
X37179619Y73715619D02*
X37179619Y74382286D01*
X37179619Y74191810D02*
X37132000Y74287048D01*
X37084381Y74334667D01*
X36989143Y74382286D01*
X36893904Y74382286D01*
X36131999Y73715619D02*
X36131999Y74715619D01*
X36131999Y73763238D02*
X36227237Y73715619D01*
X36417714Y73715619D01*
X36512952Y73763238D01*
X36560571Y73810857D01*
X36608190Y73906095D01*
X36608190Y74191810D01*
X36560571Y74287048D01*
X36512952Y74334667D01*
X36417714Y74382286D01*
X36227237Y74382286D01*
X36131999Y74334667D01*
X48251048Y72065619D02*
X48251048Y73065619D01*
X48012953Y73065619D01*
X47870095Y73018000D01*
X47774857Y72922762D01*
X47727238Y72827524D01*
X47679619Y72637048D01*
X47679619Y72494190D01*
X47727238Y72303714D01*
X47774857Y72208476D01*
X47870095Y72113238D01*
X48012953Y72065619D01*
X48251048Y72065619D01*
X46870095Y72113238D02*
X46965333Y72065619D01*
X47155810Y72065619D01*
X47251048Y72113238D01*
X47298667Y72208476D01*
X47298667Y72589429D01*
X47251048Y72684667D01*
X47155810Y72732286D01*
X46965333Y72732286D01*
X46870095Y72684667D01*
X46822476Y72589429D01*
X46822476Y72494190D01*
X47298667Y72398952D01*
X46441524Y72113238D02*
X46346286Y72065619D01*
X46155810Y72065619D01*
X46060571Y72113238D01*
X46012952Y72208476D01*
X46012952Y72256095D01*
X46060571Y72351333D01*
X46155810Y72398952D01*
X46298667Y72398952D01*
X46393905Y72446571D01*
X46441524Y72541810D01*
X46441524Y72589429D01*
X46393905Y72684667D01*
X46298667Y72732286D01*
X46155810Y72732286D01*
X46060571Y72684667D01*
X45584381Y72065619D02*
X45584381Y72732286D01*
X45584381Y73065619D02*
X45632000Y73018000D01*
X45584381Y72970381D01*
X45536762Y73018000D01*
X45584381Y73065619D01*
X45584381Y72970381D01*
X44679619Y72732286D02*
X44679619Y71922762D01*
X44727238Y71827524D01*
X44774857Y71779905D01*
X44870096Y71732286D01*
X45012953Y71732286D01*
X45108191Y71779905D01*
X44679619Y72113238D02*
X44774857Y72065619D01*
X44965334Y72065619D01*
X45060572Y72113238D01*
X45108191Y72160857D01*
X45155810Y72256095D01*
X45155810Y72541810D01*
X45108191Y72637048D01*
X45060572Y72684667D01*
X44965334Y72732286D01*
X44774857Y72732286D01*
X44679619Y72684667D01*
X44203429Y72732286D02*
X44203429Y72065619D01*
X44203429Y72637048D02*
X44155810Y72684667D01*
X44060572Y72732286D01*
X43917714Y72732286D01*
X43822476Y72684667D01*
X43774857Y72589429D01*
X43774857Y72065619D01*
X42917714Y72113238D02*
X43012952Y72065619D01*
X43203429Y72065619D01*
X43298667Y72113238D01*
X43346286Y72208476D01*
X43346286Y72589429D01*
X43298667Y72684667D01*
X43203429Y72732286D01*
X43012952Y72732286D01*
X42917714Y72684667D01*
X42870095Y72589429D01*
X42870095Y72494190D01*
X43346286Y72398952D01*
X42012952Y72065619D02*
X42012952Y73065619D01*
X42012952Y72113238D02*
X42108190Y72065619D01*
X42298667Y72065619D01*
X42393905Y72113238D01*
X42441524Y72160857D01*
X42489143Y72256095D01*
X42489143Y72541810D01*
X42441524Y72637048D01*
X42393905Y72684667D01*
X42298667Y72732286D01*
X42108190Y72732286D01*
X42012952Y72684667D01*
X40774857Y72065619D02*
X40774857Y73065619D01*
X40774857Y72684667D02*
X40679619Y72732286D01*
X40489142Y72732286D01*
X40393904Y72684667D01*
X40346285Y72637048D01*
X40298666Y72541810D01*
X40298666Y72256095D01*
X40346285Y72160857D01*
X40393904Y72113238D01*
X40489142Y72065619D01*
X40679619Y72065619D01*
X40774857Y72113238D01*
X39965333Y72732286D02*
X39727238Y72065619D01*
X39489142Y72732286D02*
X39727238Y72065619D01*
X39822476Y71827524D01*
X39870095Y71779905D01*
X39965333Y71732286D01*
X38346285Y72065619D02*
X38346285Y73065619D01*
X38346285Y72589429D02*
X37774856Y72589429D01*
X37774856Y72065619D02*
X37774856Y73065619D01*
X37393904Y73065619D02*
X37155809Y72065619D01*
X36965332Y72779905D01*
X36774856Y72065619D01*
X36536761Y73065619D01*
X35489142Y73065619D02*
X35251047Y72065619D01*
X35060570Y72779905D01*
X34870094Y72065619D01*
X34631999Y73065619D01*
X34108190Y72065619D02*
X34203428Y72113238D01*
X34251047Y72160857D01*
X34298666Y72256095D01*
X34298666Y72541810D01*
X34251047Y72637048D01*
X34203428Y72684667D01*
X34108190Y72732286D01*
X33965332Y72732286D01*
X33870094Y72684667D01*
X33822475Y72637048D01*
X33774856Y72541810D01*
X33774856Y72256095D01*
X33822475Y72160857D01*
X33870094Y72113238D01*
X33965332Y72065619D01*
X34108190Y72065619D01*
X33346285Y72732286D02*
X33346285Y72065619D01*
X33346285Y72637048D02*
X33298666Y72684667D01*
X33203428Y72732286D01*
X33060570Y72732286D01*
X32965332Y72684667D01*
X32917713Y72589429D01*
X32917713Y72065619D01*
X32012951Y72732286D02*
X32012951Y71922762D01*
X32060570Y71827524D01*
X32108189Y71779905D01*
X32203428Y71732286D01*
X32346285Y71732286D01*
X32441523Y71779905D01*
X32012951Y72113238D02*
X32108189Y72065619D01*
X32298666Y72065619D01*
X32393904Y72113238D01*
X32441523Y72160857D01*
X32489142Y72256095D01*
X32489142Y72541810D01*
X32441523Y72637048D01*
X32393904Y72684667D01*
X32298666Y72732286D01*
X32108189Y72732286D01*
X32012951Y72684667D01*
D13*
X46361143Y66846095D02*
X46627810Y67227048D01*
X46818286Y66846095D02*
X46818286Y67646095D01*
X46513524Y67646095D01*
X46437333Y67608000D01*
X46399238Y67569905D01*
X46361143Y67493714D01*
X46361143Y67379429D01*
X46399238Y67303238D01*
X46437333Y67265143D01*
X46513524Y67227048D01*
X46818286Y67227048D01*
X45713524Y66884190D02*
X45789714Y66846095D01*
X45942095Y66846095D01*
X46018286Y66884190D01*
X46056381Y66960381D01*
X46056381Y67265143D01*
X46018286Y67341333D01*
X45942095Y67379429D01*
X45789714Y67379429D01*
X45713524Y67341333D01*
X45675429Y67265143D01*
X45675429Y67188952D01*
X46056381Y67112762D01*
X45408762Y67379429D02*
X45218286Y66846095D01*
X45027810Y67379429D01*
X43694476Y66846095D02*
X44151619Y66846095D01*
X43923048Y66846095D02*
X43923048Y67646095D01*
X43999238Y67531810D01*
X44075429Y67455619D01*
X44151619Y67417524D01*
X43351619Y66922286D02*
X43313524Y66884190D01*
X43351619Y66846095D01*
X43389714Y66884190D01*
X43351619Y66922286D01*
X43351619Y66846095D01*
X42818286Y67646095D02*
X42742095Y67646095D01*
X42665905Y67608000D01*
X42627810Y67569905D01*
X42589714Y67493714D01*
X42551619Y67341333D01*
X42551619Y67150857D01*
X42589714Y66998476D01*
X42627810Y66922286D01*
X42665905Y66884190D01*
X42742095Y66846095D01*
X42818286Y66846095D01*
X42894476Y66884190D01*
X42932572Y66922286D01*
X42970667Y66998476D01*
X43008762Y67150857D01*
X43008762Y67341333D01*
X42970667Y67493714D01*
X42932572Y67569905D01*
X42894476Y67608000D01*
X42818286Y67646095D01*
X47618286Y65526095D02*
X47618286Y66326095D01*
X47427810Y66326095D01*
X47313524Y66288000D01*
X47237333Y66211810D01*
X47199238Y66135619D01*
X47161143Y65983238D01*
X47161143Y65868952D01*
X47199238Y65716571D01*
X47237333Y65640381D01*
X47313524Y65564190D01*
X47427810Y65526095D01*
X47618286Y65526095D01*
X46513524Y65564190D02*
X46589714Y65526095D01*
X46742095Y65526095D01*
X46818286Y65564190D01*
X46856381Y65640381D01*
X46856381Y65945143D01*
X46818286Y66021333D01*
X46742095Y66059429D01*
X46589714Y66059429D01*
X46513524Y66021333D01*
X46475429Y65945143D01*
X46475429Y65868952D01*
X46856381Y65792762D01*
X45789715Y65564190D02*
X45865905Y65526095D01*
X46018286Y65526095D01*
X46094477Y65564190D01*
X46132572Y65602286D01*
X46170667Y65678476D01*
X46170667Y65907048D01*
X46132572Y65983238D01*
X46094477Y66021333D01*
X46018286Y66059429D01*
X45865905Y66059429D01*
X45789715Y66021333D01*
X45446858Y65830857D02*
X44837334Y65830857D01*
X44494477Y66249905D02*
X44456382Y66288000D01*
X44380191Y66326095D01*
X44189715Y66326095D01*
X44113525Y66288000D01*
X44075429Y66249905D01*
X44037334Y66173714D01*
X44037334Y66097524D01*
X44075429Y65983238D01*
X44532572Y65526095D01*
X44037334Y65526095D01*
X43542096Y66326095D02*
X43465905Y66326095D01*
X43389715Y66288000D01*
X43351620Y66249905D01*
X43313524Y66173714D01*
X43275429Y66021333D01*
X43275429Y65830857D01*
X43313524Y65678476D01*
X43351620Y65602286D01*
X43389715Y65564190D01*
X43465905Y65526095D01*
X43542096Y65526095D01*
X43618286Y65564190D01*
X43656382Y65602286D01*
X43694477Y65678476D01*
X43732572Y65830857D01*
X43732572Y66021333D01*
X43694477Y66173714D01*
X43656382Y66249905D01*
X43618286Y66288000D01*
X43542096Y66326095D01*
X42513524Y65526095D02*
X42970667Y65526095D01*
X42742096Y65526095D02*
X42742096Y66326095D01*
X42818286Y66211810D01*
X42894477Y66135619D01*
X42970667Y66097524D01*
X41789714Y66326095D02*
X42170667Y66326095D01*
X42208762Y65945143D01*
X42170667Y65983238D01*
X42094476Y66021333D01*
X41904000Y66021333D01*
X41827810Y65983238D01*
X41789714Y65945143D01*
X41751619Y65868952D01*
X41751619Y65678476D01*
X41789714Y65602286D01*
X41827810Y65564190D01*
X41904000Y65526095D01*
X42094476Y65526095D01*
X42170667Y65564190D01*
X42208762Y65602286D01*
D10*
X10391667Y23878333D02*
X9958334Y23878333D01*
X10191667Y23611667D01*
X10091667Y23611667D01*
X10025000Y23578333D01*
X9991667Y23545000D01*
X9958334Y23478333D01*
X9958334Y23311667D01*
X9991667Y23245000D01*
X10025000Y23211667D01*
X10091667Y23178333D01*
X10291667Y23178333D01*
X10358334Y23211667D01*
X10391667Y23245000D01*
X9758333Y23878333D02*
X9525000Y23178333D01*
X9291667Y23878333D01*
X9125000Y23878333D02*
X8691667Y23878333D01*
X8925000Y23611667D01*
X8825000Y23611667D01*
X8758333Y23578333D01*
X8725000Y23545000D01*
X8691667Y23478333D01*
X8691667Y23311667D01*
X8725000Y23245000D01*
X8758333Y23211667D01*
X8825000Y23178333D01*
X9025000Y23178333D01*
X9091667Y23211667D01*
X9125000Y23245000D01*
X13233333Y23845000D02*
X13299999Y23878333D01*
X13399999Y23878333D01*
X13499999Y23845000D01*
X13566666Y23778333D01*
X13599999Y23711667D01*
X13633333Y23578333D01*
X13633333Y23478333D01*
X13599999Y23345000D01*
X13566666Y23278333D01*
X13499999Y23211667D01*
X13399999Y23178333D01*
X13333333Y23178333D01*
X13233333Y23211667D01*
X13199999Y23245000D01*
X13199999Y23478333D01*
X13333333Y23478333D01*
X12899999Y23178333D02*
X12899999Y23878333D01*
X12499999Y23178333D01*
X12499999Y23878333D01*
X12166666Y23178333D02*
X12166666Y23878333D01*
X12000000Y23878333D01*
X11900000Y23845000D01*
X11833333Y23778333D01*
X11800000Y23711667D01*
X11766666Y23578333D01*
X11766666Y23478333D01*
X11800000Y23345000D01*
X11833333Y23278333D01*
X11900000Y23211667D01*
X12000000Y23178333D01*
X12166666Y23178333D01*
X17358333Y23211667D02*
X17258333Y23178333D01*
X17091666Y23178333D01*
X17024999Y23211667D01*
X16991666Y23245000D01*
X16958333Y23311667D01*
X16958333Y23378333D01*
X16991666Y23445000D01*
X17024999Y23478333D01*
X17091666Y23511667D01*
X17224999Y23545000D01*
X17291666Y23578333D01*
X17324999Y23611667D01*
X17358333Y23678333D01*
X17358333Y23745000D01*
X17324999Y23811667D01*
X17291666Y23845000D01*
X17224999Y23878333D01*
X17058333Y23878333D01*
X16958333Y23845000D01*
X16724999Y23878333D02*
X16558332Y23178333D01*
X16424999Y23678333D01*
X16291666Y23178333D01*
X16124999Y23878333D01*
X15858332Y23178333D02*
X15858332Y23878333D01*
X15691666Y23878333D01*
X15591666Y23845000D01*
X15524999Y23778333D01*
X15491666Y23711667D01*
X15458332Y23578333D01*
X15458332Y23478333D01*
X15491666Y23345000D01*
X15524999Y23278333D01*
X15591666Y23211667D01*
X15691666Y23178333D01*
X15858332Y23178333D01*
X15158332Y23178333D02*
X15158332Y23878333D01*
X14691666Y23878333D02*
X14558333Y23878333D01*
X14491666Y23845000D01*
X14424999Y23778333D01*
X14391666Y23645000D01*
X14391666Y23411667D01*
X14424999Y23278333D01*
X14491666Y23211667D01*
X14558333Y23178333D01*
X14691666Y23178333D01*
X14758333Y23211667D01*
X14824999Y23278333D01*
X14858333Y23411667D01*
X14858333Y23645000D01*
X14824999Y23778333D01*
X14758333Y23845000D01*
X14691666Y23878333D01*
X21268334Y23211667D02*
X21168334Y23178333D01*
X21001667Y23178333D01*
X20935000Y23211667D01*
X20901667Y23245000D01*
X20868334Y23311667D01*
X20868334Y23378333D01*
X20901667Y23445000D01*
X20935000Y23478333D01*
X21001667Y23511667D01*
X21135000Y23545000D01*
X21201667Y23578333D01*
X21235000Y23611667D01*
X21268334Y23678333D01*
X21268334Y23745000D01*
X21235000Y23811667D01*
X21201667Y23845000D01*
X21135000Y23878333D01*
X20968334Y23878333D01*
X20868334Y23845000D01*
X20635000Y23878333D02*
X20468333Y23178333D01*
X20335000Y23678333D01*
X20201667Y23178333D01*
X20035000Y23878333D01*
X19368333Y23245000D02*
X19401667Y23211667D01*
X19501667Y23178333D01*
X19568333Y23178333D01*
X19668333Y23211667D01*
X19735000Y23278333D01*
X19768333Y23345000D01*
X19801667Y23478333D01*
X19801667Y23578333D01*
X19768333Y23711667D01*
X19735000Y23778333D01*
X19668333Y23845000D01*
X19568333Y23878333D01*
X19501667Y23878333D01*
X19401667Y23845000D01*
X19368333Y23811667D01*
X18735000Y23178333D02*
X19068333Y23178333D01*
X19068333Y23878333D01*
X18501666Y23178333D02*
X18501666Y23878333D01*
X18101666Y23178333D02*
X18401666Y23578333D01*
X18101666Y23878333D02*
X18501666Y23478333D01*
X20218333Y22575000D02*
X20284999Y22608333D01*
X20384999Y22608333D01*
X20484999Y22575000D01*
X20551666Y22508333D01*
X20584999Y22441667D01*
X20618333Y22308333D01*
X20618333Y22208333D01*
X20584999Y22075000D01*
X20551666Y22008333D01*
X20484999Y21941667D01*
X20384999Y21908333D01*
X20318333Y21908333D01*
X20218333Y21941667D01*
X20184999Y21975000D01*
X20184999Y22208333D01*
X20318333Y22208333D01*
X19884999Y21908333D02*
X19884999Y22608333D01*
X19484999Y21908333D01*
X19484999Y22608333D01*
X19151666Y21908333D02*
X19151666Y22608333D01*
X18985000Y22608333D01*
X18885000Y22575000D01*
X18818333Y22508333D01*
X18785000Y22441667D01*
X18751666Y22308333D01*
X18751666Y22208333D01*
X18785000Y22075000D01*
X18818333Y22008333D01*
X18885000Y21941667D01*
X18985000Y21908333D01*
X19151666Y21908333D01*
X16281333Y22608333D02*
X15881333Y22608333D01*
X16081333Y21908333D02*
X16081333Y22608333D01*
X15714667Y22608333D02*
X15248000Y21908333D01*
X15248000Y22608333D02*
X15714667Y21908333D01*
X12816666Y21908333D02*
X13050000Y22241667D01*
X13216666Y21908333D02*
X13216666Y22608333D01*
X12950000Y22608333D01*
X12883333Y22575000D01*
X12850000Y22541667D01*
X12816666Y22475000D01*
X12816666Y22375000D01*
X12850000Y22308333D01*
X12883333Y22275000D01*
X12950000Y22241667D01*
X13216666Y22241667D01*
X12583333Y22608333D02*
X12116666Y21908333D01*
X12116666Y22608333D02*
X12583333Y21908333D01*
X10391667Y22608333D02*
X9958334Y22608333D01*
X10191667Y22341667D01*
X10091667Y22341667D01*
X10025000Y22308333D01*
X9991667Y22275000D01*
X9958334Y22208333D01*
X9958334Y22041667D01*
X9991667Y21975000D01*
X10025000Y21941667D01*
X10091667Y21908333D01*
X10291667Y21908333D01*
X10358334Y21941667D01*
X10391667Y21975000D01*
X9758333Y22608333D02*
X9525000Y21908333D01*
X9291667Y22608333D01*
X9125000Y22608333D02*
X8691667Y22608333D01*
X8925000Y22341667D01*
X8825000Y22341667D01*
X8758333Y22308333D01*
X8725000Y22275000D01*
X8691667Y22208333D01*
X8691667Y22041667D01*
X8725000Y21975000D01*
X8758333Y21941667D01*
X8825000Y21908333D01*
X9025000Y21908333D01*
X9091667Y21941667D01*
X9125000Y21975000D01*
D11*
X5080000Y21590000D02*
X21590000Y21590000D01*
X21590000Y21590000D02*
X21590000Y24130000D01*
X21590000Y24130000D02*
X5080000Y24130000D01*
X5080000Y24130000D02*
X5080000Y21590000D01*
X5080000Y21590000D02*
X5080000Y23495000D01*
X5080000Y22860000D02*
X21590000Y22860000D01*
X17780000Y21717000D02*
X17780000Y24003000D01*
X13970000Y24003000D02*
X13970000Y21717000D01*
X11176000Y24003000D02*
X11176000Y21717000D01*
X7874000Y24003000D02*
X7874000Y21717000D01*
D10*
X6900000Y22275000D02*
X6800000Y22241667D01*
X6766667Y22208333D01*
X6733333Y22141667D01*
X6733333Y22041667D01*
X6766667Y21975000D01*
X6800000Y21941667D01*
X6866667Y21908333D01*
X7133333Y21908333D01*
X7133333Y22608333D01*
X6900000Y22608333D01*
X6833333Y22575000D01*
X6800000Y22541667D01*
X6766667Y22475000D01*
X6766667Y22408333D01*
X6800000Y22341667D01*
X6833333Y22308333D01*
X6900000Y22275000D01*
X7133333Y22275000D01*
X6533333Y22608333D02*
X6133333Y22608333D01*
X6333333Y21908333D02*
X6333333Y22608333D01*
X5766667Y22608333D02*
X5700000Y22608333D01*
X5633334Y22575000D01*
X5600000Y22541667D01*
X5566667Y22475000D01*
X5533334Y22341667D01*
X5533334Y22175000D01*
X5566667Y22041667D01*
X5600000Y21975000D01*
X5633334Y21941667D01*
X5700000Y21908333D01*
X5766667Y21908333D01*
X5833334Y21941667D01*
X5866667Y21975000D01*
X5900000Y22041667D01*
X5933334Y22175000D01*
X5933334Y22341667D01*
X5900000Y22475000D01*
X5866667Y22541667D01*
X5833334Y22575000D01*
X5766667Y22608333D01*
X7216667Y23878333D02*
X6783334Y23878333D01*
X7016667Y23611667D01*
X6916667Y23611667D01*
X6850000Y23578333D01*
X6816667Y23545000D01*
X6783334Y23478333D01*
X6783334Y23311667D01*
X6816667Y23245000D01*
X6850000Y23211667D01*
X6916667Y23178333D01*
X7116667Y23178333D01*
X7183334Y23211667D01*
X7216667Y23245000D01*
X6583333Y23878333D02*
X6350000Y23178333D01*
X6116667Y23878333D01*
X5950000Y23878333D02*
X5516667Y23878333D01*
X5750000Y23611667D01*
X5650000Y23611667D01*
X5583333Y23578333D01*
X5550000Y23545000D01*
X5516667Y23478333D01*
X5516667Y23311667D01*
X5550000Y23245000D01*
X5583333Y23211667D01*
X5650000Y23178333D01*
X5850000Y23178333D01*
X5916667Y23211667D01*
X5950000Y23245000D01*
D12*
X17763619Y12421238D02*
X17620762Y12373619D01*
X17382666Y12373619D01*
X17287428Y12421238D01*
X17239809Y12468857D01*
X17192190Y12564095D01*
X17192190Y12659333D01*
X17239809Y12754571D01*
X17287428Y12802190D01*
X17382666Y12849810D01*
X17573143Y12897429D01*
X17668381Y12945048D01*
X17716000Y12992667D01*
X17763619Y13087905D01*
X17763619Y13183143D01*
X17716000Y13278381D01*
X17668381Y13326000D01*
X17573143Y13373619D01*
X17335047Y13373619D01*
X17192190Y13326000D01*
X16906476Y13373619D02*
X16335047Y13373619D01*
X16620762Y12373619D02*
X16620762Y13373619D01*
X16001714Y12373619D02*
X16001714Y13373619D01*
X15668380Y12659333D01*
X15335047Y13373619D01*
X15335047Y12373619D01*
X14954095Y13373619D02*
X14335047Y13373619D01*
X14668381Y12992667D01*
X14525523Y12992667D01*
X14430285Y12945048D01*
X14382666Y12897429D01*
X14335047Y12802190D01*
X14335047Y12564095D01*
X14382666Y12468857D01*
X14430285Y12421238D01*
X14525523Y12373619D01*
X14811238Y12373619D01*
X14906476Y12421238D01*
X14954095Y12468857D01*
X13954095Y13278381D02*
X13906476Y13326000D01*
X13811238Y13373619D01*
X13573142Y13373619D01*
X13477904Y13326000D01*
X13430285Y13278381D01*
X13382666Y13183143D01*
X13382666Y13087905D01*
X13430285Y12945048D01*
X14001714Y12373619D01*
X13382666Y12373619D01*
X12620761Y12897429D02*
X12954095Y12897429D01*
X12954095Y12373619D02*
X12954095Y13373619D01*
X12477904Y13373619D01*
X11906476Y13373619D02*
X11811237Y13373619D01*
X11715999Y13326000D01*
X11668380Y13278381D01*
X11620761Y13183143D01*
X11573142Y12992667D01*
X11573142Y12754571D01*
X11620761Y12564095D01*
X11668380Y12468857D01*
X11715999Y12421238D01*
X11811237Y12373619D01*
X11906476Y12373619D01*
X12001714Y12421238D01*
X12049333Y12468857D01*
X12096952Y12564095D01*
X12144571Y12754571D01*
X12144571Y12992667D01*
X12096952Y13183143D01*
X12049333Y13278381D01*
X12001714Y13326000D01*
X11906476Y13373619D01*
X11239809Y13373619D02*
X10620761Y13373619D01*
X10954095Y12992667D01*
X10811237Y12992667D01*
X10715999Y12945048D01*
X10668380Y12897429D01*
X10620761Y12802190D01*
X10620761Y12564095D01*
X10668380Y12468857D01*
X10715999Y12421238D01*
X10811237Y12373619D01*
X11096952Y12373619D01*
X11192190Y12421238D01*
X11239809Y12468857D01*
X10001714Y13373619D02*
X9906475Y13373619D01*
X9811237Y13326000D01*
X9763618Y13278381D01*
X9715999Y13183143D01*
X9668380Y12992667D01*
X9668380Y12754571D01*
X9715999Y12564095D01*
X9763618Y12468857D01*
X9811237Y12421238D01*
X9906475Y12373619D01*
X10001714Y12373619D01*
X10096952Y12421238D01*
X10144571Y12468857D01*
X10192190Y12564095D01*
X10239809Y12754571D01*
X10239809Y12992667D01*
X10192190Y13183143D01*
X10144571Y13278381D01*
X10096952Y13326000D01*
X10001714Y13373619D01*
X17144572Y10818857D02*
X17192191Y10771238D01*
X17335048Y10723619D01*
X17430286Y10723619D01*
X17573144Y10771238D01*
X17668382Y10866476D01*
X17716001Y10961714D01*
X17763620Y11152190D01*
X17763620Y11295048D01*
X17716001Y11485524D01*
X17668382Y11580762D01*
X17573144Y11676000D01*
X17430286Y11723619D01*
X17335048Y11723619D01*
X17192191Y11676000D01*
X17144572Y11628381D01*
X16573144Y10723619D02*
X16668382Y10771238D01*
X16716001Y10818857D01*
X16763620Y10914095D01*
X16763620Y11199810D01*
X16716001Y11295048D01*
X16668382Y11342667D01*
X16573144Y11390286D01*
X16430286Y11390286D01*
X16335048Y11342667D01*
X16287429Y11295048D01*
X16239810Y11199810D01*
X16239810Y10914095D01*
X16287429Y10818857D01*
X16335048Y10771238D01*
X16430286Y10723619D01*
X16573144Y10723619D01*
X15811239Y10723619D02*
X15811239Y11390286D01*
X15811239Y11199810D02*
X15763620Y11295048D01*
X15716001Y11342667D01*
X15620763Y11390286D01*
X15525524Y11390286D01*
X14811238Y10771238D02*
X14906476Y10723619D01*
X15096953Y10723619D01*
X15192191Y10771238D01*
X15239810Y10866476D01*
X15239810Y11247429D01*
X15192191Y11342667D01*
X15096953Y11390286D01*
X14906476Y11390286D01*
X14811238Y11342667D01*
X14763619Y11247429D01*
X14763619Y11152190D01*
X15239810Y11056952D01*
X13239809Y11247429D02*
X13096952Y11199810D01*
X13049333Y11152190D01*
X13001714Y11056952D01*
X13001714Y10914095D01*
X13049333Y10818857D01*
X13096952Y10771238D01*
X13192190Y10723619D01*
X13573143Y10723619D01*
X13573143Y11723619D01*
X13239809Y11723619D01*
X13144571Y11676000D01*
X13096952Y11628381D01*
X13049333Y11533143D01*
X13049333Y11437905D01*
X13096952Y11342667D01*
X13144571Y11295048D01*
X13239809Y11247429D01*
X13573143Y11247429D01*
X12430286Y10723619D02*
X12525524Y10771238D01*
X12573143Y10818857D01*
X12620762Y10914095D01*
X12620762Y11199810D01*
X12573143Y11295048D01*
X12525524Y11342667D01*
X12430286Y11390286D01*
X12287428Y11390286D01*
X12192190Y11342667D01*
X12144571Y11295048D01*
X12096952Y11199810D01*
X12096952Y10914095D01*
X12144571Y10818857D01*
X12192190Y10771238D01*
X12287428Y10723619D01*
X12430286Y10723619D01*
X11239809Y10723619D02*
X11239809Y11247429D01*
X11287428Y11342667D01*
X11382666Y11390286D01*
X11573143Y11390286D01*
X11668381Y11342667D01*
X11239809Y10771238D02*
X11335047Y10723619D01*
X11573143Y10723619D01*
X11668381Y10771238D01*
X11716000Y10866476D01*
X11716000Y10961714D01*
X11668381Y11056952D01*
X11573143Y11104571D01*
X11335047Y11104571D01*
X11239809Y11152190D01*
X10763619Y10723619D02*
X10763619Y11390286D01*
X10763619Y11199810D02*
X10716000Y11295048D01*
X10668381Y11342667D01*
X10573143Y11390286D01*
X10477904Y11390286D01*
X9715999Y10723619D02*
X9715999Y11723619D01*
X9715999Y10771238D02*
X9811237Y10723619D01*
X10001714Y10723619D01*
X10096952Y10771238D01*
X10144571Y10818857D01*
X10192190Y10914095D01*
X10192190Y11199810D01*
X10144571Y11295048D01*
X10096952Y11342667D01*
X10001714Y11390286D01*
X9811237Y11390286D01*
X9715999Y11342667D01*
X21835048Y9073619D02*
X21835048Y10073619D01*
X21596953Y10073619D01*
X21454095Y10026000D01*
X21358857Y9930762D01*
X21311238Y9835524D01*
X21263619Y9645048D01*
X21263619Y9502190D01*
X21311238Y9311714D01*
X21358857Y9216476D01*
X21454095Y9121238D01*
X21596953Y9073619D01*
X21835048Y9073619D01*
X20454095Y9121238D02*
X20549333Y9073619D01*
X20739810Y9073619D01*
X20835048Y9121238D01*
X20882667Y9216476D01*
X20882667Y9597429D01*
X20835048Y9692667D01*
X20739810Y9740286D01*
X20549333Y9740286D01*
X20454095Y9692667D01*
X20406476Y9597429D01*
X20406476Y9502190D01*
X20882667Y9406952D01*
X20025524Y9121238D02*
X19930286Y9073619D01*
X19739810Y9073619D01*
X19644571Y9121238D01*
X19596952Y9216476D01*
X19596952Y9264095D01*
X19644571Y9359333D01*
X19739810Y9406952D01*
X19882667Y9406952D01*
X19977905Y9454571D01*
X20025524Y9549810D01*
X20025524Y9597429D01*
X19977905Y9692667D01*
X19882667Y9740286D01*
X19739810Y9740286D01*
X19644571Y9692667D01*
X19168381Y9073619D02*
X19168381Y9740286D01*
X19168381Y10073619D02*
X19216000Y10026000D01*
X19168381Y9978381D01*
X19120762Y10026000D01*
X19168381Y10073619D01*
X19168381Y9978381D01*
X18263619Y9740286D02*
X18263619Y8930762D01*
X18311238Y8835524D01*
X18358857Y8787905D01*
X18454096Y8740286D01*
X18596953Y8740286D01*
X18692191Y8787905D01*
X18263619Y9121238D02*
X18358857Y9073619D01*
X18549334Y9073619D01*
X18644572Y9121238D01*
X18692191Y9168857D01*
X18739810Y9264095D01*
X18739810Y9549810D01*
X18692191Y9645048D01*
X18644572Y9692667D01*
X18549334Y9740286D01*
X18358857Y9740286D01*
X18263619Y9692667D01*
X17787429Y9740286D02*
X17787429Y9073619D01*
X17787429Y9645048D02*
X17739810Y9692667D01*
X17644572Y9740286D01*
X17501714Y9740286D01*
X17406476Y9692667D01*
X17358857Y9597429D01*
X17358857Y9073619D01*
X16501714Y9121238D02*
X16596952Y9073619D01*
X16787429Y9073619D01*
X16882667Y9121238D01*
X16930286Y9216476D01*
X16930286Y9597429D01*
X16882667Y9692667D01*
X16787429Y9740286D01*
X16596952Y9740286D01*
X16501714Y9692667D01*
X16454095Y9597429D01*
X16454095Y9502190D01*
X16930286Y9406952D01*
X15596952Y9073619D02*
X15596952Y10073619D01*
X15596952Y9121238D02*
X15692190Y9073619D01*
X15882667Y9073619D01*
X15977905Y9121238D01*
X16025524Y9168857D01*
X16073143Y9264095D01*
X16073143Y9549810D01*
X16025524Y9645048D01*
X15977905Y9692667D01*
X15882667Y9740286D01*
X15692190Y9740286D01*
X15596952Y9692667D01*
X14358857Y9073619D02*
X14358857Y10073619D01*
X14358857Y9692667D02*
X14263619Y9740286D01*
X14073142Y9740286D01*
X13977904Y9692667D01*
X13930285Y9645048D01*
X13882666Y9549810D01*
X13882666Y9264095D01*
X13930285Y9168857D01*
X13977904Y9121238D01*
X14073142Y9073619D01*
X14263619Y9073619D01*
X14358857Y9121238D01*
X13549333Y9740286D02*
X13311238Y9073619D01*
X13073142Y9740286D02*
X13311238Y9073619D01*
X13406476Y8835524D01*
X13454095Y8787905D01*
X13549333Y8740286D01*
X11930285Y9073619D02*
X11930285Y10073619D01*
X11930285Y9597429D02*
X11358856Y9597429D01*
X11358856Y9073619D02*
X11358856Y10073619D01*
X10977904Y10073619D02*
X10739809Y9073619D01*
X10549332Y9787905D01*
X10358856Y9073619D01*
X10120761Y10073619D01*
X9073142Y10073619D02*
X8835047Y9073619D01*
X8644570Y9787905D01*
X8454094Y9073619D01*
X8215999Y10073619D01*
X7692190Y9073619D02*
X7787428Y9121238D01*
X7835047Y9168857D01*
X7882666Y9264095D01*
X7882666Y9549810D01*
X7835047Y9645048D01*
X7787428Y9692667D01*
X7692190Y9740286D01*
X7549332Y9740286D01*
X7454094Y9692667D01*
X7406475Y9645048D01*
X7358856Y9549810D01*
X7358856Y9264095D01*
X7406475Y9168857D01*
X7454094Y9121238D01*
X7549332Y9073619D01*
X7692190Y9073619D01*
X6930285Y9740286D02*
X6930285Y9073619D01*
X6930285Y9645048D02*
X6882666Y9692667D01*
X6787428Y9740286D01*
X6644570Y9740286D01*
X6549332Y9692667D01*
X6501713Y9597429D01*
X6501713Y9073619D01*
X5596951Y9740286D02*
X5596951Y8930762D01*
X5644570Y8835524D01*
X5692189Y8787905D01*
X5787428Y8740286D01*
X5930285Y8740286D01*
X6025523Y8787905D01*
X5596951Y9121238D02*
X5692189Y9073619D01*
X5882666Y9073619D01*
X5977904Y9121238D01*
X6025523Y9168857D01*
X6073142Y9264095D01*
X6073142Y9549810D01*
X6025523Y9645048D01*
X5977904Y9692667D01*
X5882666Y9740286D01*
X5692189Y9740286D01*
X5596951Y9692667D01*
D13*
X19945143Y3854095D02*
X20211810Y4235048D01*
X20402286Y3854095D02*
X20402286Y4654095D01*
X20097524Y4654095D01*
X20021333Y4616000D01*
X19983238Y4577905D01*
X19945143Y4501714D01*
X19945143Y4387429D01*
X19983238Y4311238D01*
X20021333Y4273143D01*
X20097524Y4235048D01*
X20402286Y4235048D01*
X19297524Y3892190D02*
X19373714Y3854095D01*
X19526095Y3854095D01*
X19602286Y3892190D01*
X19640381Y3968381D01*
X19640381Y4273143D01*
X19602286Y4349333D01*
X19526095Y4387429D01*
X19373714Y4387429D01*
X19297524Y4349333D01*
X19259429Y4273143D01*
X19259429Y4196952D01*
X19640381Y4120762D01*
X18992762Y4387429D02*
X18802286Y3854095D01*
X18611810Y4387429D01*
X17278476Y3854095D02*
X17735619Y3854095D01*
X17507048Y3854095D02*
X17507048Y4654095D01*
X17583238Y4539810D01*
X17659429Y4463619D01*
X17735619Y4425524D01*
X16935619Y3930286D02*
X16897524Y3892190D01*
X16935619Y3854095D01*
X16973714Y3892190D01*
X16935619Y3930286D01*
X16935619Y3854095D01*
X16402286Y4654095D02*
X16326095Y4654095D01*
X16249905Y4616000D01*
X16211810Y4577905D01*
X16173714Y4501714D01*
X16135619Y4349333D01*
X16135619Y4158857D01*
X16173714Y4006476D01*
X16211810Y3930286D01*
X16249905Y3892190D01*
X16326095Y3854095D01*
X16402286Y3854095D01*
X16478476Y3892190D01*
X16516572Y3930286D01*
X16554667Y4006476D01*
X16592762Y4158857D01*
X16592762Y4349333D01*
X16554667Y4501714D01*
X16516572Y4577905D01*
X16478476Y4616000D01*
X16402286Y4654095D01*
X21202286Y2534095D02*
X21202286Y3334095D01*
X21011810Y3334095D01*
X20897524Y3296000D01*
X20821333Y3219810D01*
X20783238Y3143619D01*
X20745143Y2991238D01*
X20745143Y2876952D01*
X20783238Y2724571D01*
X20821333Y2648381D01*
X20897524Y2572190D01*
X21011810Y2534095D01*
X21202286Y2534095D01*
X20097524Y2572190D02*
X20173714Y2534095D01*
X20326095Y2534095D01*
X20402286Y2572190D01*
X20440381Y2648381D01*
X20440381Y2953143D01*
X20402286Y3029333D01*
X20326095Y3067429D01*
X20173714Y3067429D01*
X20097524Y3029333D01*
X20059429Y2953143D01*
X20059429Y2876952D01*
X20440381Y2800762D01*
X19373715Y2572190D02*
X19449905Y2534095D01*
X19602286Y2534095D01*
X19678477Y2572190D01*
X19716572Y2610286D01*
X19754667Y2686476D01*
X19754667Y2915048D01*
X19716572Y2991238D01*
X19678477Y3029333D01*
X19602286Y3067429D01*
X19449905Y3067429D01*
X19373715Y3029333D01*
X19030858Y2838857D02*
X18421334Y2838857D01*
X18078477Y3257905D02*
X18040382Y3296000D01*
X17964191Y3334095D01*
X17773715Y3334095D01*
X17697525Y3296000D01*
X17659429Y3257905D01*
X17621334Y3181714D01*
X17621334Y3105524D01*
X17659429Y2991238D01*
X18116572Y2534095D01*
X17621334Y2534095D01*
X17126096Y3334095D02*
X17049905Y3334095D01*
X16973715Y3296000D01*
X16935620Y3257905D01*
X16897524Y3181714D01*
X16859429Y3029333D01*
X16859429Y2838857D01*
X16897524Y2686476D01*
X16935620Y2610286D01*
X16973715Y2572190D01*
X17049905Y2534095D01*
X17126096Y2534095D01*
X17202286Y2572190D01*
X17240382Y2610286D01*
X17278477Y2686476D01*
X17316572Y2838857D01*
X17316572Y3029333D01*
X17278477Y3181714D01*
X17240382Y3257905D01*
X17202286Y3296000D01*
X17126096Y3334095D01*
X16097524Y2534095D02*
X16554667Y2534095D01*
X16326096Y2534095D02*
X16326096Y3334095D01*
X16402286Y3219810D01*
X16478477Y3143619D01*
X16554667Y3105524D01*
X15373714Y3334095D02*
X15754667Y3334095D01*
X15792762Y2953143D01*
X15754667Y2991238D01*
X15678476Y3029333D01*
X15488000Y3029333D01*
X15411810Y2991238D01*
X15373714Y2953143D01*
X15335619Y2876952D01*
X15335619Y2686476D01*
X15373714Y2610286D01*
X15411810Y2572190D01*
X15488000Y2534095D01*
X15678476Y2534095D01*
X15754667Y2572190D01*
X15792762Y2610286D01*
D10*
X10391667Y55374333D02*
X9958334Y55374333D01*
X10191667Y55107667D01*
X10091667Y55107667D01*
X10025000Y55074333D01*
X9991667Y55041000D01*
X9958334Y54974333D01*
X9958334Y54807667D01*
X9991667Y54741000D01*
X10025000Y54707667D01*
X10091667Y54674333D01*
X10291667Y54674333D01*
X10358334Y54707667D01*
X10391667Y54741000D01*
X9758333Y55374333D02*
X9525000Y54674333D01*
X9291667Y55374333D01*
X9125000Y55374333D02*
X8691667Y55374333D01*
X8925000Y55107667D01*
X8825000Y55107667D01*
X8758333Y55074333D01*
X8725000Y55041000D01*
X8691667Y54974333D01*
X8691667Y54807667D01*
X8725000Y54741000D01*
X8758333Y54707667D01*
X8825000Y54674333D01*
X9025000Y54674333D01*
X9091667Y54707667D01*
X9125000Y54741000D01*
X13233333Y55341000D02*
X13299999Y55374333D01*
X13399999Y55374333D01*
X13499999Y55341000D01*
X13566666Y55274333D01*
X13599999Y55207667D01*
X13633333Y55074333D01*
X13633333Y54974333D01*
X13599999Y54841000D01*
X13566666Y54774333D01*
X13499999Y54707667D01*
X13399999Y54674333D01*
X13333333Y54674333D01*
X13233333Y54707667D01*
X13199999Y54741000D01*
X13199999Y54974333D01*
X13333333Y54974333D01*
X12899999Y54674333D02*
X12899999Y55374333D01*
X12499999Y54674333D01*
X12499999Y55374333D01*
X12166666Y54674333D02*
X12166666Y55374333D01*
X12000000Y55374333D01*
X11900000Y55341000D01*
X11833333Y55274333D01*
X11800000Y55207667D01*
X11766666Y55074333D01*
X11766666Y54974333D01*
X11800000Y54841000D01*
X11833333Y54774333D01*
X11900000Y54707667D01*
X12000000Y54674333D01*
X12166666Y54674333D01*
X17358333Y54707667D02*
X17258333Y54674333D01*
X17091666Y54674333D01*
X17024999Y54707667D01*
X16991666Y54741000D01*
X16958333Y54807667D01*
X16958333Y54874333D01*
X16991666Y54941000D01*
X17024999Y54974333D01*
X17091666Y55007667D01*
X17224999Y55041000D01*
X17291666Y55074333D01*
X17324999Y55107667D01*
X17358333Y55174333D01*
X17358333Y55241000D01*
X17324999Y55307667D01*
X17291666Y55341000D01*
X17224999Y55374333D01*
X17058333Y55374333D01*
X16958333Y55341000D01*
X16724999Y55374333D02*
X16558332Y54674333D01*
X16424999Y55174333D01*
X16291666Y54674333D01*
X16124999Y55374333D01*
X15858332Y54674333D02*
X15858332Y55374333D01*
X15691666Y55374333D01*
X15591666Y55341000D01*
X15524999Y55274333D01*
X15491666Y55207667D01*
X15458332Y55074333D01*
X15458332Y54974333D01*
X15491666Y54841000D01*
X15524999Y54774333D01*
X15591666Y54707667D01*
X15691666Y54674333D01*
X15858332Y54674333D01*
X15158332Y54674333D02*
X15158332Y55374333D01*
X14691666Y55374333D02*
X14558333Y55374333D01*
X14491666Y55341000D01*
X14424999Y55274333D01*
X14391666Y55141000D01*
X14391666Y54907667D01*
X14424999Y54774333D01*
X14491666Y54707667D01*
X14558333Y54674333D01*
X14691666Y54674333D01*
X14758333Y54707667D01*
X14824999Y54774333D01*
X14858333Y54907667D01*
X14858333Y55141000D01*
X14824999Y55274333D01*
X14758333Y55341000D01*
X14691666Y55374333D01*
X21268334Y54707667D02*
X21168334Y54674333D01*
X21001667Y54674333D01*
X20935000Y54707667D01*
X20901667Y54741000D01*
X20868334Y54807667D01*
X20868334Y54874333D01*
X20901667Y54941000D01*
X20935000Y54974333D01*
X21001667Y55007667D01*
X21135000Y55041000D01*
X21201667Y55074333D01*
X21235000Y55107667D01*
X21268334Y55174333D01*
X21268334Y55241000D01*
X21235000Y55307667D01*
X21201667Y55341000D01*
X21135000Y55374333D01*
X20968334Y55374333D01*
X20868334Y55341000D01*
X20635000Y55374333D02*
X20468333Y54674333D01*
X20335000Y55174333D01*
X20201667Y54674333D01*
X20035000Y55374333D01*
X19368333Y54741000D02*
X19401667Y54707667D01*
X19501667Y54674333D01*
X19568333Y54674333D01*
X19668333Y54707667D01*
X19735000Y54774333D01*
X19768333Y54841000D01*
X19801667Y54974333D01*
X19801667Y55074333D01*
X19768333Y55207667D01*
X19735000Y55274333D01*
X19668333Y55341000D01*
X19568333Y55374333D01*
X19501667Y55374333D01*
X19401667Y55341000D01*
X19368333Y55307667D01*
X18735000Y54674333D02*
X19068333Y54674333D01*
X19068333Y55374333D01*
X18501666Y54674333D02*
X18501666Y55374333D01*
X18101666Y54674333D02*
X18401666Y55074333D01*
X18101666Y55374333D02*
X18501666Y54974333D01*
X20218333Y54071000D02*
X20284999Y54104333D01*
X20384999Y54104333D01*
X20484999Y54071000D01*
X20551666Y54004333D01*
X20584999Y53937667D01*
X20618333Y53804333D01*
X20618333Y53704333D01*
X20584999Y53571000D01*
X20551666Y53504333D01*
X20484999Y53437667D01*
X20384999Y53404333D01*
X20318333Y53404333D01*
X20218333Y53437667D01*
X20184999Y53471000D01*
X20184999Y53704333D01*
X20318333Y53704333D01*
X19884999Y53404333D02*
X19884999Y54104333D01*
X19484999Y53404333D01*
X19484999Y54104333D01*
X19151666Y53404333D02*
X19151666Y54104333D01*
X18985000Y54104333D01*
X18885000Y54071000D01*
X18818333Y54004333D01*
X18785000Y53937667D01*
X18751666Y53804333D01*
X18751666Y53704333D01*
X18785000Y53571000D01*
X18818333Y53504333D01*
X18885000Y53437667D01*
X18985000Y53404333D01*
X19151666Y53404333D01*
X16281333Y54104333D02*
X15881333Y54104333D01*
X16081333Y53404333D02*
X16081333Y54104333D01*
X15714667Y54104333D02*
X15248000Y53404333D01*
X15248000Y54104333D02*
X15714667Y53404333D01*
X12816666Y53404333D02*
X13050000Y53737667D01*
X13216666Y53404333D02*
X13216666Y54104333D01*
X12950000Y54104333D01*
X12883333Y54071000D01*
X12850000Y54037667D01*
X12816666Y53971000D01*
X12816666Y53871000D01*
X12850000Y53804333D01*
X12883333Y53771000D01*
X12950000Y53737667D01*
X13216666Y53737667D01*
X12583333Y54104333D02*
X12116666Y53404333D01*
X12116666Y54104333D02*
X12583333Y53404333D01*
X10391667Y54104333D02*
X9958334Y54104333D01*
X10191667Y53837667D01*
X10091667Y53837667D01*
X10025000Y53804333D01*
X9991667Y53771000D01*
X9958334Y53704333D01*
X9958334Y53537667D01*
X9991667Y53471000D01*
X10025000Y53437667D01*
X10091667Y53404333D01*
X10291667Y53404333D01*
X10358334Y53437667D01*
X10391667Y53471000D01*
X9758333Y54104333D02*
X9525000Y53404333D01*
X9291667Y54104333D01*
X9125000Y54104333D02*
X8691667Y54104333D01*
X8925000Y53837667D01*
X8825000Y53837667D01*
X8758333Y53804333D01*
X8725000Y53771000D01*
X8691667Y53704333D01*
X8691667Y53537667D01*
X8725000Y53471000D01*
X8758333Y53437667D01*
X8825000Y53404333D01*
X9025000Y53404333D01*
X9091667Y53437667D01*
X9125000Y53471000D01*
D11*
X5080000Y53086000D02*
X21590000Y53086000D01*
X21590000Y53086000D02*
X21590000Y55626000D01*
X21590000Y55626000D02*
X5080000Y55626000D01*
X5080000Y55626000D02*
X5080000Y53086000D01*
X5080000Y53086000D02*
X5080000Y54991000D01*
X5080000Y54356000D02*
X21590000Y54356000D01*
X17780000Y53213000D02*
X17780000Y55499000D01*
X13970000Y55499000D02*
X13970000Y53213000D01*
X11176000Y55499000D02*
X11176000Y53213000D01*
X7874000Y55499000D02*
X7874000Y53213000D01*
D10*
X6900000Y53771000D02*
X6800000Y53737667D01*
X6766667Y53704333D01*
X6733333Y53637667D01*
X6733333Y53537667D01*
X6766667Y53471000D01*
X6800000Y53437667D01*
X6866667Y53404333D01*
X7133333Y53404333D01*
X7133333Y54104333D01*
X6900000Y54104333D01*
X6833333Y54071000D01*
X6800000Y54037667D01*
X6766667Y53971000D01*
X6766667Y53904333D01*
X6800000Y53837667D01*
X6833333Y53804333D01*
X6900000Y53771000D01*
X7133333Y53771000D01*
X6533333Y54104333D02*
X6133333Y54104333D01*
X6333333Y53404333D02*
X6333333Y54104333D01*
X5766667Y54104333D02*
X5700000Y54104333D01*
X5633334Y54071000D01*
X5600000Y54037667D01*
X5566667Y53971000D01*
X5533334Y53837667D01*
X5533334Y53671000D01*
X5566667Y53537667D01*
X5600000Y53471000D01*
X5633334Y53437667D01*
X5700000Y53404333D01*
X5766667Y53404333D01*
X5833334Y53437667D01*
X5866667Y53471000D01*
X5900000Y53537667D01*
X5933334Y53671000D01*
X5933334Y53837667D01*
X5900000Y53971000D01*
X5866667Y54037667D01*
X5833334Y54071000D01*
X5766667Y54104333D01*
X7216667Y55374333D02*
X6783334Y55374333D01*
X7016667Y55107667D01*
X6916667Y55107667D01*
X6850000Y55074333D01*
X6816667Y55041000D01*
X6783334Y54974333D01*
X6783334Y54807667D01*
X6816667Y54741000D01*
X6850000Y54707667D01*
X6916667Y54674333D01*
X7116667Y54674333D01*
X7183334Y54707667D01*
X7216667Y54741000D01*
X6583333Y55374333D02*
X6350000Y54674333D01*
X6116667Y55374333D01*
X5950000Y55374333D02*
X5516667Y55374333D01*
X5750000Y55107667D01*
X5650000Y55107667D01*
X5583333Y55074333D01*
X5550000Y55041000D01*
X5516667Y54974333D01*
X5516667Y54807667D01*
X5550000Y54741000D01*
X5583333Y54707667D01*
X5650000Y54674333D01*
X5850000Y54674333D01*
X5916667Y54707667D01*
X5950000Y54741000D01*
D12*
X17763619Y43917238D02*
X17620762Y43869619D01*
X17382666Y43869619D01*
X17287428Y43917238D01*
X17239809Y43964857D01*
X17192190Y44060095D01*
X17192190Y44155333D01*
X17239809Y44250571D01*
X17287428Y44298190D01*
X17382666Y44345810D01*
X17573143Y44393429D01*
X17668381Y44441048D01*
X17716000Y44488667D01*
X17763619Y44583905D01*
X17763619Y44679143D01*
X17716000Y44774381D01*
X17668381Y44822000D01*
X17573143Y44869619D01*
X17335047Y44869619D01*
X17192190Y44822000D01*
X16906476Y44869619D02*
X16335047Y44869619D01*
X16620762Y43869619D02*
X16620762Y44869619D01*
X16001714Y43869619D02*
X16001714Y44869619D01*
X15668380Y44155333D01*
X15335047Y44869619D01*
X15335047Y43869619D01*
X14954095Y44869619D02*
X14335047Y44869619D01*
X14668381Y44488667D01*
X14525523Y44488667D01*
X14430285Y44441048D01*
X14382666Y44393429D01*
X14335047Y44298190D01*
X14335047Y44060095D01*
X14382666Y43964857D01*
X14430285Y43917238D01*
X14525523Y43869619D01*
X14811238Y43869619D01*
X14906476Y43917238D01*
X14954095Y43964857D01*
X13954095Y44774381D02*
X13906476Y44822000D01*
X13811238Y44869619D01*
X13573142Y44869619D01*
X13477904Y44822000D01*
X13430285Y44774381D01*
X13382666Y44679143D01*
X13382666Y44583905D01*
X13430285Y44441048D01*
X14001714Y43869619D01*
X13382666Y43869619D01*
X12620761Y44393429D02*
X12954095Y44393429D01*
X12954095Y43869619D02*
X12954095Y44869619D01*
X12477904Y44869619D01*
X11906476Y44869619D02*
X11811237Y44869619D01*
X11715999Y44822000D01*
X11668380Y44774381D01*
X11620761Y44679143D01*
X11573142Y44488667D01*
X11573142Y44250571D01*
X11620761Y44060095D01*
X11668380Y43964857D01*
X11715999Y43917238D01*
X11811237Y43869619D01*
X11906476Y43869619D01*
X12001714Y43917238D01*
X12049333Y43964857D01*
X12096952Y44060095D01*
X12144571Y44250571D01*
X12144571Y44488667D01*
X12096952Y44679143D01*
X12049333Y44774381D01*
X12001714Y44822000D01*
X11906476Y44869619D01*
X11239809Y44869619D02*
X10620761Y44869619D01*
X10954095Y44488667D01*
X10811237Y44488667D01*
X10715999Y44441048D01*
X10668380Y44393429D01*
X10620761Y44298190D01*
X10620761Y44060095D01*
X10668380Y43964857D01*
X10715999Y43917238D01*
X10811237Y43869619D01*
X11096952Y43869619D01*
X11192190Y43917238D01*
X11239809Y43964857D01*
X10001714Y44869619D02*
X9906475Y44869619D01*
X9811237Y44822000D01*
X9763618Y44774381D01*
X9715999Y44679143D01*
X9668380Y44488667D01*
X9668380Y44250571D01*
X9715999Y44060095D01*
X9763618Y43964857D01*
X9811237Y43917238D01*
X9906475Y43869619D01*
X10001714Y43869619D01*
X10096952Y43917238D01*
X10144571Y43964857D01*
X10192190Y44060095D01*
X10239809Y44250571D01*
X10239809Y44488667D01*
X10192190Y44679143D01*
X10144571Y44774381D01*
X10096952Y44822000D01*
X10001714Y44869619D01*
X17144572Y42314857D02*
X17192191Y42267238D01*
X17335048Y42219619D01*
X17430286Y42219619D01*
X17573144Y42267238D01*
X17668382Y42362476D01*
X17716001Y42457714D01*
X17763620Y42648190D01*
X17763620Y42791048D01*
X17716001Y42981524D01*
X17668382Y43076762D01*
X17573144Y43172000D01*
X17430286Y43219619D01*
X17335048Y43219619D01*
X17192191Y43172000D01*
X17144572Y43124381D01*
X16573144Y42219619D02*
X16668382Y42267238D01*
X16716001Y42314857D01*
X16763620Y42410095D01*
X16763620Y42695810D01*
X16716001Y42791048D01*
X16668382Y42838667D01*
X16573144Y42886286D01*
X16430286Y42886286D01*
X16335048Y42838667D01*
X16287429Y42791048D01*
X16239810Y42695810D01*
X16239810Y42410095D01*
X16287429Y42314857D01*
X16335048Y42267238D01*
X16430286Y42219619D01*
X16573144Y42219619D01*
X15811239Y42219619D02*
X15811239Y42886286D01*
X15811239Y42695810D02*
X15763620Y42791048D01*
X15716001Y42838667D01*
X15620763Y42886286D01*
X15525524Y42886286D01*
X14811238Y42267238D02*
X14906476Y42219619D01*
X15096953Y42219619D01*
X15192191Y42267238D01*
X15239810Y42362476D01*
X15239810Y42743429D01*
X15192191Y42838667D01*
X15096953Y42886286D01*
X14906476Y42886286D01*
X14811238Y42838667D01*
X14763619Y42743429D01*
X14763619Y42648190D01*
X15239810Y42552952D01*
X13239809Y42743429D02*
X13096952Y42695810D01*
X13049333Y42648190D01*
X13001714Y42552952D01*
X13001714Y42410095D01*
X13049333Y42314857D01*
X13096952Y42267238D01*
X13192190Y42219619D01*
X13573143Y42219619D01*
X13573143Y43219619D01*
X13239809Y43219619D01*
X13144571Y43172000D01*
X13096952Y43124381D01*
X13049333Y43029143D01*
X13049333Y42933905D01*
X13096952Y42838667D01*
X13144571Y42791048D01*
X13239809Y42743429D01*
X13573143Y42743429D01*
X12430286Y42219619D02*
X12525524Y42267238D01*
X12573143Y42314857D01*
X12620762Y42410095D01*
X12620762Y42695810D01*
X12573143Y42791048D01*
X12525524Y42838667D01*
X12430286Y42886286D01*
X12287428Y42886286D01*
X12192190Y42838667D01*
X12144571Y42791048D01*
X12096952Y42695810D01*
X12096952Y42410095D01*
X12144571Y42314857D01*
X12192190Y42267238D01*
X12287428Y42219619D01*
X12430286Y42219619D01*
X11239809Y42219619D02*
X11239809Y42743429D01*
X11287428Y42838667D01*
X11382666Y42886286D01*
X11573143Y42886286D01*
X11668381Y42838667D01*
X11239809Y42267238D02*
X11335047Y42219619D01*
X11573143Y42219619D01*
X11668381Y42267238D01*
X11716000Y42362476D01*
X11716000Y42457714D01*
X11668381Y42552952D01*
X11573143Y42600571D01*
X11335047Y42600571D01*
X11239809Y42648190D01*
X10763619Y42219619D02*
X10763619Y42886286D01*
X10763619Y42695810D02*
X10716000Y42791048D01*
X10668381Y42838667D01*
X10573143Y42886286D01*
X10477904Y42886286D01*
X9715999Y42219619D02*
X9715999Y43219619D01*
X9715999Y42267238D02*
X9811237Y42219619D01*
X10001714Y42219619D01*
X10096952Y42267238D01*
X10144571Y42314857D01*
X10192190Y42410095D01*
X10192190Y42695810D01*
X10144571Y42791048D01*
X10096952Y42838667D01*
X10001714Y42886286D01*
X9811237Y42886286D01*
X9715999Y42838667D01*
X21835048Y40569619D02*
X21835048Y41569619D01*
X21596953Y41569619D01*
X21454095Y41522000D01*
X21358857Y41426762D01*
X21311238Y41331524D01*
X21263619Y41141048D01*
X21263619Y40998190D01*
X21311238Y40807714D01*
X21358857Y40712476D01*
X21454095Y40617238D01*
X21596953Y40569619D01*
X21835048Y40569619D01*
X20454095Y40617238D02*
X20549333Y40569619D01*
X20739810Y40569619D01*
X20835048Y40617238D01*
X20882667Y40712476D01*
X20882667Y41093429D01*
X20835048Y41188667D01*
X20739810Y41236286D01*
X20549333Y41236286D01*
X20454095Y41188667D01*
X20406476Y41093429D01*
X20406476Y40998190D01*
X20882667Y40902952D01*
X20025524Y40617238D02*
X19930286Y40569619D01*
X19739810Y40569619D01*
X19644571Y40617238D01*
X19596952Y40712476D01*
X19596952Y40760095D01*
X19644571Y40855333D01*
X19739810Y40902952D01*
X19882667Y40902952D01*
X19977905Y40950571D01*
X20025524Y41045810D01*
X20025524Y41093429D01*
X19977905Y41188667D01*
X19882667Y41236286D01*
X19739810Y41236286D01*
X19644571Y41188667D01*
X19168381Y40569619D02*
X19168381Y41236286D01*
X19168381Y41569619D02*
X19216000Y41522000D01*
X19168381Y41474381D01*
X19120762Y41522000D01*
X19168381Y41569619D01*
X19168381Y41474381D01*
X18263619Y41236286D02*
X18263619Y40426762D01*
X18311238Y40331524D01*
X18358857Y40283905D01*
X18454096Y40236286D01*
X18596953Y40236286D01*
X18692191Y40283905D01*
X18263619Y40617238D02*
X18358857Y40569619D01*
X18549334Y40569619D01*
X18644572Y40617238D01*
X18692191Y40664857D01*
X18739810Y40760095D01*
X18739810Y41045810D01*
X18692191Y41141048D01*
X18644572Y41188667D01*
X18549334Y41236286D01*
X18358857Y41236286D01*
X18263619Y41188667D01*
X17787429Y41236286D02*
X17787429Y40569619D01*
X17787429Y41141048D02*
X17739810Y41188667D01*
X17644572Y41236286D01*
X17501714Y41236286D01*
X17406476Y41188667D01*
X17358857Y41093429D01*
X17358857Y40569619D01*
X16501714Y40617238D02*
X16596952Y40569619D01*
X16787429Y40569619D01*
X16882667Y40617238D01*
X16930286Y40712476D01*
X16930286Y41093429D01*
X16882667Y41188667D01*
X16787429Y41236286D01*
X16596952Y41236286D01*
X16501714Y41188667D01*
X16454095Y41093429D01*
X16454095Y40998190D01*
X16930286Y40902952D01*
X15596952Y40569619D02*
X15596952Y41569619D01*
X15596952Y40617238D02*
X15692190Y40569619D01*
X15882667Y40569619D01*
X15977905Y40617238D01*
X16025524Y40664857D01*
X16073143Y40760095D01*
X16073143Y41045810D01*
X16025524Y41141048D01*
X15977905Y41188667D01*
X15882667Y41236286D01*
X15692190Y41236286D01*
X15596952Y41188667D01*
X14358857Y40569619D02*
X14358857Y41569619D01*
X14358857Y41188667D02*
X14263619Y41236286D01*
X14073142Y41236286D01*
X13977904Y41188667D01*
X13930285Y41141048D01*
X13882666Y41045810D01*
X13882666Y40760095D01*
X13930285Y40664857D01*
X13977904Y40617238D01*
X14073142Y40569619D01*
X14263619Y40569619D01*
X14358857Y40617238D01*
X13549333Y41236286D02*
X13311238Y40569619D01*
X13073142Y41236286D02*
X13311238Y40569619D01*
X13406476Y40331524D01*
X13454095Y40283905D01*
X13549333Y40236286D01*
X11930285Y40569619D02*
X11930285Y41569619D01*
X11930285Y41093429D02*
X11358856Y41093429D01*
X11358856Y40569619D02*
X11358856Y41569619D01*
X10977904Y41569619D02*
X10739809Y40569619D01*
X10549332Y41283905D01*
X10358856Y40569619D01*
X10120761Y41569619D01*
X9073142Y41569619D02*
X8835047Y40569619D01*
X8644570Y41283905D01*
X8454094Y40569619D01*
X8215999Y41569619D01*
X7692190Y40569619D02*
X7787428Y40617238D01*
X7835047Y40664857D01*
X7882666Y40760095D01*
X7882666Y41045810D01*
X7835047Y41141048D01*
X7787428Y41188667D01*
X7692190Y41236286D01*
X7549332Y41236286D01*
X7454094Y41188667D01*
X7406475Y41141048D01*
X7358856Y41045810D01*
X7358856Y40760095D01*
X7406475Y40664857D01*
X7454094Y40617238D01*
X7549332Y40569619D01*
X7692190Y40569619D01*
X6930285Y41236286D02*
X6930285Y40569619D01*
X6930285Y41141048D02*
X6882666Y41188667D01*
X6787428Y41236286D01*
X6644570Y41236286D01*
X6549332Y41188667D01*
X6501713Y41093429D01*
X6501713Y40569619D01*
X5596951Y41236286D02*
X5596951Y40426762D01*
X5644570Y40331524D01*
X5692189Y40283905D01*
X5787428Y40236286D01*
X5930285Y40236286D01*
X6025523Y40283905D01*
X5596951Y40617238D02*
X5692189Y40569619D01*
X5882666Y40569619D01*
X5977904Y40617238D01*
X6025523Y40664857D01*
X6073142Y40760095D01*
X6073142Y41045810D01*
X6025523Y41141048D01*
X5977904Y41188667D01*
X5882666Y41236286D01*
X5692189Y41236286D01*
X5596951Y41188667D01*
D13*
X19945143Y35350095D02*
X20211810Y35731048D01*
X20402286Y35350095D02*
X20402286Y36150095D01*
X20097524Y36150095D01*
X20021333Y36112000D01*
X19983238Y36073905D01*
X19945143Y35997714D01*
X19945143Y35883429D01*
X19983238Y35807238D01*
X20021333Y35769143D01*
X20097524Y35731048D01*
X20402286Y35731048D01*
X19297524Y35388190D02*
X19373714Y35350095D01*
X19526095Y35350095D01*
X19602286Y35388190D01*
X19640381Y35464381D01*
X19640381Y35769143D01*
X19602286Y35845333D01*
X19526095Y35883429D01*
X19373714Y35883429D01*
X19297524Y35845333D01*
X19259429Y35769143D01*
X19259429Y35692952D01*
X19640381Y35616762D01*
X18992762Y35883429D02*
X18802286Y35350095D01*
X18611810Y35883429D01*
X17278476Y35350095D02*
X17735619Y35350095D01*
X17507048Y35350095D02*
X17507048Y36150095D01*
X17583238Y36035810D01*
X17659429Y35959619D01*
X17735619Y35921524D01*
X16935619Y35426286D02*
X16897524Y35388190D01*
X16935619Y35350095D01*
X16973714Y35388190D01*
X16935619Y35426286D01*
X16935619Y35350095D01*
X16402286Y36150095D02*
X16326095Y36150095D01*
X16249905Y36112000D01*
X16211810Y36073905D01*
X16173714Y35997714D01*
X16135619Y35845333D01*
X16135619Y35654857D01*
X16173714Y35502476D01*
X16211810Y35426286D01*
X16249905Y35388190D01*
X16326095Y35350095D01*
X16402286Y35350095D01*
X16478476Y35388190D01*
X16516572Y35426286D01*
X16554667Y35502476D01*
X16592762Y35654857D01*
X16592762Y35845333D01*
X16554667Y35997714D01*
X16516572Y36073905D01*
X16478476Y36112000D01*
X16402286Y36150095D01*
X21202286Y34030095D02*
X21202286Y34830095D01*
X21011810Y34830095D01*
X20897524Y34792000D01*
X20821333Y34715810D01*
X20783238Y34639619D01*
X20745143Y34487238D01*
X20745143Y34372952D01*
X20783238Y34220571D01*
X20821333Y34144381D01*
X20897524Y34068190D01*
X21011810Y34030095D01*
X21202286Y34030095D01*
X20097524Y34068190D02*
X20173714Y34030095D01*
X20326095Y34030095D01*
X20402286Y34068190D01*
X20440381Y34144381D01*
X20440381Y34449143D01*
X20402286Y34525333D01*
X20326095Y34563429D01*
X20173714Y34563429D01*
X20097524Y34525333D01*
X20059429Y34449143D01*
X20059429Y34372952D01*
X20440381Y34296762D01*
X19373715Y34068190D02*
X19449905Y34030095D01*
X19602286Y34030095D01*
X19678477Y34068190D01*
X19716572Y34106286D01*
X19754667Y34182476D01*
X19754667Y34411048D01*
X19716572Y34487238D01*
X19678477Y34525333D01*
X19602286Y34563429D01*
X19449905Y34563429D01*
X19373715Y34525333D01*
X19030858Y34334857D02*
X18421334Y34334857D01*
X18078477Y34753905D02*
X18040382Y34792000D01*
X17964191Y34830095D01*
X17773715Y34830095D01*
X17697525Y34792000D01*
X17659429Y34753905D01*
X17621334Y34677714D01*
X17621334Y34601524D01*
X17659429Y34487238D01*
X18116572Y34030095D01*
X17621334Y34030095D01*
X17126096Y34830095D02*
X17049905Y34830095D01*
X16973715Y34792000D01*
X16935620Y34753905D01*
X16897524Y34677714D01*
X16859429Y34525333D01*
X16859429Y34334857D01*
X16897524Y34182476D01*
X16935620Y34106286D01*
X16973715Y34068190D01*
X17049905Y34030095D01*
X17126096Y34030095D01*
X17202286Y34068190D01*
X17240382Y34106286D01*
X17278477Y34182476D01*
X17316572Y34334857D01*
X17316572Y34525333D01*
X17278477Y34677714D01*
X17240382Y34753905D01*
X17202286Y34792000D01*
X17126096Y34830095D01*
X16097524Y34030095D02*
X16554667Y34030095D01*
X16326096Y34030095D02*
X16326096Y34830095D01*
X16402286Y34715810D01*
X16478477Y34639619D01*
X16554667Y34601524D01*
X15373714Y34830095D02*
X15754667Y34830095D01*
X15792762Y34449143D01*
X15754667Y34487238D01*
X15678476Y34525333D01*
X15488000Y34525333D01*
X15411810Y34487238D01*
X15373714Y34449143D01*
X15335619Y34372952D01*
X15335619Y34182476D01*
X15373714Y34106286D01*
X15411810Y34068190D01*
X15488000Y34030095D01*
X15678476Y34030095D01*
X15754667Y34068190D01*
X15792762Y34106286D01*
X19945143Y66846095D02*
X20211810Y67227048D01*
X20402286Y66846095D02*
X20402286Y67646095D01*
X20097524Y67646095D01*
X20021333Y67608000D01*
X19983238Y67569905D01*
X19945143Y67493714D01*
X19945143Y67379429D01*
X19983238Y67303238D01*
X20021333Y67265143D01*
X20097524Y67227048D01*
X20402286Y67227048D01*
X19297524Y66884190D02*
X19373714Y66846095D01*
X19526095Y66846095D01*
X19602286Y66884190D01*
X19640381Y66960381D01*
X19640381Y67265143D01*
X19602286Y67341333D01*
X19526095Y67379429D01*
X19373714Y67379429D01*
X19297524Y67341333D01*
X19259429Y67265143D01*
X19259429Y67188952D01*
X19640381Y67112762D01*
X18992762Y67379429D02*
X18802286Y66846095D01*
X18611810Y67379429D01*
X17278476Y66846095D02*
X17735619Y66846095D01*
X17507048Y66846095D02*
X17507048Y67646095D01*
X17583238Y67531810D01*
X17659429Y67455619D01*
X17735619Y67417524D01*
X16935619Y66922286D02*
X16897524Y66884190D01*
X16935619Y66846095D01*
X16973714Y66884190D01*
X16935619Y66922286D01*
X16935619Y66846095D01*
X16402286Y67646095D02*
X16326095Y67646095D01*
X16249905Y67608000D01*
X16211810Y67569905D01*
X16173714Y67493714D01*
X16135619Y67341333D01*
X16135619Y67150857D01*
X16173714Y66998476D01*
X16211810Y66922286D01*
X16249905Y66884190D01*
X16326095Y66846095D01*
X16402286Y66846095D01*
X16478476Y66884190D01*
X16516572Y66922286D01*
X16554667Y66998476D01*
X16592762Y67150857D01*
X16592762Y67341333D01*
X16554667Y67493714D01*
X16516572Y67569905D01*
X16478476Y67608000D01*
X16402286Y67646095D01*
X21202286Y65526095D02*
X21202286Y66326095D01*
X21011810Y66326095D01*
X20897524Y66288000D01*
X20821333Y66211810D01*
X20783238Y66135619D01*
X20745143Y65983238D01*
X20745143Y65868952D01*
X20783238Y65716571D01*
X20821333Y65640381D01*
X20897524Y65564190D01*
X21011810Y65526095D01*
X21202286Y65526095D01*
X20097524Y65564190D02*
X20173714Y65526095D01*
X20326095Y65526095D01*
X20402286Y65564190D01*
X20440381Y65640381D01*
X20440381Y65945143D01*
X20402286Y66021333D01*
X20326095Y66059429D01*
X20173714Y66059429D01*
X20097524Y66021333D01*
X20059429Y65945143D01*
X20059429Y65868952D01*
X20440381Y65792762D01*
X19373715Y65564190D02*
X19449905Y65526095D01*
X19602286Y65526095D01*
X19678477Y65564190D01*
X19716572Y65602286D01*
X19754667Y65678476D01*
X19754667Y65907048D01*
X19716572Y65983238D01*
X19678477Y66021333D01*
X19602286Y66059429D01*
X19449905Y66059429D01*
X19373715Y66021333D01*
X19030858Y65830857D02*
X18421334Y65830857D01*
X18078477Y66249905D02*
X18040382Y66288000D01*
X17964191Y66326095D01*
X17773715Y66326095D01*
X17697525Y66288000D01*
X17659429Y66249905D01*
X17621334Y66173714D01*
X17621334Y66097524D01*
X17659429Y65983238D01*
X18116572Y65526095D01*
X17621334Y65526095D01*
X17126096Y66326095D02*
X17049905Y66326095D01*
X16973715Y66288000D01*
X16935620Y66249905D01*
X16897524Y66173714D01*
X16859429Y66021333D01*
X16859429Y65830857D01*
X16897524Y65678476D01*
X16935620Y65602286D01*
X16973715Y65564190D01*
X17049905Y65526095D01*
X17126096Y65526095D01*
X17202286Y65564190D01*
X17240382Y65602286D01*
X17278477Y65678476D01*
X17316572Y65830857D01*
X17316572Y66021333D01*
X17278477Y66173714D01*
X17240382Y66249905D01*
X17202286Y66288000D01*
X17126096Y66326095D01*
X16097524Y65526095D02*
X16554667Y65526095D01*
X16326096Y65526095D02*
X16326096Y66326095D01*
X16402286Y66211810D01*
X16478477Y66135619D01*
X16554667Y66097524D01*
X15373714Y66326095D02*
X15754667Y66326095D01*
X15792762Y65945143D01*
X15754667Y65983238D01*
X15678476Y66021333D01*
X15488000Y66021333D01*
X15411810Y65983238D01*
X15373714Y65945143D01*
X15335619Y65868952D01*
X15335619Y65678476D01*
X15373714Y65602286D01*
X15411810Y65564190D01*
X15488000Y65526095D01*
X15678476Y65526095D01*
X15754667Y65564190D01*
X15792762Y65602286D01*
D12*
X17763619Y75413238D02*
X17620762Y75365619D01*
X17382666Y75365619D01*
X17287428Y75413238D01*
X17239809Y75460857D01*
X17192190Y75556095D01*
X17192190Y75651333D01*
X17239809Y75746571D01*
X17287428Y75794190D01*
X17382666Y75841810D01*
X17573143Y75889429D01*
X17668381Y75937048D01*
X17716000Y75984667D01*
X17763619Y76079905D01*
X17763619Y76175143D01*
X17716000Y76270381D01*
X17668381Y76318000D01*
X17573143Y76365619D01*
X17335047Y76365619D01*
X17192190Y76318000D01*
X16906476Y76365619D02*
X16335047Y76365619D01*
X16620762Y75365619D02*
X16620762Y76365619D01*
X16001714Y75365619D02*
X16001714Y76365619D01*
X15668380Y75651333D01*
X15335047Y76365619D01*
X15335047Y75365619D01*
X14954095Y76365619D02*
X14335047Y76365619D01*
X14668381Y75984667D01*
X14525523Y75984667D01*
X14430285Y75937048D01*
X14382666Y75889429D01*
X14335047Y75794190D01*
X14335047Y75556095D01*
X14382666Y75460857D01*
X14430285Y75413238D01*
X14525523Y75365619D01*
X14811238Y75365619D01*
X14906476Y75413238D01*
X14954095Y75460857D01*
X13954095Y76270381D02*
X13906476Y76318000D01*
X13811238Y76365619D01*
X13573142Y76365619D01*
X13477904Y76318000D01*
X13430285Y76270381D01*
X13382666Y76175143D01*
X13382666Y76079905D01*
X13430285Y75937048D01*
X14001714Y75365619D01*
X13382666Y75365619D01*
X12620761Y75889429D02*
X12954095Y75889429D01*
X12954095Y75365619D02*
X12954095Y76365619D01*
X12477904Y76365619D01*
X11906476Y76365619D02*
X11811237Y76365619D01*
X11715999Y76318000D01*
X11668380Y76270381D01*
X11620761Y76175143D01*
X11573142Y75984667D01*
X11573142Y75746571D01*
X11620761Y75556095D01*
X11668380Y75460857D01*
X11715999Y75413238D01*
X11811237Y75365619D01*
X11906476Y75365619D01*
X12001714Y75413238D01*
X12049333Y75460857D01*
X12096952Y75556095D01*
X12144571Y75746571D01*
X12144571Y75984667D01*
X12096952Y76175143D01*
X12049333Y76270381D01*
X12001714Y76318000D01*
X11906476Y76365619D01*
X11239809Y76365619D02*
X10620761Y76365619D01*
X10954095Y75984667D01*
X10811237Y75984667D01*
X10715999Y75937048D01*
X10668380Y75889429D01*
X10620761Y75794190D01*
X10620761Y75556095D01*
X10668380Y75460857D01*
X10715999Y75413238D01*
X10811237Y75365619D01*
X11096952Y75365619D01*
X11192190Y75413238D01*
X11239809Y75460857D01*
X10001714Y76365619D02*
X9906475Y76365619D01*
X9811237Y76318000D01*
X9763618Y76270381D01*
X9715999Y76175143D01*
X9668380Y75984667D01*
X9668380Y75746571D01*
X9715999Y75556095D01*
X9763618Y75460857D01*
X9811237Y75413238D01*
X9906475Y75365619D01*
X10001714Y75365619D01*
X10096952Y75413238D01*
X10144571Y75460857D01*
X10192190Y75556095D01*
X10239809Y75746571D01*
X10239809Y75984667D01*
X10192190Y76175143D01*
X10144571Y76270381D01*
X10096952Y76318000D01*
X10001714Y76365619D01*
X17144572Y73810857D02*
X17192191Y73763238D01*
X17335048Y73715619D01*
X17430286Y73715619D01*
X17573144Y73763238D01*
X17668382Y73858476D01*
X17716001Y73953714D01*
X17763620Y74144190D01*
X17763620Y74287048D01*
X17716001Y74477524D01*
X17668382Y74572762D01*
X17573144Y74668000D01*
X17430286Y74715619D01*
X17335048Y74715619D01*
X17192191Y74668000D01*
X17144572Y74620381D01*
X16573144Y73715619D02*
X16668382Y73763238D01*
X16716001Y73810857D01*
X16763620Y73906095D01*
X16763620Y74191810D01*
X16716001Y74287048D01*
X16668382Y74334667D01*
X16573144Y74382286D01*
X16430286Y74382286D01*
X16335048Y74334667D01*
X16287429Y74287048D01*
X16239810Y74191810D01*
X16239810Y73906095D01*
X16287429Y73810857D01*
X16335048Y73763238D01*
X16430286Y73715619D01*
X16573144Y73715619D01*
X15811239Y73715619D02*
X15811239Y74382286D01*
X15811239Y74191810D02*
X15763620Y74287048D01*
X15716001Y74334667D01*
X15620763Y74382286D01*
X15525524Y74382286D01*
X14811238Y73763238D02*
X14906476Y73715619D01*
X15096953Y73715619D01*
X15192191Y73763238D01*
X15239810Y73858476D01*
X15239810Y74239429D01*
X15192191Y74334667D01*
X15096953Y74382286D01*
X14906476Y74382286D01*
X14811238Y74334667D01*
X14763619Y74239429D01*
X14763619Y74144190D01*
X15239810Y74048952D01*
X13239809Y74239429D02*
X13096952Y74191810D01*
X13049333Y74144190D01*
X13001714Y74048952D01*
X13001714Y73906095D01*
X13049333Y73810857D01*
X13096952Y73763238D01*
X13192190Y73715619D01*
X13573143Y73715619D01*
X13573143Y74715619D01*
X13239809Y74715619D01*
X13144571Y74668000D01*
X13096952Y74620381D01*
X13049333Y74525143D01*
X13049333Y74429905D01*
X13096952Y74334667D01*
X13144571Y74287048D01*
X13239809Y74239429D01*
X13573143Y74239429D01*
X12430286Y73715619D02*
X12525524Y73763238D01*
X12573143Y73810857D01*
X12620762Y73906095D01*
X12620762Y74191810D01*
X12573143Y74287048D01*
X12525524Y74334667D01*
X12430286Y74382286D01*
X12287428Y74382286D01*
X12192190Y74334667D01*
X12144571Y74287048D01*
X12096952Y74191810D01*
X12096952Y73906095D01*
X12144571Y73810857D01*
X12192190Y73763238D01*
X12287428Y73715619D01*
X12430286Y73715619D01*
X11239809Y73715619D02*
X11239809Y74239429D01*
X11287428Y74334667D01*
X11382666Y74382286D01*
X11573143Y74382286D01*
X11668381Y74334667D01*
X11239809Y73763238D02*
X11335047Y73715619D01*
X11573143Y73715619D01*
X11668381Y73763238D01*
X11716000Y73858476D01*
X11716000Y73953714D01*
X11668381Y74048952D01*
X11573143Y74096571D01*
X11335047Y74096571D01*
X11239809Y74144190D01*
X10763619Y73715619D02*
X10763619Y74382286D01*
X10763619Y74191810D02*
X10716000Y74287048D01*
X10668381Y74334667D01*
X10573143Y74382286D01*
X10477904Y74382286D01*
X9715999Y73715619D02*
X9715999Y74715619D01*
X9715999Y73763238D02*
X9811237Y73715619D01*
X10001714Y73715619D01*
X10096952Y73763238D01*
X10144571Y73810857D01*
X10192190Y73906095D01*
X10192190Y74191810D01*
X10144571Y74287048D01*
X10096952Y74334667D01*
X10001714Y74382286D01*
X9811237Y74382286D01*
X9715999Y74334667D01*
X21835048Y72065619D02*
X21835048Y73065619D01*
X21596953Y73065619D01*
X21454095Y73018000D01*
X21358857Y72922762D01*
X21311238Y72827524D01*
X21263619Y72637048D01*
X21263619Y72494190D01*
X21311238Y72303714D01*
X21358857Y72208476D01*
X21454095Y72113238D01*
X21596953Y72065619D01*
X21835048Y72065619D01*
X20454095Y72113238D02*
X20549333Y72065619D01*
X20739810Y72065619D01*
X20835048Y72113238D01*
X20882667Y72208476D01*
X20882667Y72589429D01*
X20835048Y72684667D01*
X20739810Y72732286D01*
X20549333Y72732286D01*
X20454095Y72684667D01*
X20406476Y72589429D01*
X20406476Y72494190D01*
X20882667Y72398952D01*
X20025524Y72113238D02*
X19930286Y72065619D01*
X19739810Y72065619D01*
X19644571Y72113238D01*
X19596952Y72208476D01*
X19596952Y72256095D01*
X19644571Y72351333D01*
X19739810Y72398952D01*
X19882667Y72398952D01*
X19977905Y72446571D01*
X20025524Y72541810D01*
X20025524Y72589429D01*
X19977905Y72684667D01*
X19882667Y72732286D01*
X19739810Y72732286D01*
X19644571Y72684667D01*
X19168381Y72065619D02*
X19168381Y72732286D01*
X19168381Y73065619D02*
X19216000Y73018000D01*
X19168381Y72970381D01*
X19120762Y73018000D01*
X19168381Y73065619D01*
X19168381Y72970381D01*
X18263619Y72732286D02*
X18263619Y71922762D01*
X18311238Y71827524D01*
X18358857Y71779905D01*
X18454096Y71732286D01*
X18596953Y71732286D01*
X18692191Y71779905D01*
X18263619Y72113238D02*
X18358857Y72065619D01*
X18549334Y72065619D01*
X18644572Y72113238D01*
X18692191Y72160857D01*
X18739810Y72256095D01*
X18739810Y72541810D01*
X18692191Y72637048D01*
X18644572Y72684667D01*
X18549334Y72732286D01*
X18358857Y72732286D01*
X18263619Y72684667D01*
X17787429Y72732286D02*
X17787429Y72065619D01*
X17787429Y72637048D02*
X17739810Y72684667D01*
X17644572Y72732286D01*
X17501714Y72732286D01*
X17406476Y72684667D01*
X17358857Y72589429D01*
X17358857Y72065619D01*
X16501714Y72113238D02*
X16596952Y72065619D01*
X16787429Y72065619D01*
X16882667Y72113238D01*
X16930286Y72208476D01*
X16930286Y72589429D01*
X16882667Y72684667D01*
X16787429Y72732286D01*
X16596952Y72732286D01*
X16501714Y72684667D01*
X16454095Y72589429D01*
X16454095Y72494190D01*
X16930286Y72398952D01*
X15596952Y72065619D02*
X15596952Y73065619D01*
X15596952Y72113238D02*
X15692190Y72065619D01*
X15882667Y72065619D01*
X15977905Y72113238D01*
X16025524Y72160857D01*
X16073143Y72256095D01*
X16073143Y72541810D01*
X16025524Y72637048D01*
X15977905Y72684667D01*
X15882667Y72732286D01*
X15692190Y72732286D01*
X15596952Y72684667D01*
X14358857Y72065619D02*
X14358857Y73065619D01*
X14358857Y72684667D02*
X14263619Y72732286D01*
X14073142Y72732286D01*
X13977904Y72684667D01*
X13930285Y72637048D01*
X13882666Y72541810D01*
X13882666Y72256095D01*
X13930285Y72160857D01*
X13977904Y72113238D01*
X14073142Y72065619D01*
X14263619Y72065619D01*
X14358857Y72113238D01*
X13549333Y72732286D02*
X13311238Y72065619D01*
X13073142Y72732286D02*
X13311238Y72065619D01*
X13406476Y71827524D01*
X13454095Y71779905D01*
X13549333Y71732286D01*
X11930285Y72065619D02*
X11930285Y73065619D01*
X11930285Y72589429D02*
X11358856Y72589429D01*
X11358856Y72065619D02*
X11358856Y73065619D01*
X10977904Y73065619D02*
X10739809Y72065619D01*
X10549332Y72779905D01*
X10358856Y72065619D01*
X10120761Y73065619D01*
X9073142Y73065619D02*
X8835047Y72065619D01*
X8644570Y72779905D01*
X8454094Y72065619D01*
X8215999Y73065619D01*
X7692190Y72065619D02*
X7787428Y72113238D01*
X7835047Y72160857D01*
X7882666Y72256095D01*
X7882666Y72541810D01*
X7835047Y72637048D01*
X7787428Y72684667D01*
X7692190Y72732286D01*
X7549332Y72732286D01*
X7454094Y72684667D01*
X7406475Y72637048D01*
X7358856Y72541810D01*
X7358856Y72256095D01*
X7406475Y72160857D01*
X7454094Y72113238D01*
X7549332Y72065619D01*
X7692190Y72065619D01*
X6930285Y72732286D02*
X6930285Y72065619D01*
X6930285Y72637048D02*
X6882666Y72684667D01*
X6787428Y72732286D01*
X6644570Y72732286D01*
X6549332Y72684667D01*
X6501713Y72589429D01*
X6501713Y72065619D01*
X5596951Y72732286D02*
X5596951Y71922762D01*
X5644570Y71827524D01*
X5692189Y71779905D01*
X5787428Y71732286D01*
X5930285Y71732286D01*
X6025523Y71779905D01*
X5596951Y72113238D02*
X5692189Y72065619D01*
X5882666Y72065619D01*
X5977904Y72113238D01*
X6025523Y72160857D01*
X6073142Y72256095D01*
X6073142Y72541810D01*
X6025523Y72637048D01*
X5977904Y72684667D01*
X5882666Y72732286D01*
X5692189Y72732286D01*
X5596951Y72684667D01*
D10*
X7216667Y86870333D02*
X6783334Y86870333D01*
X7016667Y86603667D01*
X6916667Y86603667D01*
X6850000Y86570333D01*
X6816667Y86537000D01*
X6783334Y86470333D01*
X6783334Y86303667D01*
X6816667Y86237000D01*
X6850000Y86203667D01*
X6916667Y86170333D01*
X7116667Y86170333D01*
X7183334Y86203667D01*
X7216667Y86237000D01*
X6583333Y86870333D02*
X6350000Y86170333D01*
X6116667Y86870333D01*
X5950000Y86870333D02*
X5516667Y86870333D01*
X5750000Y86603667D01*
X5650000Y86603667D01*
X5583333Y86570333D01*
X5550000Y86537000D01*
X5516667Y86470333D01*
X5516667Y86303667D01*
X5550000Y86237000D01*
X5583333Y86203667D01*
X5650000Y86170333D01*
X5850000Y86170333D01*
X5916667Y86203667D01*
X5950000Y86237000D01*
X6900000Y85267000D02*
X6800000Y85233667D01*
X6766667Y85200333D01*
X6733333Y85133667D01*
X6733333Y85033667D01*
X6766667Y84967000D01*
X6800000Y84933667D01*
X6866667Y84900333D01*
X7133333Y84900333D01*
X7133333Y85600333D01*
X6900000Y85600333D01*
X6833333Y85567000D01*
X6800000Y85533667D01*
X6766667Y85467000D01*
X6766667Y85400333D01*
X6800000Y85333667D01*
X6833333Y85300333D01*
X6900000Y85267000D01*
X7133333Y85267000D01*
X6533333Y85600333D02*
X6133333Y85600333D01*
X6333333Y84900333D02*
X6333333Y85600333D01*
X5766667Y85600333D02*
X5700000Y85600333D01*
X5633334Y85567000D01*
X5600000Y85533667D01*
X5566667Y85467000D01*
X5533334Y85333667D01*
X5533334Y85167000D01*
X5566667Y85033667D01*
X5600000Y84967000D01*
X5633334Y84933667D01*
X5700000Y84900333D01*
X5766667Y84900333D01*
X5833334Y84933667D01*
X5866667Y84967000D01*
X5900000Y85033667D01*
X5933334Y85167000D01*
X5933334Y85333667D01*
X5900000Y85467000D01*
X5866667Y85533667D01*
X5833334Y85567000D01*
X5766667Y85600333D01*
D11*
X7874000Y86995000D02*
X7874000Y84709000D01*
X11176000Y86995000D02*
X11176000Y84709000D01*
X13970000Y86995000D02*
X13970000Y84709000D01*
X17780000Y84709000D02*
X17780000Y86995000D01*
X5080000Y85852000D02*
X21590000Y85852000D01*
X5080000Y84582000D02*
X5080000Y86487000D01*
X5080000Y87122000D02*
X5080000Y84582000D01*
X21590000Y87122000D02*
X5080000Y87122000D01*
X21590000Y84582000D02*
X21590000Y87122000D01*
X5080000Y84582000D02*
X21590000Y84582000D01*
D10*
X10391667Y85600333D02*
X9958334Y85600333D01*
X10191667Y85333667D01*
X10091667Y85333667D01*
X10025000Y85300333D01*
X9991667Y85267000D01*
X9958334Y85200333D01*
X9958334Y85033667D01*
X9991667Y84967000D01*
X10025000Y84933667D01*
X10091667Y84900333D01*
X10291667Y84900333D01*
X10358334Y84933667D01*
X10391667Y84967000D01*
X9758333Y85600333D02*
X9525000Y84900333D01*
X9291667Y85600333D01*
X9125000Y85600333D02*
X8691667Y85600333D01*
X8925000Y85333667D01*
X8825000Y85333667D01*
X8758333Y85300333D01*
X8725000Y85267000D01*
X8691667Y85200333D01*
X8691667Y85033667D01*
X8725000Y84967000D01*
X8758333Y84933667D01*
X8825000Y84900333D01*
X9025000Y84900333D01*
X9091667Y84933667D01*
X9125000Y84967000D01*
X12816666Y84900333D02*
X13050000Y85233667D01*
X13216666Y84900333D02*
X13216666Y85600333D01*
X12950000Y85600333D01*
X12883333Y85567000D01*
X12850000Y85533667D01*
X12816666Y85467000D01*
X12816666Y85367000D01*
X12850000Y85300333D01*
X12883333Y85267000D01*
X12950000Y85233667D01*
X13216666Y85233667D01*
X12583333Y85600333D02*
X12116666Y84900333D01*
X12116666Y85600333D02*
X12583333Y84900333D01*
X16281333Y85600333D02*
X15881333Y85600333D01*
X16081333Y84900333D02*
X16081333Y85600333D01*
X15714667Y85600333D02*
X15248000Y84900333D01*
X15248000Y85600333D02*
X15714667Y84900333D01*
X20218333Y85567000D02*
X20284999Y85600333D01*
X20384999Y85600333D01*
X20484999Y85567000D01*
X20551666Y85500333D01*
X20584999Y85433667D01*
X20618333Y85300333D01*
X20618333Y85200333D01*
X20584999Y85067000D01*
X20551666Y85000333D01*
X20484999Y84933667D01*
X20384999Y84900333D01*
X20318333Y84900333D01*
X20218333Y84933667D01*
X20184999Y84967000D01*
X20184999Y85200333D01*
X20318333Y85200333D01*
X19884999Y84900333D02*
X19884999Y85600333D01*
X19484999Y84900333D01*
X19484999Y85600333D01*
X19151666Y84900333D02*
X19151666Y85600333D01*
X18985000Y85600333D01*
X18885000Y85567000D01*
X18818333Y85500333D01*
X18785000Y85433667D01*
X18751666Y85300333D01*
X18751666Y85200333D01*
X18785000Y85067000D01*
X18818333Y85000333D01*
X18885000Y84933667D01*
X18985000Y84900333D01*
X19151666Y84900333D01*
X21268334Y86203667D02*
X21168334Y86170333D01*
X21001667Y86170333D01*
X20935000Y86203667D01*
X20901667Y86237000D01*
X20868334Y86303667D01*
X20868334Y86370333D01*
X20901667Y86437000D01*
X20935000Y86470333D01*
X21001667Y86503667D01*
X21135000Y86537000D01*
X21201667Y86570333D01*
X21235000Y86603667D01*
X21268334Y86670333D01*
X21268334Y86737000D01*
X21235000Y86803667D01*
X21201667Y86837000D01*
X21135000Y86870333D01*
X20968334Y86870333D01*
X20868334Y86837000D01*
X20635000Y86870333D02*
X20468333Y86170333D01*
X20335000Y86670333D01*
X20201667Y86170333D01*
X20035000Y86870333D01*
X19368333Y86237000D02*
X19401667Y86203667D01*
X19501667Y86170333D01*
X19568333Y86170333D01*
X19668333Y86203667D01*
X19735000Y86270333D01*
X19768333Y86337000D01*
X19801667Y86470333D01*
X19801667Y86570333D01*
X19768333Y86703667D01*
X19735000Y86770333D01*
X19668333Y86837000D01*
X19568333Y86870333D01*
X19501667Y86870333D01*
X19401667Y86837000D01*
X19368333Y86803667D01*
X18735000Y86170333D02*
X19068333Y86170333D01*
X19068333Y86870333D01*
X18501666Y86170333D02*
X18501666Y86870333D01*
X18101666Y86170333D02*
X18401666Y86570333D01*
X18101666Y86870333D02*
X18501666Y86470333D01*
X17358333Y86203667D02*
X17258333Y86170333D01*
X17091666Y86170333D01*
X17024999Y86203667D01*
X16991666Y86237000D01*
X16958333Y86303667D01*
X16958333Y86370333D01*
X16991666Y86437000D01*
X17024999Y86470333D01*
X17091666Y86503667D01*
X17224999Y86537000D01*
X17291666Y86570333D01*
X17324999Y86603667D01*
X17358333Y86670333D01*
X17358333Y86737000D01*
X17324999Y86803667D01*
X17291666Y86837000D01*
X17224999Y86870333D01*
X17058333Y86870333D01*
X16958333Y86837000D01*
X16724999Y86870333D02*
X16558332Y86170333D01*
X16424999Y86670333D01*
X16291666Y86170333D01*
X16124999Y86870333D01*
X15858332Y86170333D02*
X15858332Y86870333D01*
X15691666Y86870333D01*
X15591666Y86837000D01*
X15524999Y86770333D01*
X15491666Y86703667D01*
X15458332Y86570333D01*
X15458332Y86470333D01*
X15491666Y86337000D01*
X15524999Y86270333D01*
X15591666Y86203667D01*
X15691666Y86170333D01*
X15858332Y86170333D01*
X15158332Y86170333D02*
X15158332Y86870333D01*
X14691666Y86870333D02*
X14558333Y86870333D01*
X14491666Y86837000D01*
X14424999Y86770333D01*
X14391666Y86637000D01*
X14391666Y86403667D01*
X14424999Y86270333D01*
X14491666Y86203667D01*
X14558333Y86170333D01*
X14691666Y86170333D01*
X14758333Y86203667D01*
X14824999Y86270333D01*
X14858333Y86403667D01*
X14858333Y86637000D01*
X14824999Y86770333D01*
X14758333Y86837000D01*
X14691666Y86870333D01*
X13233333Y86837000D02*
X13299999Y86870333D01*
X13399999Y86870333D01*
X13499999Y86837000D01*
X13566666Y86770333D01*
X13599999Y86703667D01*
X13633333Y86570333D01*
X13633333Y86470333D01*
X13599999Y86337000D01*
X13566666Y86270333D01*
X13499999Y86203667D01*
X13399999Y86170333D01*
X13333333Y86170333D01*
X13233333Y86203667D01*
X13199999Y86237000D01*
X13199999Y86470333D01*
X13333333Y86470333D01*
X12899999Y86170333D02*
X12899999Y86870333D01*
X12499999Y86170333D01*
X12499999Y86870333D01*
X12166666Y86170333D02*
X12166666Y86870333D01*
X12000000Y86870333D01*
X11900000Y86837000D01*
X11833333Y86770333D01*
X11800000Y86703667D01*
X11766666Y86570333D01*
X11766666Y86470333D01*
X11800000Y86337000D01*
X11833333Y86270333D01*
X11900000Y86203667D01*
X12000000Y86170333D01*
X12166666Y86170333D01*
X10391667Y86870333D02*
X9958334Y86870333D01*
X10191667Y86603667D01*
X10091667Y86603667D01*
X10025000Y86570333D01*
X9991667Y86537000D01*
X9958334Y86470333D01*
X9958334Y86303667D01*
X9991667Y86237000D01*
X10025000Y86203667D01*
X10091667Y86170333D01*
X10291667Y86170333D01*
X10358334Y86203667D01*
X10391667Y86237000D01*
X9758333Y86870333D02*
X9525000Y86170333D01*
X9291667Y86870333D01*
X9125000Y86870333D02*
X8691667Y86870333D01*
X8925000Y86603667D01*
X8825000Y86603667D01*
X8758333Y86570333D01*
X8725000Y86537000D01*
X8691667Y86470333D01*
X8691667Y86303667D01*
X8725000Y86237000D01*
X8758333Y86203667D01*
X8825000Y86170333D01*
X9025000Y86170333D01*
X9091667Y86203667D01*
X9125000Y86237000D01*
M02*
